<?xml version="1.0" encoding="utf-8"?>
<!-- Generator: Adobe Illustrator 16.0.3, SVG Export Plug-In . SVG Version: 6.00 Build 0)  -->
<!DOCTYPE svg PUBLIC "-//W3C//DTD SVG 1.1//EN" "http://www.w3.org/Graphics/SVG/1.1/DTD/svg11.dtd">
<svg version="1.1" id="Layer_1" xmlns="http://www.w3.org/2000/svg" xmlns:xlink="http://www.w3.org/1999/xlink" x="0px" y="0px"
	 width="960px" height="560px" viewBox="0 0 960 560" enable-background="new 0 0 960 560" xml:space="preserve">
<g>
	<path fill-rule="evenodd" clip-rule="evenodd" fill="#3C5254" d="M426.189,84.734c9.815-21.963,34.344-20.474,34.344-20.474
		s98.773,0.521,127.382,1.148c28.608,0.625,28.94,21.621,28.94,21.621l3.376,55.726l-39.574,0.244c0,0,4.441,41.072-2.427-1.512
		c-6.867-42.584-29.248-36.942-29.248-36.942s-6.317-1.08-45.429-1.751c-39.113-0.668-38.819,43.663-38.819,43.663l-41.002-3.458
		l-2.536-0.215L426.189,84.734z"/>
	<path fill-rule="evenodd" clip-rule="evenodd" fill="#2DBAC1" d="M809.29,260.667L215,246.402v214.935
		c0,0,4.193,33.499,32.827,36.633c28.634,3.131,528.402,2.19,528.402,2.19s26.942-2.2,29.995-22.137
		C809.275,458.088,809.29,260.667,809.29,260.667z"/>
	<path fill-rule="evenodd" clip-rule="evenodd" fill="#3C5254" d="M215,254.851c0,0,227,151.403,594,10.746v26.632
		c0,0-317.813,166.599-594-11.586V254.851z"/>
	<path fill-rule="evenodd" clip-rule="evenodd" fill="#1C8A99" d="M215.994,259.602l0.409-90.147c0,0,0.082-24.541,38.77-30.754
		c38.688-6.214,523.067,0.886,523.067,0.886s28.122,3.408,28.137,29.868c0.013,26.46,4.244,104.873,4.244,104.873
		s-324.288,118.181-590.859-10.755"/>
	<path fill-rule="evenodd" clip-rule="evenodd" fill="#D7E2E2" d="M388.433,344.55c0,66.667,55.094,120.713,123.05,120.713
		c67.957,0,123.05-54.046,123.05-120.713c0-66.672-55.093-120.715-123.05-120.715C443.526,223.834,388.433,277.878,388.433,344.55z"
		/>
	<path fill-rule="evenodd" clip-rule="evenodd" fill="#E22323" d="M580,342.389c0-7.905-5.606-13.389-13.506-13.389H457.548
		c-7.901,0-15.548,5.483-15.548,13.389v1.469c0,7.904,7.647,16.143,15.548,16.143h108.946c7.899,0,13.506-8.238,13.506-16.143
		V342.389z"/>
	<path fill-rule="evenodd" clip-rule="evenodd" fill="#E22323" d="M530,302.946c0-9.359-7.587-16.946-16.946-16.946h-0.107
		c-9.359,0-16.946,7.587-16.946,16.946v87.107c0,9.359,7.587,16.946,16.946,16.946h0.107c9.359,0,16.946-7.587,16.946-16.946
		V302.946z"/>
</g>
</svg>
