<?xml version="1.0" encoding="utf-8"?>
<!-- Generator: Adobe Illustrator 16.0.3, SVG Export Plug-In . SVG Version: 6.00 Build 0)  -->
<!DOCTYPE svg PUBLIC "-//W3C//DTD SVG 1.1//EN" "http://www.w3.org/Graphics/SVG/1.1/DTD/svg11.dtd">
<svg version="1.1" id="Layer_1" xmlns="http://www.w3.org/2000/svg" xmlns:xlink="http://www.w3.org/1999/xlink" x="0px" y="0px"
	 width="259.867px" height="307.508px" viewBox="0 0 259.867 307.508" enable-background="new 0 0 259.867 307.508"
	 xml:space="preserve">
<g>
	<path fill-rule="evenodd" clip-rule="evenodd" fill="#FFFFFF" stroke="#000000" stroke-miterlimit="10" d="M86.304,84.585
		c10.837,16.15,24.373,21.402,38.261,15.255c14.584-6.455,19.154-18.994,14.326-39.99c20.823,0.687,37.641,9.047,50.732,25.004
		c4.902,5.976,8.555,12.702,10.91,20.054c0.854,2.666,2.089,3.802,5.004,4.434c28.172,6.109,44.797,33.907,36.977,61.261
		c-0.998,3.489-2.441,5.052-6.465,5.044c-70.951-0.14-141.905-0.163-212.856,0.03c-4.942,0.014-5.756-2.498-6.553-6.103
		c-7.001-31.694,18.333-59.773,51.184-56.44c3.724,0.378,5.075-0.209,5.978-3.982C75.953,100.173,80.071,92.041,86.304,84.585z"/>
	<path fill-rule="evenodd" clip-rule="evenodd" fill="#FF7BAC" d="M131.101,213.842c35.477-0.001,70.951,0.034,106.428-0.055
		c3.59-0.009,5.158,0.16,4.328,4.754c-5.058,27.99-9.754,56.048-14.443,84.104c-0.588,3.519-1.823,4.87-5.686,4.862
		c-60.958-0.133-121.917-0.102-182.875-0.042c-3.044,0.003-4.746-0.456-5.35-4.081c-4.733-28.387-9.634-56.747-14.708-85.075
		c-0.775-4.324,0.989-4.528,4.38-4.52C59.15,213.875,95.125,213.843,131.101,213.842z M144.664,259.492
		c0,9.487-0.075,18.975,0.028,28.46c0.061,5.545,3.404,8.889,8.582,8.963c4.959,0.07,8.535-3.003,8.799-8.253
		c0.98-19.449,1.859-38.904,2.573-58.364c0.216-5.897-3.983-9.559-9.877-9.301c-5.272,0.23-8.776,3.873-8.913,10.033
		C145.644,240.512,145.042,259.492,144.664,259.492z M97.697,286.61c0.07,6.732,3.264,10.343,8.829,10.31
		c5.638-0.033,8.651-3.632,8.665-10.42c0.019-8.985-1.286-45.923-1.285-55.406c0-2.56-0.48-4.955-2.25-6.949
		c-3.049-3.435-6.878-3.978-10.913-2.492c-4.341,1.6-5.736,5.19-5.537,9.603 M191.647,287.178c-0.211,5.776,2.376,9.509,8.217,9.722
		c5.838,0.212,8.898-3.319,9.473-10.917c0.275-3.648,0.404-7.316,0.873-10.94c1.75-13.523,3.74-27.016,5.377-40.552
		c0.724-5.982-2.369-9.462-8.256-10.199c-5.443-0.682-9.921,2.557-10.541,8.204C194.866,250.023,192.65,267.526,191.647,287.178z
		 M50.735,288.262c0.28,5.589,4.273,8.976,9.542,8.644c5.114-0.323,8.092-3.866,7.922-9.522c-0.06-1.996-0.275-3.987-0.42-5.98
		c0.047-0.004,0.095-0.008,0.143-0.012c-0.451-5.641-0.791-11.293-1.377-16.919c-1.139-10.924-2.217-21.861-3.721-32.737
		c-0.768-5.553-5.544-8.365-11.076-7.311c-5.644,1.075-8.208,4.571-7.464,10.33c0.747,5.774,1.537,11.545,2.386,17.305"/>
	<path fill-rule="evenodd" clip-rule="evenodd" fill="#FF7BAC" d="M130.13,209.122c-36.32,0-72.641-0.026-108.961,0.031
		c-4.948,0.008-9.625-0.79-13.88-3.351c-9.669-5.82-9.725-16.595-0.128-22.484c4.399-2.7,9.249-3.432,14.359-3.428
		c56.146,0.045,112.293,0.022,168.439,0.021c16.494-0.001,32.988,0.04,49.481-0.012c4.606-0.015,8.934,0.875,12.915,3.209
		c9.964,5.842,10.021,16.839,0.14,22.754c-4.764,2.852-9.994,3.315-15.403,3.308c-35.653-0.05-71.308-0.025-106.962-0.025
		C130.13,209.137,130.13,209.129,130.13,209.122z"/>
	<path fill-rule="evenodd" clip-rule="evenodd" fill="#BC0A0A" d="M114.369,98.084c-13.125-0.022-22.854-8.141-25.258-20.024
		c-2.244-11.09,3.998-22.899,14.994-26.89c4.356-1.581,4.123-3.202,2.377-6.53c-9.294-17.718-24.203-29.32-41.446-38.433
		c-0.735-0.388-1.535-0.665-2.237-1.103c-1.381-0.863-4.1-0.816-2.985-3.571c1.225-3.025,3.17-0.75,4.485-0.15
		c6.98,3.184,13.565,7.088,19.726,11.674C95.967,21.951,106,32.485,111.594,46.543c1.303,3.275,3.883,2.625,6.102,3.096
		c11.662,2.471,19.765,11.994,19.913,23.604c0.148,11.69-7.614,21.633-19.059,24.297C116.782,97.952,114.933,98.015,114.369,98.084z
		"/>
</g>
</svg>
