<?xml version="1.0" encoding="utf-8"?>
<!-- Generator: Adobe Illustrator 16.0.3, SVG Export Plug-In . SVG Version: 6.00 Build 0)  -->
<!DOCTYPE svg PUBLIC "-//W3C//DTD SVG 1.1//EN" "http://www.w3.org/Graphics/SVG/1.1/DTD/svg11.dtd">
<svg version="1.1" id="Layer_1" xmlns="http://www.w3.org/2000/svg" xmlns:xlink="http://www.w3.org/1999/xlink" x="0px" y="0px"
	 width="499.402px" height="480.059px" viewBox="0 0 499.402 480.059" enable-background="new 0 0 499.402 480.059"
	 xml:space="preserve">
<g>
	<path fill-rule="evenodd" clip-rule="evenodd" fill="#F94646" d="M250.161,0.041c12.333-0.001,24.666-0.038,36.998,0.009
		c11.465,0.043,20.09,8.224,20.184,19.042c0.095,10.818-8.4,19.042-19.948,19.231c-4.999,0.082-10.005,0.163-14.997-0.029
		c-2.914-0.112-3.65,1.008-3.615,3.766c0.133,10.665,0.166,21.333-0.017,31.997c-0.052,3.031,0.89,3.836,3.865,4.172
		c29.87,3.378,57.813,12.696,83.167,28.866c52.859,33.714,84.852,81.688,93.439,143.77c8.339,60.293-8.267,114.033-48.021,160.328
		c-2.625,3.058-2.81,4.647,0.163,7.497c9.263,8.877,18.212,18.08,27.284,27.156c8.833,8.838,9.426,20.289,1.47,28.404
		c-8.054,8.215-19.776,7.665-28.759-1.326c-9.658-9.668-19.438-19.219-28.93-29.047c-2.453-2.54-3.914-2.743-6.863-0.652
		c-26.957,19.11-56.85,30.886-89.666,35.021c-51.408,6.479-98.475-5.157-141.181-34.352c-3.189-2.18-4.727-1.948-7.26,0.666
		c-9.394,9.692-19.002,19.178-28.586,28.685c-8.774,8.703-20.445,9.08-28.397,1.01c-7.829-7.945-7.399-19.433,1.131-28.037
		c9.035-9.113,18.049-18.25,27.262-27.182c2.485-2.41,2.975-3.746,0.38-6.658c-26.364-29.581-43.039-63.931-48.688-103.191
		c-8.677-60.311,6.278-114.37,45.512-161.053c31.979-38.051,73.166-60.588,122.153-68.891c0.164-0.028,0.329-0.053,0.493-0.079
		c3.879-0.614,9.271,0.564,11.215-2.29c1.879-2.759,0.597-7.704,0.619-11.688c0.041-7.666-0.122-15.337,0.098-22.997
		c0.091-3.159-1.012-4.009-4.006-3.901c-5.326,0.194-10.67,0.19-15.996-0.015c-10.502-0.405-18.564-8.775-18.567-19.05
		c-0.003-10.434,8.394-19.022,19.066-19.146C224.161-0.073,237.162,0.042,250.161,0.041z"/>
	<path fill-rule="evenodd" clip-rule="evenodd" fill="#F94646" d="M354.337,62.365c9.711-9.035,17.29-19.712,29.83-24.479
		c19.758-7.51,37.861-4.56,53.191,9.896c16.348,15.415,32.114,31.464,47.754,47.606c19.384,20.007,18.925,50.096-0.629,70.034
		c-5,5.099-10.009,10.188-15.361,15.635C444.528,128.096,406.63,88.726,354.337,62.365z"/>
	<path fill-rule="evenodd" clip-rule="evenodd" fill="#F94646" d="M144.082,62.87C92.897,88.656,54.907,127.974,30.367,180.916
		c-7.923-8.598-17.064-15.447-23.067-25.234c-11.047-18.011-9.638-42.216,4.788-57.59c16.75-17.851,34.037-35.262,51.954-51.937
		c17.471-16.259,44.889-16.344,63.205-0.956C133.434,50.397,138.495,56.933,144.082,62.87z"/>
	<path fill-rule="evenodd" clip-rule="evenodd" fill="#FDFDFD" d="M96.088,278.631c0.187-84.152,66.919-150.35,147.284-153.652
		c85.815-3.526,159.832,64.86,159.87,153.498c0.035,83.639-66.728,151.68-149.967,153.427
		C166.728,433.72,97.556,365.936,96.088,278.631z"/>
	<path fill-rule="evenodd" clip-rule="evenodd" fill="#333F4F" d="M268.659,324.375c-1.625,0.021-3.93-1.161-5.873-3.155
		c-3.371-3.459-6.825-6.842-10.077-10.409c-1.618-1.775-2.659-1.83-4.351-0.03c-3.418,3.639-7.024,7.112-10.68,10.516
		c-4.518,4.206-10.432,4.184-14.239,0.113c-3.794-4.057-3.541-9.318,0.797-13.775c3.136-3.222,6.251-6.494,9.664-9.406
		c2.755-2.352,2.932-3.771,0.17-6.538c-15.882-15.916-31.509-32.086-47.245-48.146c-1.769-1.806-3.528-3.626-4.001-6.186
		c-0.81-4.375,0.637-7.961,4.487-10.241c3.836-2.271,7.752-1.992,11.09,0.99c3.099,2.769,5.912,5.858,8.823,8.833
		c13.281,13.57,26.686,27.024,39.733,40.815c3.273,3.459,4.914,2.936,7.985-0.096c26.438-26.091,53.057-51.999,79.583-78
		c2.841-2.784,5.799-5.199,10.048-4.341c3.874,0.782,6.543,3.176,7.695,7.036c1.189,3.985-0.354,7.152-3.147,9.888
		c-9.399,9.209-18.803,18.415-28.209,27.617c-17.859,17.473-35.672,34.996-53.641,52.355c-2.501,2.416-2.716,3.794-0.063,6.164
		c3.594,3.208,6.934,6.737,10.104,10.371c2.598,2.978,3.227,6.546,1.386,10.235C276.901,322.59,273.945,324.427,268.659,324.375z"/>
</g>
</svg>
