<?xml version="1.0" encoding="utf-8"?>
<!-- Generator: Adobe Illustrator 16.0.3, SVG Export Plug-In . SVG Version: 6.00 Build 0)  -->
<!DOCTYPE svg PUBLIC "-//W3C//DTD SVG 1.1//EN" "http://www.w3.org/Graphics/SVG/1.1/DTD/svg11.dtd">
<svg version="1.1" id="Layer_1" xmlns="http://www.w3.org/2000/svg" xmlns:xlink="http://www.w3.org/1999/xlink" x="0px" y="0px"
	 width="452.981px" height="481.668px" viewBox="0 0 452.981 481.668" enable-background="new 0 0 452.981 481.668"
	 xml:space="preserve">
<g>
	<path fill-rule="evenodd" clip-rule="evenodd" fill="#CA6A9C" d="M452.872,440.388c0,7.949,0.082,14.283-0.021,20.615
		c-0.121,7.469-4.962,10.718-12.122,8.335c-4.251-1.415-7.437-4.299-10.585-7.305c-11.342-10.823-21.145-23.092-32.184-34.198
		c-4.824-4.854-9.989-9.326-15.598-13.243c-6.016-4.201-10.023-4.074-15.91,0.407c-12.078,9.194-20.698,21.605-30.414,32.984
		c-5.958,6.979-11.933,13.915-19.213,19.568c-11.839,9.194-21.498,9.302-33.68,0.579c-11.775-8.433-20.701-19.72-30.452-30.185
		c-7.833-8.406-15.421-17.082-24.968-23.674c-6.13-4.231-8.86-4.295-14.906,0.169c-14.456,10.673-25.988,24.325-37.886,37.593
		c-7.004,7.811-13.827,15.79-21.494,22.98c-9.495,8.904-17.102,8.9-26.461-0.189c-11.275-10.95-20.021-24.046-30.263-35.873
		c-4.245-4.902-8.348-9.936-13.447-14.049c-4.863-3.924-6.69-3.991-11.06,0.359c-10.868,10.819-19.942,23.275-30.963,33.958
		c-3.843,3.726-7.938,7.105-12.595,9.775c-11.701,6.707-21.776,2.766-25.602-10.254c-3.332-11.338-3.404-23.056-2.676-34.68
		c1.195-19.086,2.798-38.151,4.553-57.195c2.029-22.027,4.337-44.03,6.659-66.029c1.99-18.856,4.117-37.698,6.278-56.536
		c3.772-32.883,8.644-65.606,14.508-98.18c2.83-15.72,6.192-31.33,11.369-46.465c9.425-27.56,28.051-47.595,52.176-63.001
		c28.149-17.977,59.378-27.238,92.038-32.525c19.289-3.122,38.669-4.924,58.186-3.789c52.544,3.054,98.639,20.893,135.253,59.946
		c17.021,18.155,26.834,39.952,31.381,64.171c8.469,45.11,15.091,90.513,21.267,135.989c4.969,36.585,9.788,73.191,13.498,109.919
		C449.943,394.182,453.666,417.937,452.872,440.388z"/>
	<path fill-rule="evenodd" clip-rule="evenodd" fill="#FC9FCB" d="M405.624,157.922c3.104,2.344,2.543,6.079,3.051,9.174
		c3.195,19.448,6.238,38.926,8.979,58.442c2.949,20.998,5.521,42.05,8.24,63.08c2.295,17.741,4.748,35.465,6.789,53.236
		c1.665,14.489,2.783,29.04,4.219,43.557c1.565,15.829,3.39,31.636,4.746,47.482c0.553,6.454,0.185,12.988,0.207,19.486
		c0.003,0.79,0.228,1.777-0.664,2.231c-1.162,0.592-1.824-0.422-2.503-1.074c-1.803-1.731-3.548-3.522-5.319-5.285
		c-9.202-9.154-17.546-19.129-26.641-28.356c-6.481-6.575-13.317-13.035-21.805-17.252c-8.005-3.979-15.755-3.507-23.209,1.295
		c-11.395,7.342-19.351,18.12-27.841,28.317c-7.873,9.454-15.364,19.228-25.31,26.719c-7.253,5.464-11.177,5.579-18.307,0.007
		c-12.533-9.795-22.619-22.034-33.254-33.705c-7.529-8.265-15.201-16.305-24.939-22.027c-9.292-5.461-18.271-4.164-26.592,1.937
		c-13.639,9.999-24.771,22.607-35.784,35.308c-8.292,9.563-17.071,18.663-26.146,27.483c-2.795,2.717-4.943,1.344-7.268-0.793
		c-8.741-8.037-15.852-17.483-23.184-26.726c-6.208-7.825-12.553-15.49-19.806-22.392c-11.826-11.253-22.19-10.615-32.659,1.981
		c-9.461,11.385-19.222,22.505-29.882,32.807c-2.54,2.455-5.309,4.555-8.443,6.136c-4.184,2.11-6.777,1.218-7.971-3.294
		c-1.181-4.464-2.13-9.092-2.354-13.688c-0.994-20.482,1.656-40.767,3.7-61.085c1.261-12.538,2.056-25.123,3.259-37.669
		c1.47-15.337,3.14-30.655,4.739-45.979c1.412-13.518,2.704-27.05,4.307-40.546c1.875-15.793,3.783-31.59,6.124-47.318
		c3.023-20.313,6.498-40.558,9.746-60.837c0.232-1.449-0.14-3.139,2.004-3.421c0.846-0.396,1.64-0.142,2.314,0.342
		c4.337,3.106,8.889,4.964,14.304,2.924c0.909-0.343,1.961-0.034,2.723,0.758c1.023,2.866-0.618,5.179-1.66,7.569
		c-12.29,28.194-7.888,67.188,16.302,92.107c31.666,32.62,79.431,29.956,108.135,5.105c32.497-28.137,38.151-79.79,12.109-113.528
		c-15.798-20.467-36.387-32.808-62.761-32.812c-25.493-0.004-46.489,10.246-62.396,30.418c-0.824,1.045-1.521,2.195-2.587,3.029
		c-0.424,0.297-0.901,0.455-1.418,0.484c-7.423-2.65-14.285-6.044-17.867-13.709c-0.601-1.594-0.908-3.378-2.711-4.205
		c-0.528-0.381-1.068-0.763-0.483-1.499c3.59-19.317,11.025-36.803,24.171-51.685c23.677-26.805,54.795-40.244,88.349-49.184
		c29.438-7.843,59.506-10.574,89.853-8.931c20.674,1.12,40.674,6.133,59.822,14.07c19.986,8.285,38.219,19.548,53.871,34.519
		c19.586,18.734,31.553,41.68,35.926,68.503c0.319,1.963,0.74,3.908,1.113,5.862c0.369,3.976-2.709,5.696-5.198,7.682
		c-2.978,2.374-6.426,3.884-10.191,4.613c-3.297-1.375-4.445-3.95-4.104-7.353c0.811-0.958,2.04-1.033,3.11-1.433
		c7.301-2.721,9.277-5.275,10.099-13.196c-3.746,5.846-6.492,12.601-14.369,14.106c-2.263-0.634-3.401-2.546-4.836-4.156
		c-15.752-17.688-35.297-27.788-59.141-27.978c-38.52-0.306-72.742,28.827-78.982,66.994c-4.569,27.945,1.557,53.162,21.465,73.906
		c14.735,15.354,32.702,23.491,54.521,24.584c42.857,2.145,78.232-33.846,82.041-74.391c1.187-12.631-0.941-24.901-4.842-36.915
		c-0.695-2.143-2.091-4.285-0.789-6.699C396.441,155.674,401.07,156.614,405.624,157.922z"/>
	<path fill-rule="evenodd" clip-rule="evenodd" fill="#F99EC9" d="M49.858,122.138c0.262,0.339,0.523,0.677,0.785,1.016
		c1.464,0.876,1.309,2.607,2.051,3.864c1.649,10.388,8.397,14.223,18.187,14.151l0.205,0.164c-0.174,3.129-1.952,4.957-4.798,5.931
		c-5.69,0.732-11.255,0.322-16.489-2.185c-1.687-0.809-3.899-1.306-3.951-3.876C46.258,134.653,47.822,128.346,49.858,122.138z"/>
	<path fill-rule="evenodd" clip-rule="evenodd" fill="#F59CC6" d="M403.563,142.938c2.258,2.759,2.198,6.109,2.398,9.394
		c-2.755,3.712-6.8,2.404-10.411,2.558c-1.447,0.062-2.895-0.71-4.402-0.802c-2.646-1.12-3.772-3.135-3.506-5.965
		C393.024,146.638,398.576,145.655,403.563,142.938z"/>
	<path fill-rule="evenodd" clip-rule="evenodd" fill="#0F090C" d="M403.563,142.938c-4.217,4.739-9.604,5.909-15.633,5.127
		l-0.374-0.313l0.135-0.47c1.959-2.416,5.223-2.354,7.614-4.041c3.093-2.181,6.171-4.267,7.659-7.948
		c0.601-0.739,1.201-1.479,1.802-2.219c1.963-0.097,1.613,1.083,1.252,2.27C406.073,138.157,404.285,140.376,403.563,142.938z"/>
	<path fill-rule="evenodd" clip-rule="evenodd" fill="#0F080B" d="M391.05,153.28c4.988-0.037,10.07,1.409,14.911-0.948
		c2.813,0.419,4.724-3.039,8.018-1.942c-1.798,3.893-5.315,5.452-8.355,7.532c-4.893,0.849-9.458-0.002-13.68-2.638
		C391.077,154.869,390.424,154.36,391.05,153.28z"/>
	<path fill-rule="evenodd" clip-rule="evenodd" fill="#0E080A" d="M45.848,141.203c6.001,5.624,13.611,4.544,20.852,5
		c0.631,1.748-0.452,2.256-1.84,2.543c-7.282,3.811-13.348,1.193-19.005-3.593C45.42,143.837,42.661,142.525,45.848,141.203z"/>
	<path fill-rule="evenodd" clip-rule="evenodd" fill="#432233" d="M406.018,135.344c-0.231-0.859-0.321-1.797-1.252-2.27
		c0.286-0.909,0.788-2.632,1.5-2.048C407.645,132.157,407.141,133.941,406.018,135.344z"/>
	<path fill-rule="evenodd" clip-rule="evenodd" fill="#FDFDFD" d="M391.05,153.28c0.297,0.667,0.595,1.334,0.893,2.003
		c3.992,12.865,7.709,25.74,6.939,39.483c-1.077,19.254-7.571,36.316-20.137,50.947c-12.892,15.012-28.646,25.205-48.643,27.821
		c-22.224,2.907-42.74-1.29-60.592-15.407c-16.196-12.809-27.403-29.096-31.193-49.559c-7.023-37.918,7.208-74.47,42.521-92.951
		c29.477-15.427,58.686-12.416,85.748,7.698c6.207,4.612,10.849,10.694,16.348,15.959c0.479,0.189,0.755,0.533,0.793,1.055
		c0.871,2.573,1.866,5.076,3.964,6.95c0.082,0.263,0.161,0.523,0.239,0.785C388.765,149.927,389.362,151.93,391.05,153.28z"/>
	<path fill-rule="evenodd" clip-rule="evenodd" fill="#FDFDFD" d="M64.86,148.746c0.703-0.783,1.796-1.283,1.84-2.543
		c2.25-0.914,2.682-3.464,4.385-4.87c13.68-19.829,32.235-31.374,56.364-34.327c20.754-2.54,39.289,2.512,55.783,14.892
		c19.029,14.284,30.794,33.022,33.747,57.027c2.829,23.001-2.127,44.024-15.863,62.614c-15.337,20.758-36.184,31.15-62.064,32.824
		c-38.72,2.504-75.057-28.918-81.766-65.843c-3.322-18.283-2.583-36.431,5.665-53.646C63.875,152.943,64.881,150.993,64.86,148.746z
		"/>
	<path fill-rule="evenodd" clip-rule="evenodd" fill="#CA6A9E" d="M262.454,269.99c2.881,22.169-7.39,42.901-25.36,51.577
		c-10.926,5.274-23.741,2.026-31.324-7.482c-9.24-11.587-14.72-24.372-13.927-39.436c0.05-0.951,0.214-1.896,0.402-3.507
		c2.627,2.178,2.736,4.923,3.419,7.223c3.001,10.102,7.159,19.573,13.126,28.349c9.784,14.389,25.286,13.415,36.163,1.389
		c8.662-9.577,12.953-21.107,15.83-33.368c0.265-1.127,0.558-2.25,0.898-3.356C261.812,270.959,262.111,270.593,262.454,269.99z"/>
	<path fill-rule="evenodd" clip-rule="evenodd" fill="#100B0D" d="M70.88,141.169c-11.577,1.901-16.882-1.961-19.145-13.938
		c0.668-2.129,1.387-1.005,2.104-0.032c2.85,5.862,7.658,9.476,13.556,11.863C68.659,139.573,70.439,139.28,70.88,141.169z"/>
	<path fill-rule="evenodd" clip-rule="evenodd" fill="#0D090B" d="M62.771,116.243c1.219,7.116,5.651,12.117,11.106,16.516
		c-6.049,1.857-11.831-2.164-12.874-9.085c-0.413-2.743-0.044-5.604-0.032-8.412C62.106,114.609,62.332,115.621,62.771,116.243z"/>
	<path fill-rule="evenodd" clip-rule="evenodd" fill="#140D10" d="M383.727,140.33c-0.264-0.352-0.528-0.704-0.792-1.056
		c6.706-4.16,11.263-9.998,13.575-17.71C400.684,130.69,395.082,138.773,383.727,140.33z"/>
	<path fill-rule="evenodd" clip-rule="evenodd" fill="#915C75" d="M53.839,127.198c-0.707-0.332-1.428-1.631-2.104,0.032
		c-1.052-1.175-0.869-2.681-1.092-4.077C53.888,122.779,52.994,125.676,53.839,127.198z"/>
	<path fill-rule="evenodd" clip-rule="evenodd" fill="#87556C" d="M62.771,116.243c-0.6-0.327-1.2-0.654-1.799-0.981
		c-0.083-1.393-0.464-2.889,1.181-3.91C63.309,113.043,62.789,114.672,62.771,116.243z"/>
	<path fill-rule="evenodd" clip-rule="evenodd" fill="#73D0EB" d="M262.597,142.01c14.776-15.297,45.039-14.866,60.455,0.86
		c0.286,2.937-1.813,3.163-3.882,3.431c-1.343-0.029-2.57-0.498-3.748-1.087c-5.887-2.938-11.869-3.613-18.046-0.908
		c-1.053,0.461-2.208,0.628-3.384,0.541c-8.144-0.269-16.286-0.007-24.423-0.181C266.993,144.611,264.104,145.023,262.597,142.01z"
		/>
	<path fill-rule="evenodd" clip-rule="evenodd" fill="#8DF9F2" d="M322.918,214.188c-5.057,6.467-12.386,8.646-19.885,10.393
		c-9.618,2.241-19.072,2.029-28.135-2.434c-0.925-5.178,0.646-8.677,4.829-10.763c12.064,0.461,24.132,0.063,36.195,0.266
		C318.479,211.693,321.358,211.229,322.918,214.188z"/>
	<path fill-rule="evenodd" clip-rule="evenodd" fill="#7EE3EE" d="M246.955,191.122c-3.179-7.974-2.904-15.981-0.238-24.013
		c7.07-0.858,14.124-1.201,21.115,0.63c1.965,5.628,0.386,11.228-0.144,16.837C261.695,189.645,254.746,191.718,246.955,191.122z"/>
	<path fill-rule="evenodd" clip-rule="evenodd" fill="#76D6EC" d="M262.597,142.01c2.713,1.728,5.752,1.105,8.678,1.136
		c6.262,0.065,12.525-0.018,18.788,0.046c1.725,0.018,3.705-0.621,4.96,1.307c0.922,2.458-0.475,3.939-2.218,5.28
		c-4.404,0.905-8.34,2.957-12.286,5.002c-1.717,0.889-3.338,2.24-5.519,1.577c-4.668-1.271-9.44-0.483-14.156-0.757
		c-2.907-0.168-5.956,0.057-8.151-2.481C254.825,148.374,257.815,144.394,262.597,142.01z"/>
	<path fill-rule="evenodd" clip-rule="evenodd" fill="#A1F3F9" d="M246.955,191.122c6.698-1.48,13.28-3.344,19.642-5.939
		c3.334,3.23,5.169,7.207,5.857,11.759c-3.189,5.223-8.134,8.62-12.84,12.256c-0.82,0.634-1.837,0.746-2.763,0.021
		C251.43,204.347,248.45,198.141,246.955,191.122z"/>
	<path fill-rule="evenodd" clip-rule="evenodd" fill="#7ADCED" d="M252.692,153.119c6.209,1.571,12.542,0.897,18.83,1.072
		c1.668,0.047,3.88-0.789,4.356,1.991c-1.608,4.711-3.622,9.15-8.042,11.975c-7.037-0.392-14.163,1.002-21.119-1.047
		C247.395,161.885,248.898,157.013,252.692,153.119z"/>
	<path fill-rule="evenodd" clip-rule="evenodd" fill="#89F4F1" d="M322.918,214.188c-1.799-1.116-3.799-1.034-5.806-1.031
		c-10.825,0.019-21.651-0.001-32.477,0.018c-2.008,0.004-4.006,0.073-5.812-1.02c-1.951-3.126-0.537-5.361,1.932-7.32
		c1.704-0.444,3.258,0.171,4.803,0.741c8.847,3.266,17.451,2.933,25.811-1.624c1.591-0.867,3.238-1.66,5.113-1.764
		c5.051,1.208,10.522-0.855,15.361,1.971C329.76,208.295,327.514,212.287,322.918,214.188z"/>
	<path fill-rule="evenodd" clip-rule="evenodd" fill="#D2F3FA" d="M280.858,205.243c-1.205,2.149-2.289,4.334-2.033,6.912
		c-2.515,2.857-2.787,6.595-3.927,9.992c-7.654-2.022-13.325-6.813-18.047-12.93c6.075-2.639,9.852-8.139,14.937-12.01
		C276.153,198.372,279.157,201.072,280.858,205.243z"/>
	<path fill-rule="evenodd" clip-rule="evenodd" fill="#86EFF0" d="M331.844,204.159c-5.295-0.26-10.667,0.756-15.873-0.966
		c0.818-5.019,5.255-7.43,7.977-11.085c4.589-1.525,9.17-0.659,13.753,0.05C336.927,196.734,335.151,200.82,331.844,204.159z"/>
	<path fill-rule="evenodd" clip-rule="evenodd" fill="#82E8EE" d="M337.7,192.158c-4.432,2.259-9.265-0.927-13.721,1.012
		c-1.675-3.134,1.401-6.029,0.448-9.127c2.721-2.499,4.084-6.3,7.644-8.007c2.02,2.342,5.474,1.181,7.659,3.124
		C340.347,183.694,339.211,187.956,337.7,192.158z"/>
	<path fill-rule="evenodd" clip-rule="evenodd" fill="#7FE1EE" d="M339.73,179.16c-2.615-1.079-7.113,2.654-7.902-3.093
		c-2.135-4.214-1.728-8.755-1.708-13.247c1.324-2.148,3.417-2.627,5.732-2.617C339.533,166.033,340.309,172.458,339.73,179.16z"/>
	<path fill-rule="evenodd" clip-rule="evenodd" fill="#79D8EC" d="M335.853,160.203c-1.292,1.534-2.997,2.029-4.928,1.958
		c-3.907-2.578-4.664-7.471-7.842-10.643c-1.784-1.779-4.443-3.134-4.376-6.273c1.89,0.02,3.562-0.362,4.345-2.373
		C329.896,146.745,333.396,153.088,335.853,160.203z"/>
	<path fill-rule="evenodd" clip-rule="evenodd" fill="#74D2EB" d="M123.808,145.023c17.267-20.123,56.007-18.493,69.23,2.914
		c-0.022,2.682-2.163,2.523-3.895,2.917c-2.159-0.146-3.489-1.75-5.062-2.919c-2.944-2.188-6.046-4.084-9.633-5.006
		c-6.688-1.718-11.642,0.307-15.202,6.171c-0.589,0.97-0.875,2.201-2.313,2.314c-1.29-0.473-2.365-1.312-3.521-2.02
		c-6.896-1.534-13.875-0.336-20.803-0.696c-2.151-0.111-4.336,0.164-6.446-0.364C124.525,147.924,122.768,147.42,123.808,145.023z"
		/>
	<path fill-rule="evenodd" clip-rule="evenodd" fill="#8AF6F2" d="M192.882,209.17c-2.846,3.557-5.665,7.144-10.046,8.983
		c-3.881,1.403-7.884,0.485-11.825,0.547c-7.634,0.118-15.272,0.128-22.906-0.02c-2.643-0.051-5.493-0.019-6.344-3.474
		c-0.267-3.96,0.99-7.54,2.789-10.981c1.359-0.776,2.605-0.11,3.795,0.413c7.262,3.193,14.698,4.105,22.419,1.909
		c1.448-0.412,2.949-0.532,4.459-0.262c3.888,0.749,7.821,0.184,11.722,0.436C189.18,206.865,191.638,206.578,192.882,209.17z"/>
	<path fill-rule="evenodd" clip-rule="evenodd" fill="#77D8EC" d="M123.808,145.023c0.415,2.732,2.558,2.114,4.277,2.124
		c7.144,0.043,14.289,0.014,21.433,0.021c1.968,0.002,4.071-0.374,5.351,1.749c-0.58,1.574-2.036,2.109-3.369,2.704
		c-4.89,2.181-9.239,5.095-12.815,9.114c-1.004,1.128-2.09,2.147-3.796,1.95c-4.754-0.089-9.509,0.125-14.247-0.197
		c-2.426-0.166-4.938-0.354-6.787-2.327C115.582,154.069,118.856,148.995,123.808,145.023z"/>
	<path fill-rule="evenodd" clip-rule="evenodd" fill="#ACF8FD" d="M122.874,210.144c-6.296-4.807-9.593-11.347-10.975-18.993
		c6.045-3.676,12.716-5.266,19.672-5.915c3.937,2.76,4.845,7.068,5.794,11.358C134.02,202.691,128.271,206.229,122.874,210.144z"/>
	<path fill-rule="evenodd" clip-rule="evenodd" fill="#D2F3FA" d="M122.874,210.144c3.845-5.23,9.498-8.513,14.021-13.013
		c4.309,0.733,6.475,3.772,8.035,7.464c0.257,3.38-2.105,6.188-2.081,9.519c-1.343,2.569-0.71,5.879-3.023,8.086
		C132.908,219.963,127.151,216.093,122.874,210.144z"/>
	<path fill-rule="evenodd" clip-rule="evenodd" fill="#7CDFED" d="M113.854,160.162c7.218,1.934,14.779-0.12,21.99,1.894
		c0.355,0.581,0.607,1.246,0.415,1.883c-1.92,6.333-3.323,12.745-3.31,19.412c0.002,0.817-0.517,1.552-1.228,2.06
		c-2.526-0.853-2.295-3.13-2.256-4.999c0.08-3.822-1.872-4.89-5.289-4.768c-2.988,0.106-5.999,0.199-8.978-0.133
		c-2.129-0.237-4.461-0.44-4.431-3.506C110.692,167.77,110.963,163.624,113.854,160.162z"/>
	<path fill-rule="evenodd" clip-rule="evenodd" fill="#80E6EF" d="M110.767,172.005c0.631,1.275,1.572,2.106,3.07,2.131
		c0.826,0.014,1.652,0.025,2.478,0.029c4.131,0.02,8.569-0.92,12.317,0.285c5.21,1.677,0.266,7.539,3.004,10.718
		c0.323,0.156,0.461,0.353,0.416,0.588c-0.05,0.256-0.119,0.384-0.208,0.384c-6.896,0.684-13.14,3.964-19.945,5.011
		C109.877,184.866,108.649,178.534,110.767,172.005z"/>
	<path fill-rule="evenodd" clip-rule="evenodd" fill="#8EFBF3" d="M139.826,222.199c-0.169-3.136,1.019-5.763,3.023-8.086
		c-0.218,2.898,1.612,3.093,3.836,3.075c7.622-0.061,15.244-0.006,22.866-0.029c4.457-0.013,8.918-0.158,13.285,0.994
		C169.208,227.041,154.91,228.795,139.826,222.199z"/>
	<path fill-rule="evenodd" clip-rule="evenodd" fill="#88F2F1" d="M192.882,209.17c-4.094-1.951-8.452-0.58-12.666-1.016
		c-1.867-0.193-4.032,0.773-5.453-1.306c3.468-4.837,8.091-8.323,13.179-11.28c4.236,0.734,8.779-1.008,12.78,1.588
		C199.229,201.892,196.75,205.983,192.882,209.17z"/>
	<path fill-rule="evenodd" clip-rule="evenodd" fill="#83EBEF" d="M200.723,197.156c-4.544-0.44-9.226,1.03-13.657-0.981
		c-0.111-4.884,2.058-8.884,4.887-12.633c4.177-1.095,8.67-0.458,12.715-2.304C204.502,186.829,203.5,192.213,200.723,197.156z"/>
	<path fill-rule="evenodd" clip-rule="evenodd" fill="#80E4EE" d="M204.668,181.238c-1.588,3.419-4.658,2.973-7.592,2.938
		c-1.799-0.022-3.6,0.05-5.4,0.08c-0.6,0.209-0.944-0.001-1.037-0.629c3.638-4.677,4.467-10.456,6.22-15.879
		c1.964-1.015,3.984-1.496,6.143-0.646C205.718,171.559,204.838,176.44,204.668,181.238z"/>
	<path fill-rule="evenodd" clip-rule="evenodd" fill="#7BDBED" d="M203.002,167.102c-1.848,1.189-3.917,1.128-5.988,1.056
		c-3.088-5.828-6.479-11.519-8.176-17.979c1.284-0.963,3.241-0.664,4.199-2.239C199.128,152.886,201.624,159.703,203.002,167.102z"
		/>
	<path fill-rule="evenodd" clip-rule="evenodd" fill="#FDFDFD" d="M318.707,145.245c5.16,4.854,9.4,10.371,12.218,16.916
		c0.601,4.617,1.298,9.227,0.903,13.907c-1.775,3.009-2.921,6.552-6.679,7.88c-2.005,3.892-5.583,3.768-9.056,3.257
		c-14.846-2.18-27.052-18.157-25.507-33.159c0.194-1.885,0.701-3.558,2.118-4.874c0.771-1.56,1.543-3.119,2.316-4.676
		C303.112,138.562,310.931,141.233,318.707,145.245z"/>
	<path fill-rule="evenodd" clip-rule="evenodd" d="M292.705,149.172c-2.621,17.408,6.446,32.554,21.535,36.238
		c3.921,0.957,7.497,0.741,10.906-1.461c3.04,3.508-1.156,6.099-1.167,9.221c-2.67,3.341-5.339,6.683-8.009,10.023
		c-11.328,7.134-23.025,7.924-35.112,2.05c-3.023-2.679-6.047-5.357-9.07-8.035c-1.73-4.009-3.461-8.017-5.191-12.025
		c-0.086-5.712,0.365-11.384,1.24-17.025c2.681-3.992,5.361-7.983,8.042-11.975C281.157,153.053,286.038,148.969,292.705,149.172z"
		/>
	<path fill-rule="evenodd" clip-rule="evenodd" d="M191.057,184.021c0.149,0.229,0.355,0.307,0.619,0.235
		c-0.727,4.286-2.714,8.085-4.61,11.919c-3.326,4.45-7.862,7.507-12.302,10.674c-10.279,3.658-20.236,3.063-29.835-2.255
		c-2.677-2.487-5.355-4.975-8.033-7.463c-1.684-3.663-3.368-7.327-5.052-10.991c-0.069-0.324-0.139-0.648-0.208-0.972
		c-0.646-8.077,0.836-15.767,4.208-23.112c5.088-6.195,11.267-10.811,19.025-13.138c1.254-0.016,2.242,0.299,2.254,1.82
		c1.524,2.049,1.015,4.439,1.068,6.71c0.281,12.073,8.726,22.964,20.199,26.701C182.79,185.583,186.842,183.348,191.057,184.021z"/>
	<path fill-rule="evenodd" clip-rule="evenodd" fill="#FDFDFD" d="M191.057,184.021c-7.138,3.908-13.924,2.412-20.188-1.833
		c-11.109-7.529-15.65-18.123-13.747-31.443c2.843-8.074,9.503-11.354,17.981-9.062c5.461,1.477,9.53,5.064,13.736,8.495
		c3.658,5.569,6.934,11.312,8.175,17.979C197.159,174.245,195.825,179.777,191.057,184.021z"/>
</g>
</svg>
