<?xml version="1.0" encoding="utf-8"?>
<!-- Generator: Adobe Illustrator 16.0.3, SVG Export Plug-In . SVG Version: 6.00 Build 0)  -->
<!DOCTYPE svg PUBLIC "-//W3C//DTD SVG 1.1//EN" "http://www.w3.org/Graphics/SVG/1.1/DTD/svg11.dtd">
<svg version="1.1" id="Layer_1" xmlns="http://www.w3.org/2000/svg" xmlns:xlink="http://www.w3.org/1999/xlink" x="0px" y="0px"
	 width="960px" height="560px" viewBox="0 0 960 560" enable-background="new 0 0 960 560" xml:space="preserve">
<path fill-rule="evenodd" clip-rule="evenodd" fill="#B02323" d="M262.106,407.113c1.968-36.274,3.938-72.489,7.591-108.613
	c3.737-36.953,8.851-73.673,17.239-109.882c5.147-22.22,12.042-43.848,20.781-64.976c12.089-29.231,33.004-48.84,61.933-60.846
	c38.147-15.833,77.921-20.957,118.793-18.446c29.984,1.842,58.861,8.651,85.867,22.257c40.278,20.293,66.151,52.181,78.695,95.619
	c14.425,49.95,25.424,100.572,33.049,151.97c6.554,44.17,11.583,88.467,11.248,133.209c-0.079,10.647-0.483,21.322-3.457,31.66
	c-3.323,11.563-9.909,14.516-20.797,9.284c-10.178-4.892-18.273-12.702-26.938-19.696c-7.384-5.961-14.643-12.108-23.144-16.469
	c-12.223-6.27-18.595-4.596-26.19,6.69c-6.063,9.009-10.212,19.024-15.058,28.675c-3.361,6.694-6.838,13.334-11.923,18.949
	c-7.918,8.74-18.132,10.447-28.424,4.683c-9.372-5.248-16.306-13.151-22.602-21.572c-6.274-8.392-12.02-17.179-18.119-25.705
	c-4.274-5.977-9.033-11.565-15.024-15.923c-9.636-7.009-17.169-6.53-25.932,1.6c-6.542,6.068-11.37,13.467-15.94,21.031
	c-6.106,10.105-11.704,20.545-18.263,30.344c-12.013,17.946-25.236,18.204-38.65,1.14c-7.542-9.595-12.962-20.517-18.925-31.094
	c-3.432-6.089-6.81-12.217-11.072-17.782c-5.357-6.992-6.555-7.141-12.282-0.682c-8.286,9.342-16.315,18.912-24.558,28.295
	c-5.83,6.635-11.927,13.029-19.15,18.199c-16.175,11.58-29.405,7.168-34.962-11.866c-4.352-14.907-3.814-30.295-3.79-45.607
	C262.121,430.076,262.106,418.595,262.106,407.113z"/>
<path fill-rule="evenodd" clip-rule="evenodd" fill="#FE0000" d="M463.749,56.892c40.575-0.233,75.155,6.238,107.205,22.837
	c32.151,16.651,55.015,41.798,66.298,76.778c12.349,38.286,21.392,77.361,28.795,116.871c4.123,21.997,7.663,44.083,10.566,66.249
	c2.26,17.244,4.144,34.553,5.471,51.926c1.404,18.391,2.86,36.777,2.523,55.201c-0.163,8.883-0.319,17.907-2.573,26.69
	c-0.866,3.374-1.935,4.165-5.082,2.255c-9.145-5.551-16.982-12.758-25.257-19.42c-8.418-6.777-16.879-13.53-27.072-17.564
	c-16.408-6.493-28.002-2.914-37.951,11.652c-6.415,9.393-10.785,19.877-15.962,29.933c-3.189,6.196-5.963,12.651-11.155,17.613
	c-4.457,4.259-7.609,4.83-12.787,1.263c-8.174-5.635-14.451-13.174-20.372-21.051c-7.984-10.619-14.21-22.533-23.508-32.18
	c-10.021-10.396-21.042-18.805-36.731-14.908c-8.31,2.063-14.726,7.32-20.26,13.82c-11.199,13.16-18.619,28.694-27.594,43.252
	c-2.093,3.395-4.083,6.867-6.853,9.789c-4.345,4.582-6.305,4.764-10.755,0.214c-5.505-5.63-9.307-12.513-13.313-19.223
	c-6.813-11.409-12.35-23.596-20.59-34.13c-1.937-2.477-4.128-4.845-6.56-6.824c-6.748-5.493-14.832-4.708-21.881,2.168
	c-8.819,8.604-16.156,18.533-24.354,27.695c-6.879,7.688-13.636,15.561-22.16,21.495c-7.023,4.89-10.446,3.47-13.139-4.679
	c-2.741-8.297-3.582-16.949-3.596-25.527c-0.032-21.293,0.306-42.596,1.009-63.877c0.603-18.244,1.502-36.498,3.01-54.686
	c2.479-29.886,5.202-59.747,9.636-89.446c5.054-33.854,11.385-67.382,22.308-99.885c4.825-14.358,10.651-28.307,18.802-41.195
	c8.043-12.719,19.06-22.037,32.193-29.091c23.012-12.36,47.759-18.774,73.522-22.046C446.501,57.476,457.399,56.749,463.749,56.892z
	"/>
<path fill-rule="evenodd" clip-rule="evenodd" fill="#FEFEFE" d="M629.924,225.418c-0.475,20.313-9.961,43.025-31.193,59.809
	c-31.591,24.973-75.308,19.187-100.851-12.867c-26.339-33.049-23.826-83.283,5.671-113.411
	c33.724-34.443,89.232-27.008,114.303,15.314C626.017,188.044,630.015,202.951,629.924,225.418z"/>
<path fill-rule="evenodd" clip-rule="evenodd" fill="#FEFEFE" d="M323.138,255.177c-7.429-18.199-9.477-36.871-5.254-56.192
	c7.227-33.075,32.979-57.842,65.951-61.261c29.841-3.094,52.687,10.039,68.776,34.655c19.407,29.694,17.719,69.405-3.365,98.026
	c-0.587,0.797-1.065,1.675-1.595,2.516c-1.948,1.613-3.802,0.458-5.6-0.277c-27.97-11.44-57.067-16.812-87.268-16.195
	c-8.812,0.18-17.646-0.605-26.437,0.67C326.38,257.403,324.282,257.402,323.138,255.177z"/>
<path fill-rule="evenodd" clip-rule="evenodd" fill="#B02323" d="M498.279,339.646c-25.899-11.271-50.824-22.056-76.719-30.579
	c-14.48-4.766-27.001-2.42-39.082,5.847c-3.151,2.157-6.31,4.309-9.438,6.499c-1.054,0.737-2.063,2.218-3.405,1.039
	c-1.355-1.191-0.525-2.753,0.105-4.135c2.246-4.918,6.764-7.637,10.612-11.012c13.262-11.631,28.195-12.5,44.322-7.323
	c26.251,8.429,49.554,22.423,72.226,37.665C497.265,337.891,497.444,338.413,498.279,339.646z"/>
<path fill-rule="evenodd" clip-rule="evenodd" fill="#B12323" d="M323.138,255.177c1.822,1.395,3.857,0.636,5.788,0.49
	c32.634-2.471,64.849-0.525,96.269,9.337c7.569,2.376,14.978,5.262,22.459,7.915c2.441,3.294,7.138,3.305,10.177,6.961
	c-7.235-0.825-13.282-3.61-19.576-5.384c-20.3-5.722-40.901-9.564-61.897-11.684c-13.242-1.337-26.465-1.993-39.746-1.765
	c-5.799,0.099-11.529,1.358-17.378,1.004c-3.53-0.213-6.781-0.886-9.767-3.184C313.83,255.978,319.264,258.542,323.138,255.177z"/>
<path fill-rule="evenodd" clip-rule="evenodd" fill="#22C9E2" d="M553.045,237.021c-3.645,5.056-8.328,8.76-14.201,10.921
	c-9.768,0.655-19.536,1.228-29.292-0.17c-1.596-0.882-1.766-2.416-1.257-3.823c1.26-3.49,1.694-7.365,4.471-10.193
	c0.483-0.116,1.017-0.326,1.468-0.12c6.947,3.166,14.168,3.213,21.517,1.934c3.938,0.009,7.87-0.296,11.803-0.123
	C549.497,235.532,551.536,235.378,553.045,237.021z"/>
<path fill-rule="evenodd" clip-rule="evenodd" fill="#167EEB" d="M498.996,181.273c9.958-8.877,31.2-12.437,45.352-1.247
	c2.548,2.016,5.243,3.828,7.426,6.267c-0.233,1.967-1.722,1.491-2.951,1.523c-1.878-0.449-3.092-1.875-4.48-3.052
	c-8.517-7.22-14.451-7.634-23.685-1.664c-0.57,0.369-1.202,0.559-1.873,0.667c-4.94-0.324-9.886-0.261-14.824-0.395
	C502.131,183.323,499.865,183.803,498.996,181.273z"/>
<path fill-rule="evenodd" clip-rule="evenodd" fill="#62E7FE" d="M492.914,237.963c-3.698-4.447-6.606-9.31-7.893-15.025
	c5.177-3.027,10.665-5.086,16.719-5.406c2.463,2.987,4.143,6.339,4.729,10.202c-2.114,3.814-5.514,6.452-8.691,9.257
	C496.475,238.141,494.859,239.294,492.914,237.963z"/>
<path fill-rule="evenodd" clip-rule="evenodd" fill="#1688E9" d="M498.996,181.273c4.362,1.529,8.863,0.461,13.296,0.652
	c2.503,0.108,4.955,0.198,7.331,1.042c1.139,2.741-0.47,4.927-1.458,7.244c-2.564,1.475-4.991,3.287-8.149,3.315
	c-5.106-0.132-10.215,0.099-15.311-0.141c-1.791-0.084-4.1,0.418-4.732-2.279C492.12,187.04,495.119,183.754,498.996,181.273z"/>
<path fill-rule="evenodd" clip-rule="evenodd" fill="#A8F4FB" d="M492.914,237.963c4.268-0.452,6.187-4.158,9.056-6.544
	c1.396-1.161,2.752-2.37,4.126-3.558c3.593,0.673,5.487,3.206,6.88,6.287c-1.395,4.268-2.789,8.535-4.185,12.803
	c0.073,0.75-0.252,1.343-0.739,1.872C502.198,246.328,496.991,242.933,492.914,237.963z"/>
<path fill-rule="evenodd" clip-rule="evenodd" fill="#1DAAE5" d="M501.771,218.011c-5.685,1.296-10.916,4.133-16.75,4.927
	c-1.172-3.969-1.902-7.982-1.238-12.139c4.12-0.678,8.266-0.14,12.398-0.265c4.034-0.122,6.286,1.623,6.212,5.853
	C502.409,217.014,502.2,217.555,501.771,218.011z"/>
<path fill-rule="evenodd" clip-rule="evenodd" fill="#1A9AE7" d="M484.781,203.635c0.042-2.434,0.665-4.685,2.111-6.675
	c5.893,1.284,12.065-0.524,17.886,1.614c1.503,4.083-0.364,6.911-3.463,9.287c-4.095,1.09-8.262,0.757-12.391,0.441
	C486.27,208.1,483.932,207.164,484.781,203.635z"/>
<path fill-rule="evenodd" clip-rule="evenodd" fill="#1891E8" d="M505.14,199.055c-4.564-0.025-9.128-0.073-13.692-0.066
	c-1.846,0.002-3.642,0.01-4.555-2.028c0.526-2.215,1.48-4.204,3.08-5.854c4.122,1.842,8.473,0.391,12.685,0.885
	c2.735,0.321,5.633-0.901,8.216,0.858C510.202,196.064,508.188,198.038,505.14,199.055z"/>
<path fill-rule="evenodd" clip-rule="evenodd" fill="#1FB6E4" d="M560.827,220.974c-0.24,3.737-1.646,7.035-3.795,10.052
	c-3.941,2.13-7.838,1.876-11.702-0.212c-1.255-4.622,2.669-6.81,4.665-9.915C553.616,219.193,557.232,218.748,560.827,220.974z"/>
<path fill-rule="evenodd" clip-rule="evenodd" fill="#29D3E2" d="M508.052,248.822c0.247-0.624,0.494-1.248,0.74-1.872
	c8.094,0.007,16.188,0.022,24.283,0.017c1.984-0.001,3.979-0.136,5.769,0.974C528.721,253.14,518.437,252.736,508.052,248.822z"/>
<path fill-rule="evenodd" clip-rule="evenodd" fill="#21C0E2" d="M544.835,229.954c3.965,1.494,8.117,0.879,12.197,1.072
	c-0.713,2.408-2.086,4.377-3.987,5.995c-6.161-0.07-12.321-0.139-18.481-0.209C537.211,233.363,540.725,231.213,544.835,229.954z"/>
<path fill-rule="evenodd" clip-rule="evenodd" fill="#1BA2E6" d="M484.781,203.635c0.232,2.857,2.087,3.409,4.544,3.362
	c4.161-0.079,8.325-0.021,12.487-0.02c2.249,3.372,2.402,6.709-0.166,10.001c-0.512-4.108-2.699-5.366-6.875-5.157
	c-3.608,0.181-7.54,1.403-10.988-1.022C483.867,208.376,483.405,205.878,484.781,203.635z"/>
<path fill-rule="evenodd" clip-rule="evenodd" fill="#1DABE5" d="M560.827,220.974c-3.604,0.366-7.359-0.888-10.822,1.006
	c-1.564-2.049-0.234-4.115-0.048-6.182c0.849-2.165,2.004-4.057,4.374-4.855c2.611-0.44,5.218-0.825,7.513,1.033
	C562.063,215.038,562.078,218.078,560.827,220.974z"/>
<path fill-rule="evenodd" clip-rule="evenodd" fill="#1CA1E7" d="M561.844,211.976c-2.661-0.003-5.323-0.006-7.986-0.008
	c-1.632-3.024-0.549-5.726,0.992-8.378c2.098-1.3,4.085-0.854,6.021,0.387C562.185,206.522,561.928,209.26,561.844,211.976z"/>
<path fill-rule="evenodd" clip-rule="evenodd" fill="#1D98E8" d="M560.87,203.977c-1.939,0-3.878,0-5.817-0.001
	c-2.267-2.6-2.763-5.677-2.421-8.982c1.179-1.413,2.867-1.142,4.418-1.331C559.715,196.585,559.684,200.506,560.87,203.977z"/>
<path fill-rule="evenodd" clip-rule="evenodd" fill="#1E8CEA" d="M557.05,193.663c-0.903,1.73-2.546,1.21-3.984,1.307
	c-2.991-1.75-4.577-4.323-4.573-7.824c1.11-0.222,2.354,0.068,3.281-0.853C554.602,187.984,555.489,191.063,557.05,193.663z"/>
<path fill-rule="evenodd" clip-rule="evenodd" fill="#62E7FE" d="M379.993,231.896c-3.746-4.416-6.747-9.224-7.929-14.995
	c5.019-3.493,10.506-5.54,16.699-5.427c2.412,3.017,4.128,6.361,4.728,10.223c-2.532,4.562-7.259,6.819-10.866,10.256
	C381.968,232.581,380.854,232.766,379.993,231.896z"/>
<path fill-rule="evenodd" clip-rule="evenodd" fill="#22C7E2" d="M438.896,231.971c-1.703,2.808-4.264,4.592-7.145,5.995
	c-8.729,1.287-17.506,0.238-26.256,0.525c-2.634,0.086-5.323,0.307-7.875-0.705c-2.992-4.055-0.325-6.998,1.976-10.013
	c0.467-0.141,0.983-0.37,1.438-0.184c7.245,2.967,14.705,2.877,22.258,1.604c3.121,0.62,6.28,0.163,9.413,0.375
	C435.013,229.725,437.408,229.688,438.896,231.971z"/>
<path fill-rule="evenodd" clip-rule="evenodd" fill="#23CEE2" d="M396.941,236.974c9.154,0,18.311,0.052,27.465-0.033
	c2.529-0.023,4.955,0.271,7.346,1.025c-8.726,7.829-25.521,9.687-36.981,4.09C393.761,239.622,394.724,238.03,396.941,236.974z"/>
<path fill-rule="evenodd" clip-rule="evenodd" fill="#167DEB" d="M388.896,172.942c14.227-9.505,33.594-8.043,45.983,3.531
	c2.145,2.005,4.088,4.226,6.125,6.347c0.146,2.056-1.329,1.954-2.68,2.021c-1.409-0.224-2.358-1.167-3.196-2.195
	c-7.385-9.068-16.168-12.877-27.47-7.374c-4.731,0.426-9.467,0.323-14.19,0.13C391.688,175.33,389.355,175.716,388.896,172.942z"/>
<path fill-rule="evenodd" clip-rule="evenodd" fill="#178CE9" d="M374.951,188.041c1.198-3.194,3.093-5.908,5.64-8.172
	c8.227-2.406,16.505-1.711,24.795-0.426c1.69,1.134,1.006,2.392,0.188,3.657c-4.42,2.152-7.488,6.64-12.725,7.416
	c-4.425-0.074-8.851,0.074-13.263-0.148C377.818,190.277,375.493,190.787,374.951,188.041z"/>
<path fill-rule="evenodd" clip-rule="evenodd" fill="#A8F4FB" d="M396.941,236.974c-0.724,1.694-1.447,3.388-2.171,5.082
	c-6.074-1.716-10.4-5.975-14.777-10.159c5.264-2.213,8.385-7.208,13.121-10.105c3.303,0.93,5.77,2.779,6.82,6.19
	C398.937,230.979,397.939,233.976,396.941,236.974z"/>
<path fill-rule="evenodd" clip-rule="evenodd" fill="#1998E7" d="M374.951,188.041c4.375,2.03,9.005,0.405,13.482,0.946
	c1.869,0.226,3.986-0.746,5.524,1.119c-0.529,4.484-2.276,8.284-6.128,10.915c-5.639,0.283-11.353,1.766-16.794-1.047
	C371.119,195.595,372.71,191.711,374.951,188.041z"/>
<path fill-rule="evenodd" clip-rule="evenodd" fill="#1CA4E5" d="M371.036,199.974c5.936,0.002,11.872,0.004,17.809,0.006
	c1.274,3.796,2.557,7.593-0.306,11.279c-3.553-1.141-7.221-0.668-10.842-0.753c-7.464-0.175-7.97-0.772-6.813-8.609
	C370.935,201.256,370.985,200.615,371.036,199.974z"/>
<path fill-rule="evenodd" clip-rule="evenodd" fill="#1684EA" d="M405.705,179.975c-8.371-0.035-16.742-0.071-25.114-0.106
	c2.261-2.918,4.88-5.404,8.305-6.926c4.481,2.195,9.247,0.581,13.863,1.011c2.104,0.196,4.237,0.079,6.357,0.104
	C409.212,176.741,408.372,178.885,405.705,179.975z"/>
<path fill-rule="evenodd" clip-rule="evenodd" fill="#1EA8E6" d="M447.952,198.904c1.573,5.035,1.376,10.057-0.11,15.069
	c-3.128,2.148-6.394,1.784-9.71,0.535c-1.3-1.098-1.373-2.538-1.13-4.065c3.053-4.528,3.448-9.831,4.301-14.995
	c1.334-1.458,2.024-0.208,2.436,0.768C444.557,198.154,446.14,198.652,447.952,198.904z"/>
<path fill-rule="evenodd" clip-rule="evenodd" fill="#1FB5E4" d="M437.685,213.882c3.387,0.03,6.772,0.06,10.157,0.091
	c-0.113,3.299-1.295,6.243-2.99,9.017c-3.455,3.973-7.805,2.227-11.936,1.875c-2.165-1.071-1.311-2.694-0.544-4.052
	c1.259-2.229,2.299-4.595,3.904-6.622C436.68,213.79,437.15,213.688,437.685,213.882z"/>
<path fill-rule="evenodd" clip-rule="evenodd" fill="#21C1E3" d="M431.744,223.915c4.371-0.292,8.853,1.006,13.107-0.925
	c-1.179,3.528-3.251,6.464-5.955,8.981c-3.527-1.29-7.204-0.909-10.845-1.025c-1.749-0.056-3.714,0.68-5.154-1.024
	C424.642,226.144,428.227,225.079,431.744,223.915z"/>
<path fill-rule="evenodd" clip-rule="evenodd" fill="#1DADE5" d="M370.885,201.896c0.271,7.418-1.317,6.863,7.219,7.186
	c3.514,0.132,7.624-1.948,10.528,1.896c0.314,0.183,0.435,0.387,0.361,0.613c-0.076,0.236-0.161,0.354-0.255,0.354
	c-5.559,1.652-11.116,3.304-16.674,4.957C370.537,211.989,369.57,207.032,370.885,201.896z"/>
<path fill-rule="evenodd" clip-rule="evenodd" fill="#1F98E8" d="M447.952,198.904c-5.331,3.704-4.469-1.711-5.779-3.926
	c-2.61-3.198-4.166-6.813-4.339-10.974c1.179-0.068,2.451,0.114,3.17-1.184C445,187.456,447.367,192.795,447.952,198.904z"/>
<path fill-rule="evenodd" clip-rule="evenodd" d="M550.915,216.08c-0.303,1.966-0.606,3.934-0.91,5.9
	c-1.724,2.659-3.447,5.316-5.17,7.974c-3.031,2.875-6.544,5.027-10.271,6.857c-7.543,1.92-14.747,1.095-21.589-2.664
	c-2.292-2.095-4.586-4.19-6.879-6.286c-1.676-3.181-3.393-6.343-4.324-9.85c-0.042-0.344-0.083-0.688-0.125-1.033
	c0.056-3.333,0.11-6.667,0.166-10.001c1.109-2.641,2.219-5.282,3.327-7.923c1.911-2.068,3.822-4.137,5.733-6.205
	c2.271-0.991,4.092-2.945,6.733-3.144c1.917,1.156,1.466,3.176,1.693,4.889c1.202,9.049,6.596,15.361,13.694,20.292
	c4.229,2.937,9.127,3.682,14.177,1.724C548.35,216.154,549.534,215.297,550.915,216.08z"/>
<path fill-rule="evenodd" clip-rule="evenodd" fill="#FEFEFE" d="M550.915,216.08c-5.98,4.22-12.175,3.833-18.104,0.232
	c-9.894-6.009-15.212-14.833-15.204-26.604c0.671-2.249,1.344-4.495,2.016-6.741c6.953-7.771,16.1-7.526,25.312,0.705
	c1.235,1.104,2.374,2.313,3.558,3.473c1.524,2.608,3.049,5.216,4.573,7.824c0.663,3.002,1.325,6.004,1.987,9.006
	c-0.398,2.664-0.797,5.328-1.195,7.992C552.878,213.339,551.896,214.709,550.915,216.08z"/>
<path fill-rule="evenodd" clip-rule="evenodd" d="M388.738,211.945c-0.036-0.322-0.071-0.645-0.106-0.967
	c0.07-3.667,0.142-7.333,0.213-10.999c1.704-3.291,3.408-6.582,5.113-9.874c3.341-2.84,6.482-5.986,10.942-7.101
	c2.022,2.636,1.663,5.963,2.56,8.93c2.717,9,8.389,15.117,17.045,18.755c3.94,1.656,7.866-0.148,11.741,0.649
	c1.092,0.667,1.402,1.555,0.768,2.709c-0.659,3.875-3.413,6.63-5.27,9.865c-2.948,2.002-5.897,4.004-8.847,6.006
	c-7.921,2.514-15.578,1.899-22.963-1.939c-2.272-2.063-4.546-4.125-6.819-6.189C391.456,218.598,389.608,215.489,388.738,211.945z"
	/>
<path fill-rule="evenodd" clip-rule="evenodd" fill="#FEFEFE" d="M435.653,211.741c-11.326,4.955-25.858-5.966-29.626-19.871
	c-0.771-2.847-0.771-5.904-1.127-8.865c0.269-1.01,0.536-2.02,0.805-3.03c1.137-1.972,2.274-3.945,3.411-5.918
	c9.607-6.556,20.319-1.217,27.764,8.931c0.272,0.372,0.634,0.679,0.954,1.017c1.943,3.461,3.547,7.057,4.339,10.974
	c0.357,5.583,0.071,10.986-4.285,15.245C437.205,210.82,436.77,211.781,435.653,211.741z"/>
<path fill-rule="evenodd" clip-rule="evenodd" fill="#213C46" d="M435.653,211.741c0.745-0.506,1.489-1.012,2.234-1.518
	c-0.067,1.22-0.135,2.439-0.202,3.659c-0.227,0.049-0.451,0.105-0.674,0.167C436.8,213.139,436.708,212.157,435.653,211.741z"/>
</svg>
