<?xml version="1.0" encoding="utf-8"?>
<!-- Generator: Adobe Illustrator 16.0.3, SVG Export Plug-In . SVG Version: 6.00 Build 0)  -->
<!DOCTYPE svg PUBLIC "-//W3C//DTD SVG 1.1//EN" "http://www.w3.org/Graphics/SVG/1.1/DTD/svg11.dtd">
<svg version="1.1" id="Layer_1" xmlns="http://www.w3.org/2000/svg" xmlns:xlink="http://www.w3.org/1999/xlink" x="0px" y="0px"
	 width="466.706px" height="486.882px" viewBox="0 0 466.706 486.882" enable-background="new 0 0 466.706 486.882"
	 xml:space="preserve">
<g>
	<path fill-rule="evenodd" clip-rule="evenodd" fill="#00AFAA" d="M466.671,424.824c0.179,15.344-0.26,30.652-3.196,45.764
		c-1.315,6.771-2.835,13.828-10.827,15.862c-7.686,1.957-12.494-3.068-16.851-8.267c-8.496-10.141-14.381-21.975-21.176-33.214
		c-4.912-8.125-9.894-16.196-15.931-23.558c-0.528-0.643-1.034-1.305-1.583-1.93c-9.851-11.238-14.683-11.432-25.25-0.855
		c-12.408,12.418-22.264,26.946-33.309,40.492c-5.372,6.588-10.868,13.068-17.406,18.552c-11.914,9.994-20.707,9.783-32.18-0.682
		c-6.417-5.854-12.013-12.467-17.582-19.101c-11.024-13.133-21.387-26.836-33.634-38.915c-10.677-10.53-11.591-10.529-21.045,1.118
		c-9.457,11.651-17.289,24.468-26.023,36.64c-5.348,7.453-10.863,14.75-17.503,21.13c-10.499,10.087-18.968,10.101-29.365-0.206
		c-7.258-7.194-12.718-15.814-18.529-24.139c-6.005-8.603-11.85-17.32-18.714-25.285c-0.978-1.134-1.925-2.3-2.964-3.376
		c-8.946-9.263-12.169-9.321-21.208-0.203c-12.573,12.681-22.963,27.247-34.872,40.504c-4.792,5.335-9.769,10.483-15.413,14.923
		c-2.081,1.636-4.279,3.228-6.649,4.372c-10.073,4.865-19.68,0.863-22.846-9.735c-3.798-12.716-2.64-25.757-1.581-38.694
		c3.286-40.153,7.852-80.182,13.56-120.051c9.524-66.528,19.551-132.993,39.855-197.355c4.651-14.745,9.63-29.388,16.703-43.197
		c12.894-25.178,33.519-42.272,58.992-52.99c65.543-27.58,131.942-30.706,198.63-3.885c53.074,21.347,85.37,60.691,98.729,115.952
		c14.053,58.123,24.569,116.872,31.252,176.314C463.016,348.711,465.914,386.69,466.671,424.824z"/>
	<path fill-rule="evenodd" clip-rule="evenodd" fill="#00FDDC" d="M454.503,423.666c-0.051,15.814,0.736,29.477-1.992,42.967
		c-0.099,0.488,0.024,1.08-0.21,1.472c-1.134,1.896,0.133,5.152-2.867,5.876c-3.262,0.786-4.102-2.443-5.465-4.24
		c-10.883-14.353-18.514-30.751-28.505-45.674c-4.446-6.642-9.479-12.748-15.493-18.086c-10.448-9.275-22.228-9.1-32.529,0.679
		c-11.992,11.383-21.848,24.581-31.956,37.561c-6.966,8.943-14.44,17.416-22.734,25.141c-5.484,5.108-9.269,4.931-14.696-0.112
		c-12.479-11.595-22.598-25.254-33.595-38.146c-7.649-8.968-15.13-18.094-24.229-25.708c-11.014-9.218-21.623-7.785-30.56,4.493
		c-11.049,15.182-21.944,30.476-32.842,45.766c-3.982,5.587-8.713,10.475-13.569,15.272c-3.215,3.176-6.299,3.17-9.517-0.003
		c-9.551-9.417-16.417-20.881-24.137-31.686c-6.387-8.939-12.768-17.83-20.841-25.403c-10.758-10.093-22.055-10.172-32.544,0.133
		c-10.103,9.925-18.594,21.249-27.677,32.061c-8.134,9.684-16.284,19.393-26.503,26.994c-5.037,3.747-7.085,2.804-8.615-3.308
		c-2.288-9.138-2.074-18.317-1.307-27.682c0.922-11.245,2.01-22.458,3.325-33.66c1.7-14.481,3.373-28.969,4.819-43.479
		c1.546-15.511,3.904-30.904,6.17-46.315c3.447-23.44,6.458-46.951,10.333-70.319c5.073-30.59,11.196-60.994,18.779-91.072
		c5.893-23.372,12.848-46.403,22.249-68.675c9.642-22.841,26.205-38.852,47.69-50.417c23.273-12.526,48.147-19.643,74.254-23.16
		c14.029-1.891,28.052-3.441,42.186-2.747c42.338,2.079,82.559,11.147,117.753,36.436c26.262,18.87,43.595,44.229,52.586,74.942
		c11.709,39.998,19.381,80.95,26.011,122.056c3.851,23.875,7.178,47.841,9.4,71.958c2.359,25.604,4.953,51.165,6.149,76.875
		C454.313,404.936,453.943,415.402,454.503,423.666z"/>
	<path fill-rule="evenodd" clip-rule="evenodd" fill="#FDFDFD" d="M279.376,249.701c-41.937-31.329-48.882-101.444-11.256-140.809
		c32.121-33.604,80.632-32.643,110.646,3.186c31.25,37.303,28.171,97.35-6.715,131.106c-1.8,1.741-3.479,3.66-6.361,3.274
		c-7.849,0.345-15.489-1.547-23.251-2.165c-18.716-1.492-37.271-1.407-55.344,4.689C284.619,249.819,282.094,251.05,279.376,249.701
		z"/>
	<path fill-rule="evenodd" clip-rule="evenodd" fill="#FDFDFD" d="M102.633,240.82c-20.199-21.885-27.675-47.934-25.249-77.214
		c2.26-27.278,14.259-49.377,36.273-65.514c30.695-22.5,70.172-17.362,96.565,11.981c35.058,38.979,29.991,105.546-10.512,137.792
		c-1.845,1.469-3.564,3.594-6.436,2.23c-7.48-3.687-15.555-5.541-23.574-7.505c-20.137-4.931-40.429-4.236-60.759-1.397
		C106.823,241.49,104.67,242.048,102.633,240.82z"/>
	<path fill-rule="evenodd" clip-rule="evenodd" fill="#00AFAA" d="M159.55,258.695c8.619,8.13,16.479,16.315,26.767,21.326
		c19.24,9.371,39.405,11.188,60.173,6.631c22.15-4.861,40.796-16.573,58.33-30.362c1.279-1.006,2.265-2.497,4.494-2.409
		c-0.711,8.459-2.591,16.66-4.933,24.699c-5.707,19.593-13.247,38.423-26.014,54.629c-10.725,13.613-24.367,23.041-42.135,23.607
		c-14.334,0.457-27.554-4.555-38.841-13.438c-21.711-17.087-31.619-40.868-36.921-67.086c-0.361-1.786-0.816-3.586-0.88-5.393
		C159.456,267.076,159.55,263.243,159.55,258.695z"/>
	<path fill-rule="evenodd" clip-rule="evenodd" fill="#02B1AC" d="M279.376,249.701c28.417-10.462,57.267-9.426,86.312-3.242
		c0.896,0.351,1.79,0.701,2.685,1.052c-32.044-2.965-63.831-2.311-94.868,7.61c-0.629-0.661-0.564-1.305,0.052-1.933
		C275.497,252.026,277.436,250.864,279.376,249.701z"/>
	<path fill-rule="evenodd" clip-rule="evenodd" fill="#03B1AC" d="M102.633,240.82c29.277-4.826,58.235-5.286,86.252,6.48
		c1.559,0.654,3.739,0.61,4.39,2.796c-26.117-7.818-52.931-8.765-79.88-7.733c-4.607,0.177-9.242,0.732-13.886,0.792
		c-1.048,0.341-1.273-0.149-1.078-1.066C99.544,240.711,101.273,241.377,102.633,240.82z"/>
	<path fill-rule="evenodd" clip-rule="evenodd" fill="#00DAC6" d="M98.432,242.088c0.359,0.355,0.718,0.711,1.078,1.066
		c-1.804,1.706-3.913,0.841-6.279,0.823C94.671,241.837,96.639,242.204,98.432,242.088z"/>
	<path fill-rule="evenodd" clip-rule="evenodd" fill="#00D5C2" d="M273.556,253.188c-0.017,0.645-0.034,1.288-0.052,1.933
		c-0.8,1.011-1.762,1.703-3.528,1.63C270.838,254.996,271.981,253.896,273.556,253.188z"/>
	<path fill-rule="evenodd" clip-rule="evenodd" fill="#14ABB9" d="M268.557,128.348c17.868-16.198,51.827-13.659,65.878,4.926
		c-0.235,3.403-2.729,2.888-4.945,2.862c-0.647-0.129-1.345-0.241-1.865-0.632c-7.702-5.783-16.06-7.376-25.221-4.015
		c-9.382,0.397-18.761,0.223-28.136,0.107C271.931,131.568,269.093,131.816,268.557,128.348z"/>
	<path fill-rule="evenodd" clip-rule="evenodd" fill="#22DBD3" d="M337.428,198.106c-3.315,4.775-7.186,8.917-12.742,11.126
		c-12.271,0.98-24.559,0.351-36.839,0.374c-2.371,0.004-4.729-0.421-5.434-3.33c-0.322-4.38,1.023-8.191,3.956-11.453
		c1.312-0.617,2.604-0.324,3.826,0.223c8.282,3.703,16.684,3.423,25.172,0.844c1.427-0.434,2.877-0.766,4.395-0.576
		c3.894,0.633,7.821,0.153,11.723,0.381C333.713,195.825,336.178,195.507,337.428,198.106z"/>
	<path fill-rule="evenodd" clip-rule="evenodd" fill="#16B1BD" d="M268.557,128.348c1.22,2.215,3.348,1.771,5.296,1.778
		c9.948,0.043,19.896,0.063,29.844,0.093c-0.84,3.546-2.091,6.862-5.109,9.202c-4.038-1.694-7.321,0.205-10.589,2.218
		c-2.351,1.447-4.488,3.438-7.59,3.053c-5.584-0.142-11.162,0.048-16.734-0.15c-2.651-0.094-5.343-0.347-6.383-3.492
		C259.567,135.502,263.651,131.56,268.557,128.348z"/>
	<path fill-rule="evenodd" clip-rule="evenodd" fill="#17EBE1" d="M262.413,200.287c-5.833-5.125-9.306-11.583-10.807-19.152
		c5.852-4.162,12.642-5.69,19.521-6.977c0.517,0.082,1,0.264,1.45,0.53c2.523,3.738,5.117,7.451,5.52,12.16
		C273.752,192.354,269.505,197.982,262.413,200.287z"/>
	<path fill-rule="evenodd" clip-rule="evenodd" fill="#00FDE4" d="M262.413,200.287c5.815-3.59,9.886-9.196,15.311-13.238
		c3.896,1.648,7.637,3.469,8.793,8.095c-0.699,3.422-3.083,6.335-3.016,9.988c-1.04,1.402-0.139,3.235-1.038,4.671
		c-0.921,1.471-1.512,3.48-3.972,2.401C271.772,210.065,266.572,205.878,262.413,200.287z"/>
	<path fill-rule="evenodd" clip-rule="evenodd" fill="#19BAC1" d="M257.292,141.049c2.132,1.765,4.592,2.035,7.306,2.169
		c5.635,0.278,11.384-1.277,16.907,0.921c-1.594,5.13-4.883,9.322-7.683,13.778c-0.442,0.704-1.444,0.611-2.274,0.404
		c-4.561-1.246-9.226-0.478-13.832-0.759c-2.411-0.146-5.103,0.281-6.491-2.538C251.952,149.803,253.537,144.956,257.292,141.049z"
		/>
	<path fill-rule="evenodd" clip-rule="evenodd" fill="#24E0D5" d="M278.491,212.204c3.687-0.929,2.928-5.007,5.01-7.072
		c-0.236,3.492,2.264,2.997,4.397,2.998c10.165,0.008,20.33,0.013,30.495-0.004c2.171-0.003,4.347-0.126,6.293,1.106
		C309.858,219.095,294.423,219.514,278.491,212.204z"/>
	<path fill-rule="evenodd" clip-rule="evenodd" fill="#1BC1C5" d="M251.224,155.025c5.444,2.223,11.143,0.609,16.7,1.109
		c1.846,0.166,4.206-0.73,4.701,2.255c2.149,5.627,2.521,11.225-0.283,16.768c-0.278-0.01-0.555-0.031-0.831-0.064
		c-1.545-5.021-5.257-5.737-9.933-5.605c-3.962,0.112-8.198,1.232-11.909-1.358C249.188,163.642,249.024,159.193,251.224,155.025z"
		/>
	<path fill-rule="evenodd" clip-rule="evenodd" fill="#20D3CF" d="M337.428,198.106c-4.054-1.908-8.362-0.548-12.529-0.984
		c-1.854-0.194-3.973,0.76-5.453-1.179c3.687-5.369,8.086-10.052,13.361-13.912c4.284-0.169,8.669-1.5,12.706,1.105
		C344.542,189.057,341.648,193.939,337.428,198.106z"/>
	<path fill-rule="evenodd" clip-rule="evenodd" fill="#1CC8C9" d="M249.669,168.128c4.993,0.002,9.986,0,14.979,0.005
		c6.751,0.007,6.751,0.01,6.862,6.959c-6.895,1.16-13.166,4.371-19.905,6.042C249.459,177.023,249.201,172.629,249.669,168.128z"/>
	<path fill-rule="evenodd" clip-rule="evenodd" fill="#1FC9C9" d="M345.513,183.136c-4.586,0.004-9.171,0.008-13.757,0.012
		c-1.548-3.748,1.887-6.6,1.805-10.088c1.481-2.789,2.783-5.753,6.279-6.644c2.858,0.443,5.955-0.277,8.5,1.718
		C348.855,173.41,348.105,178.447,345.513,183.136z"/>
	<path fill-rule="evenodd" clip-rule="evenodd" fill="#1DB8C1" d="M329.213,135.261c1.895-0.259,4.122,0.358,5.222-1.987
		c6.788,5.748,10.879,13.004,12.185,21.814c-3.436,2.903-4.25,2.771-7.646-1.218c-2.016-5.247-4.466-10.249-8.116-14.609
		C329.926,138.15,329.012,136.901,329.213,135.261z"/>
	<path fill-rule="evenodd" clip-rule="evenodd" fill="#22C3C7" d="M339.734,153.128c1.612,3.053,3.874,3.824,6.886,1.96
		c2.265,4.126,2.029,8.581,1.721,13.046c-3.066-0.164-6.242,0.584-9.127-1.097C337.458,162.329,336.817,157.662,339.734,153.128z"/>
	<path fill-rule="evenodd" clip-rule="evenodd" fill="#22DBD3" d="M216.213,199.066c-2.539,4.232-6.085,7.307-10.623,9.242
		c-12.616,0.841-25.245,0.311-37.868,0.294c-2.395-0.003-4.714-0.515-5.34-3.445c-0.277-3.747,0.756-7.132,2.876-10.209
		c1.263-0.754,2.592-0.548,3.81-0.013c8.417,3.704,17.015,3.434,25.72,1.307c0.641-0.156,1.313-0.127,1.977-0.1
		c4.446,0.834,8.945,0.323,13.411,0.561C212.406,196.821,214.975,196.316,216.213,199.066z"/>
	<path fill-rule="evenodd" clip-rule="evenodd" fill="#17EBE1" d="M142.517,201.084c-6.226-5.28-9.62-12.211-11.627-19.949
		c6.637-4.264,13.602-7.266,21.768-5.677c2.206,3.573,4.49,7.118,5.275,11.357C153.343,192.161,148.346,197.073,142.517,201.084z"/>
	<path fill-rule="evenodd" clip-rule="evenodd" fill="#15ABB9" d="M153.344,124.78c15.009-10.895,41.916-8.602,53.171,2.331
		c-0.681,4.575-4.411,2.882-7.051,3.443c-3.856-0.337-7.673-0.981-11.513-1.482c-8.466-0.9-16.951-0.1-25.42-0.364
		c-1.995-0.062-4.021,0.139-5.966-0.375C154.792,127.865,152.904,127.33,153.344,124.78z"/>
	<path fill-rule="evenodd" clip-rule="evenodd" fill="#23DFD5" d="M163.482,204.093c-0.226,3.388,2.151,3.046,4.327,3.044
		c10.908-0.009,21.817-0.031,32.726,0.023c1.729,0.009,3.698-0.656,5.056,1.147c-14.979,10.685-30.819,11.305-47.333,4.047
		C160.061,209.64,159.691,205.551,163.482,204.093z"/>
	<path fill-rule="evenodd" clip-rule="evenodd" fill="#00FDE4" d="M163.482,204.093c-2.41,2.331-1.331,6.869-5.225,8.262
		c-6.474-2.042-11.641-5.911-15.741-11.271c4.283-5.343,9.302-9.903,14.83-13.92c4.591,0.587,6.739,3.82,8.314,7.674
		C164.935,197.923,164.208,201.008,163.482,204.093z"/>
	<path fill-rule="evenodd" clip-rule="evenodd" fill="#1CC6C8" d="M152.269,176.16c-3.953-1.559-7.355,0.871-10.947,1.649
		c-3.551,0.769-6.961,2.19-10.433,3.325c-1.655-6.245-3.701-12.464-1.376-18.998c6.097-1.105,12.229-0.547,18.337-0.24
		c4.206,0.211,3.726,3.989,4.563,6.702C152.612,171.12,154.162,173.676,152.269,176.16z"/>
	<path fill-rule="evenodd" clip-rule="evenodd" fill="#16B2BE" d="M136.557,141.246c1.292-3.816,3.982-6.564,6.951-9.1
		c9.542,0.82,19.105,0.315,28.658,0.468c2.294,0.037,4.631-0.208,6.81,0.82c1.629,1.198,1.101,2.478,0.142,3.773
		c-5.956,1.57-11.526,3.975-16.563,7.59c-1.087,0.78-2.451,1.006-3.825,0.605c-5.482-1.515-11.097-0.421-16.625-0.877
		C139.811,144.336,136.898,144.872,136.557,141.246z"/>
	<path fill-rule="evenodd" clip-rule="evenodd" fill="#15AEBB" d="M179.563,134.152c-10.295-0.006-20.59-0.009-30.885-0.021
		c-1.969-0.002-4.091,0.355-5.169-1.984c2.693-3.237,5.883-5.811,9.836-7.366c1.017,2.653,3.3,2.356,5.465,2.355
		c8.324-0.005,16.648-0.027,24.972,0.021c1.603,0.009,3.369-0.53,4.721,0.906C186.103,130.944,183.401,133.383,179.563,134.152z"/>
	<path fill-rule="evenodd" clip-rule="evenodd" fill="#18B9C1" d="M136.557,141.246c0.978,2.041,2.834,1.896,4.653,1.892
		c4.75-0.013,9.5-0.02,14.25,0.005c1.75,0.009,3.785-0.418,4.146,2.223c-0.344,4.656-2.244,8.242-6.857,9.977
		c-3.888-1.182-7.888-0.601-11.839-0.788c-3.277-0.154-6.672,0.077-9.351-2.42C131.978,147.932,133.79,144.369,136.557,141.246z"/>
	<path fill-rule="evenodd" clip-rule="evenodd" fill="#1ABEC4" d="M131.559,152.133c6.039,1.296,12.167,0.973,18.274,0.999
		c1.675,0.008,3.45-0.182,3.748,2.181c1.029,4.903-0.193,9.436-2.278,13.826c-0.14-5.808-3.654-6.371-8.5-6.137
		c-4.396,0.211-8.98,1.103-13.289-0.866C129.126,158.583,129.632,155.213,131.559,152.133z"/>
	<path fill-rule="evenodd" clip-rule="evenodd" fill="#20D5CF" d="M216.213,199.066c-3.888-1.879-8.023-0.565-12.03-0.916
		c-2.562-0.224-5.237,0.482-7.633-1c2.853-5.306,8.112-7.68,12.923-10.612c4.563,0.757,9.428-1.116,13.762,1.589
		C221.881,192.406,219.563,196.068,216.213,199.066z"/>
	<path fill-rule="evenodd" clip-rule="evenodd" fill="#1ECDCB" d="M223.235,188.126c-4.845-0.454-9.823,1.059-14.561-0.982
		c-0.214-4.688,2.602-7.961,5.272-11.315c3.138-1.625,6.496-1.325,9.792-0.933c1.747,0.208,3.919,0.587,2.829,3.398
		C226.59,181.956,224.957,185.056,223.235,188.126z"/>
	<path fill-rule="evenodd" clip-rule="evenodd" fill="#22C7C9" d="M226.566,178.294c-3.943-4.239-8.464-2.043-12.867-1.156
		c-1.028-0.66-1.06-1.658-0.932-2.713c1.718-3.467,3.245-7.07,6.427-9.556c2.822,2.647,5.646,1.546,8.469-0.008
		C229.269,169.5,227.545,173.867,226.566,178.294z"/>
	<path fill-rule="evenodd" clip-rule="evenodd" fill="#1EC1C6" d="M227.664,164.862c-3.665,4.635-6.092,4.629-8.307-0.02
		c-2.011-3.404-1.602-6.905-0.429-10.44c1.888-1.989,4.22-1.774,6.601-1.315C228.031,156.687,227.544,160.83,227.664,164.862z"/>
	<path fill-rule="evenodd" clip-rule="evenodd" fill="#1CB1BD" d="M199.189,129.293c2.456-0.68,5.641,1.086,7.326-2.183
		c5.805,2.083,8.787,7.094,12.147,11.713c0.172,3.313-2.087,3.268-4.38,3.183C209.032,138.038,203.886,133.932,199.189,129.293z"/>
	<path fill-rule="evenodd" clip-rule="evenodd" fill="#1EB9C2" d="M213.768,141.121c2.038,0.101,4.019,0.079,4.894-2.297
		c4.08,3.892,5.738,8.949,6.867,14.263c-1.733,1.88-3.996,0.719-6,1.046C216.088,150.468,214.423,146.018,213.768,141.121z"/>
	<path fill-rule="evenodd" clip-rule="evenodd" fill="#FDFDFD" d="M277.508,318.105c-5.629,10.742-12.987,19.958-23.692,26.029
		c-6.912,3.921-14.354,5.873-22.389,4.813c-2.137-1.077-2.378-3.106-2.4-5.119c-0.148-13.476-0.115-26.952-0.029-40.43
		c0.024-3.797,1.533-6.395,5.502-7.115c10.606-0.789,20.823-3.514,31.041-6.231c1.86-0.258,2.798,0.995,3.347,2.38
		c2.989,7.534,5.855,15.116,8.623,22.734C277.837,316.066,277.744,317.125,277.508,318.105z"/>
	<path fill-rule="evenodd" clip-rule="evenodd" fill="#FDFDFD" d="M222.453,347.285c-18.234-4.345-30.106-16.432-39.044-32.088
		c0.988-8.768,4.562-16.548,9.141-23.944c9.58,2.087,19.091,4.571,28.953,5.036c3.641,0.69,5.433,2.921,5.482,6.594
		c0.179,13.288,0.194,26.577-0.026,39.863C226.915,345.401,226.664,348.474,222.453,347.285z"/>
	<path fill-rule="evenodd" clip-rule="evenodd" fill="#FBFDFD" d="M270.582,288.241c8.294-4.735,17.153-8.438,25.334-13.838
		c-3.519,13.663-7.917,26.811-15.419,38.735c-1.299,0.295-1.825-0.657-2.186-1.547c-2.741-6.775-5.327-13.611-7.865-20.464
		C270.102,290.199,270.004,289.177,270.582,288.241z"/>
	<path fill-rule="evenodd" clip-rule="evenodd" fill="#FBFDFD" d="M179.654,309.041c-5.656-9.254-8.722-19.437-11.374-30.951
		c6.958,5.029,13.824,8.134,20.364,11.832c-0.596,6.563-3.569,12.282-6.463,18.016C181.743,308.805,180.81,309.39,179.654,309.041z"
		/>
	<path fill-rule="evenodd" clip-rule="evenodd" fill="#CFCFCF" d="M222.453,347.285c2.302-0.016,3.064-1.161,3.052-3.448
		c-0.07-13.931-0.075-27.863,0.032-41.795c0.023-3.062-2.051-4.288-4.035-5.753c4.333-0.002,8.667-0.004,13-0.006
		c-3.107,1.646-4.13,4.139-4.077,7.7c0.196,13.228,0.08,26.46,0.076,39.69c0,1.815-0.169,3.655,0.928,5.274
		C228.432,348.415,225.305,348.592,222.453,347.285z"/>
	<path fill-rule="evenodd" clip-rule="evenodd" fill="#CBCCCC" d="M270.582,288.241c3.305,8.299,6.61,16.598,9.915,24.897
		c-0.621,1.882-1.655,3.515-2.988,4.968c-3.021-7.872-6.043-15.742-9.059-23.614c-0.649-1.693-1.087-3.519-2.909-4.439
		C267.222,289.448,268.902,288.844,270.582,288.241z"/>
	<path fill-rule="evenodd" clip-rule="evenodd" fill="#CCCCCC" d="M179.654,309.041c4.224-3.57,4.099-9.252,6.61-13.664
		c0.976-1.714,1.598-3.63,2.381-5.455c1.301,0.443,2.603,0.888,3.905,1.331c-3.047,7.981-6.094,15.964-9.141,23.944
		C181.827,313.346,180.526,311.324,179.654,309.041z"/>
	<path fill-rule="evenodd" clip-rule="evenodd" fill="#FDFDFD" d="M339.734,153.128c-0.174,4.637-0.347,9.272-0.521,13.909
		c-1.597,2.034-3.193,4.068-4.79,6.103c-3.85,3.958-8.708,3.946-13.462,2.833c-13.928-3.262-25.163-19.253-23.771-33.438
		c0.143-1.452,0.033-3.054,1.684-3.867c0.661-3.356,2.73-5.909,4.822-8.449c9.755-4.641,17.815-0.71,25.518,5.042
		C333.906,140.519,337.662,146.328,339.734,153.128z"/>
	<path fill-rule="evenodd" clip-rule="evenodd" d="M298.875,138.668c-2.141,13.32,4.133,26.432,15.696,33.254
		c6.478,3.821,13.03,4.152,19.853,1.218c0.446,3.691-2.018,6.607-2.667,10.008c-3.179,5.154-7.728,8.991-12.311,12.795
		c-11.095,4.603-22.08,4.684-32.93-0.8c-2.931-2.698-5.862-5.396-8.793-8.095c-1.794-3.964-3.587-7.928-5.381-11.892
		c-0.495-5.599-0.212-11.186,0.283-16.768c3.049-4.694,4.531-10.364,8.879-14.25c4.208-2.072,7.732-5.452,12.435-6.569
		C295.723,137.146,297.769,135.899,298.875,138.668z"/>
	<path fill-rule="evenodd" clip-rule="evenodd" d="M213.526,174.19c0.058,0.983,0.115,1.966,0.172,2.948
		c-1.675,3.335-3.35,6.671-5.025,10.006c-3.576,3.899-7.897,6.896-12.125,10.006c-10.597,3.251-20.942,3.13-30.889-2.312
		c-2.771-2.558-5.543-5.116-8.314-7.674c-1.692-3.668-3.385-7.336-5.077-11.005c-0.322-2.34-0.644-4.68-0.966-7.021
		c-0.543-4.823,1.231-9.265,2.278-13.826c2.008-3.316,4.017-6.632,6.025-9.948c5.918-3.424,10.912-8.938,18.65-8.244
		c1.291,1.641,0.585,3.525,0.563,5.286c-0.237,18.685,10.961,30.348,29.57,30.729C210.164,173.172,212.08,172.546,213.526,174.19z"
		/>
	<path fill-rule="evenodd" clip-rule="evenodd" fill="#FDFDFD" d="M213.526,174.19c-4.449,0.25-8.92,0.568-13.307-0.437
		c-16.141-3.698-25.305-19.028-21.963-36.632c0.435-0.99,0.87-1.979,1.306-2.97c2.536-2.681,5.652-4.511,8.939-6.09
		c3.665-0.474,7.11,0.956,10.688,1.231c5.797,2.786,10.496,6.927,14.578,11.827c2.365,4.141,4.184,8.522,5.761,13.012
		c-0.057,3.57-0.114,7.141-0.171,10.71C218.056,168.359,215.771,171.262,213.526,174.19z"/>
</g>
</svg>
