<?xml version="1.0" encoding="utf-8"?>
<!-- Generator: Adobe Illustrator 16.0.3, SVG Export Plug-In . SVG Version: 6.00 Build 0)  -->
<!DOCTYPE svg PUBLIC "-//W3C//DTD SVG 1.1//EN" "http://www.w3.org/Graphics/SVG/1.1/DTD/svg11.dtd">
<svg version="1.1" id="Layer_1" xmlns="http://www.w3.org/2000/svg" xmlns:xlink="http://www.w3.org/1999/xlink" x="0px" y="0px"
	 width="435.494px" height="471.132px" viewBox="0 0 435.494 471.132" enable-background="new 0 0 435.494 471.132"
	 xml:space="preserve">
<g>
	<path fill-rule="evenodd" clip-rule="evenodd" fill="#AF2323" d="M0.066,365.673c0.954-25.367,2.964-56.926,5.531-88.452
		c2.391-29.374,5.747-58.635,10.491-87.728c5.794-35.531,14.194-70.343,27.117-104.064c12.768-33.318,35.745-55.76,68.933-68.355
		c29.421-11.166,59.76-16.702,91.224-17.053c33.488-0.373,65.973,4.149,97.055,17.155c47.347,19.812,77.726,54.38,91.635,103.827
		c18.015,64.044,30.732,129.081,38.243,195.174c3.294,28.979,5.32,58.017,5.193,87.183c-0.046,10.646-0.329,21.313-3.348,31.673
		c-3.554,12.192-9.961,15.082-21.367,9.576c-11.264-5.436-19.968-14.339-29.632-21.935c-6.809-5.351-13.494-10.855-21.374-14.64
		c-10.996-5.28-16.963-3.826-23.961,6.059c-6.963,9.836-11.37,21.046-16.834,31.688c-2.892,5.633-5.903,11.183-10.041,16.028
		c-8.663,10.146-19.354,11.937-30.745,5.127c-10.265-6.136-17.483-15.278-24.281-24.804c-5.319-7.453-10.487-15.015-15.797-22.474
		c-4.468-6.275-9.522-11.997-16.027-16.286c-8.406-5.544-15.002-5.218-22.733,1.333c-7.352,6.229-12.488,14.215-17.427,22.346
		c-6.216,10.235-11.773,20.869-18.582,30.745c-11.86,17.202-24.448,17.771-37.746,1.657c-6.821-8.265-11.766-17.724-16.953-27.025
		c-4.617-8.279-8.929-16.761-14.964-24.155c-4.285-5.25-5.491-5.259-10.07-0.261c-11.921,13.014-22.605,27.132-35.218,39.527
		c-4.889,4.805-10.144,9.15-16.454,12.011c-10.739,4.867-19.77,1.852-25.097-8.652c-5.73-11.298-6.514-23.643-6.717-35.979
		C-0.114,400.592,0.066,386.257,0.066,365.673z"/>
	<path fill-rule="evenodd" clip-rule="evenodd" fill="#FD0000" d="M14.115,399.52c0-18.632-0.632-37.29,0.158-55.889
		c1.02-24.027,2.711-48.05,4.941-71.998c4.43-47.57,10.448-94.929,22.858-141.218c5.738-21.402,12.821-42.276,24.083-61.574
		c9.531-16.332,23.727-27.123,40.326-35.146c19.92-9.628,41.125-15.152,62.928-18.185c19.298-2.684,38.688-2.928,58.182-1.457
		c20.338,1.534,40.125,5.183,59.306,12.067c20.578,7.386,39.369,17.912,55.326,32.956c18.95,17.867,29.712,40.397,36.947,65.116
		c10.316,35.24,18.568,70.934,25.345,106.99c3.766,20.035,6.818,40.183,9.659,60.372c2.982,21.19,5.077,42.473,6.695,63.784
		c1.231,16.222,2.71,32.503,2.001,48.785c-0.344,7.911-0.308,15.95-2.175,23.751c-1.431,5.979-2.491,6.359-7.59,3.056
		c-12.447-8.066-22.999-18.572-35.021-27.195c-5.325-3.82-11.02-6.951-17.078-9.248c-14.997-5.684-26.596-1.809-35.91,11.855
		c-7.534,11.053-12.483,23.509-18.713,35.271c-2.414,4.56-4.822,9.099-8.739,12.656c-4.685,4.254-7.618,4.63-12.853,1.219
		c-8.8-5.735-15.233-13.793-21.252-22.162c-8.82-12.266-16.215-25.61-27.69-35.834c-2.741-2.442-5.543-4.778-8.705-6.634
		c-16.401-9.623-32.338-2.482-42.913,10.106c-11.097,13.21-18.639,28.682-27.61,43.244c-2.353,3.82-4.578,7.723-7.84,10.909
		c-3.257,3.182-6.305,3.089-9.521-0.086c-6.979-6.889-11.381-15.519-16.231-23.838c-6.109-10.481-11.553-21.345-18.99-31.037
		c-8.939-11.65-19.087-12.617-29.229-2.006c-12.634,13.218-23.338,28.186-36.723,40.744c-2.798,2.626-5.53,5.302-8.834,7.292
		c-6.352,3.825-9.691,2.666-12.164-4.219c-2.606-7.256-3.717-14.806-3.976-22.454c-0.225-6.658-0.047-13.33-0.047-19.996
		C13.416,399.52,13.765,399.52,14.115,399.52z"/>
	<path fill-rule="evenodd" clip-rule="evenodd" fill="#FDFDFD" d="M217.557,175.209c0.056-34.144,19.622-65.093,48.541-76.788
		c38.612-15.615,82.963,5.236,96.638,46.599c10.139,30.668,7.952,60.161-14.371,85.746c-34.501,39.54-92.965,33.736-119.2-11.738
		C221.339,205.464,217.695,190.804,217.557,175.209z"/>
	<path fill-rule="evenodd" clip-rule="evenodd" fill="#FDFDFD" d="M60.368,210.37c-5.161-14.232-7.441-28.804-6.372-44.018
		c2.468-35.12,27.298-64.257,61.396-71.497c31.087-6.602,60.668,7.086,77.443,37.197c17.116,30.724,15.284,61.414-2.961,91.274
		c-1.209,1.979-2.592,3.852-3.894,5.772c-2.409,1.17-4.59-0.003-6.704-0.825c-17.937-6.976-36.436-11.764-55.543-14.01
		c-18.393-2.162-36.849-2.036-55.309-0.89C65.284,213.57,61.941,214.352,60.368,210.37z"/>
	<path fill-rule="evenodd" clip-rule="evenodd" fill="#AF2323" d="M235.829,295.875c-25.291-10.959-50.027-21.571-75.598-30.134
		c-14.984-5.017-28.44-2.492-40.983,6.686c-2.683,1.963-5.534,3.696-8.283,5.57c-0.963,0.656-1.934,1.681-3.106,0.844
		c-1.288-0.919-0.998-2.459-0.521-3.665c0.54-1.367,1.248-2.798,2.262-3.828c15.455-15.718,28.451-22.838,52.813-15.341
		c19.694,6.061,37.736,15.718,55.241,26.413c4.966,3.034,9.792,6.298,14.673,9.469C233.679,292.767,235.363,293.333,235.829,295.875
		z"/>
	<path fill-rule="evenodd" clip-rule="evenodd" fill="#B02323" d="M60.368,210.37c1.467,1.688,3.348,1.879,5.441,1.683
		c41.412-3.888,81.553,1.217,120.171,17.047c2.429,3.09,6.557,3.715,10.068,6.823c-3.813-0.066-6.697-0.75-9.511-1.68
		c-23.837-7.873-48.272-12.704-73.262-15.101c-13.06-1.252-26.105-2.116-39.209-1.772c-5.621,0.147-11.191,1.285-16.859,0.969
		c-3.183-0.178-6.192-0.651-9.109-2.985c2.075-1.749,4.25-2.048,6.537-2.077C57.012,213.246,59.367,213.131,60.368,210.37z"/>
	<path fill-rule="evenodd" clip-rule="evenodd" fill="#22C8E1" d="M291.104,193.29c-3.727,5.413-8.516,9.394-14.982,11.11
		c-7.441,0.709-14.902,0.404-22.355,0.375c-2.422-0.01-5.11,0.272-6.516-2.531c-0.549-4.391,0.485-8.266,3.754-11.406
		c1.119-0.449,2.292-0.406,3.37-0.012c6.358,2.326,12.832,2.273,19.381,1.063c4.11-0.017,8.214-0.311,12.319-0.125
		C287.869,191.844,289.725,191.803,291.104,193.29z"/>
	<path fill-rule="evenodd" clip-rule="evenodd" fill="#187FEA" d="M237.904,136.956c10.888-9.445,30.199-10.494,42.597-2.198
		c3.141,2.102,6.3,4.245,8.757,7.208c0.401,1.526-0.66,1.798-1.75,2.048c-2.007-0.02-3.248-1.404-4.603-2.592
		c-8.795-7.707-13.299-8.248-23.404-2.808c-0.878,0.473-1.798,0.809-2.796,0.955c-4.816,0.475-9.638,0.375-14.443,0.129
		C240.483,139.607,238.031,139.949,237.904,136.956z"/>
	<path fill-rule="evenodd" clip-rule="evenodd" fill="#1688E8" d="M237.904,136.956c2.283,2.503,5.25,1.102,7.89,1.259
		c4.083,0.243,8.19,0.069,12.288,0.072c0.595,3.631-0.766,7.005-1.371,10.476c-3.34,0.026-6.628,0.618-9.943,1.051
		c-4.337-0.085-8.674,0.136-12.987-0.186c-2.217-0.165-4.933-0.116-4.84-3.594C230.849,141.941,234.056,139.132,237.904,136.956z"/>
	<path fill-rule="evenodd" clip-rule="evenodd" fill="#62E6FD" d="M231.074,194.265c-4.156-4.207-6.827-9.198-7.921-15.021
		c4.805-2.718,9.858-4.67,15.435-5.018c0.515,0.091,0.997,0.275,1.449,0.536c2.222,2.771,4.008,5.753,4.439,9.378
		C240.841,188.612,237.917,194.034,231.074,194.265z"/>
	<path fill-rule="evenodd" clip-rule="evenodd" fill="#A7F3FA" d="M231.074,194.265c5.523-1.732,8.486-6.763,12.854-9.982
		c4.169,0.346,6.063,3.157,7.273,6.71c-1.291,3.336-2.771,6.612-3.171,10.224c-0.863,1.202-0.205,3.116-1.849,3.954
		C240.294,202.717,234.806,199.708,231.074,194.265z"/>
	<path fill-rule="evenodd" clip-rule="evenodd" fill="#1FAAE4" d="M239.088,174.988c-5.568,0.456-10.293,4.075-15.936,4.257
		c-1.347-3.903-2.422-7.831-1.12-11.982c4.361-1.066,8.785-0.679,13.11-0.079C239.466,167.783,240.691,170.613,239.088,174.988z"/>
	<path fill-rule="evenodd" clip-rule="evenodd" fill="#1891E7" d="M228.94,146.034c1.049,2.553,3.304,2.07,5.395,2.281
		c4.59,0.463,9.363-1.312,13.785,1.118c-0.9,3.842-3.113,6.436-7.045,7.408c-3.741-0.154-7.493,0.066-11.218-0.229
		c-2.146-0.17-4.841,0.015-4.827-3.402C225.205,150.204,227.059,148.111,228.94,146.034z"/>
	<path fill-rule="evenodd" clip-rule="evenodd" fill="#1A99E6" d="M225.03,153.21c1.177,2.597,3.549,1.845,5.628,2.099
		c3.84,0.467,7.93-1.357,11.533,1.238c1.513,3.028-0.331,4.944-2.259,6.841c-4.329,2.172-8.902,1.508-13.388,0.914
		c-2.179-0.288-3.907-1.618-3.615-4.308C222.845,157.49,223.104,155.092,225.03,153.21z"/>
	<path fill-rule="evenodd" clip-rule="evenodd" fill="#2CD3E2" d="M246.183,205.17c0.092-1.563,0.785-2.846,1.849-3.954
		c0.446,2.717,2.596,2.024,4.276,2.039c6.416,0.055,12.834-0.007,19.251,0.043c1.576,0.013,3.35-0.524,4.563,1.102
		C266.278,209.972,256.268,209.025,246.183,205.17z"/>
	<path fill-rule="evenodd" clip-rule="evenodd" fill="#20B5E3" d="M298.938,177.274c-0.144,3.78-1.431,7.116-3.882,10.001
		c-3.896,2.366-7.724,1.582-11.529-0.248c-1.533-4.748,2.479-6.783,4.741-9.687C291.813,175.75,295.367,174.95,298.938,177.274z"/>
	<path fill-rule="evenodd" clip-rule="evenodd" fill="#1B9EE1" d="M222.93,159.995c2.86,3.639,10.215,4.628,16.973,2.281
		c2.542,4.307,2.595,8.604-0.045,12.893c-0.275,0.026-0.532-0.032-0.77-0.179c-0.295-6.123-0.871-6.589-6.938-6.747
		c-3.383-0.089-6.89,0.804-10.117-0.98C222.092,164.81,221.22,162.243,222.93,159.995z"/>
	<path fill-rule="evenodd" clip-rule="evenodd" fill="#22BEDF" d="M283.235,186.316c3.889,0.958,7.842,1.115,11.82,0.959
		c-0.489,2.549-1.738,4.599-3.952,6.015c-5.998,0.001-11.996,0.002-17.993,0.003C275.428,189.432,278.899,187.248,283.235,186.316z"
		/>
	<path fill-rule="evenodd" clip-rule="evenodd" fill="#1DAAE3" d="M298.938,177.274c-3.571,0.069-7.192-0.397-10.636,1.012
		c-0.417-0.292-0.641-0.692-0.678-1.2c0.139-1.72,0.262-3.443,0.836-5.098c0.914-1.979,2.075-3.732,4.21-4.597
		c2.515-0.542,5.017-0.967,7.236,0.888C300.187,171.342,300.365,174.395,298.938,177.274z"/>
	<path fill-rule="evenodd" clip-rule="evenodd" fill="#20A2E7" d="M299.906,168.279c-2.573,0-5.147,0.001-7.721,0.001
		c-2.216-3.002-0.803-5.676,0.75-8.342c2.073-1.209,4.081-1.234,5.998,0.34C300.603,162.781,300.071,165.552,299.906,168.279z"/>
	<path fill-rule="evenodd" clip-rule="evenodd" fill="#249AE8" d="M298.934,160.278c-1.875,0-3.75-0.001-5.625-0.001
		c-2.781-2.41-2.814-5.606-2.542-8.891c1.178-1.403,2.756-1.457,4.398-1.294C298.151,152.847,297.947,156.783,298.934,160.278z"/>
	<path fill-rule="evenodd" clip-rule="evenodd" fill="#2790EA" d="M295.165,150.092c-0.903,1.593-2.457,1.078-3.82,1.18
		c-3.047-1.773-4.906-4.205-4.404-7.946c1.002-0.062,1.857-0.375,2.317-1.36C292.412,143.812,293.951,146.833,295.165,150.092z"/>
	<path fill-rule="evenodd" clip-rule="evenodd" fill="#22C6E0" d="M176.956,188.251c-1.649,3.245-4.519,4.998-7.735,6.328
		c-9.432,0.541-18.871,0.187-28.307,0.199c-1.816,0.003-3.671-0.106-5.089-1.537c-1.575-3.595-0.286-6.526,2.139-9.193
		c7.069,1.479,14.206,2.219,21.443,1.79c3.799,0.134,7.596-0.234,11.391-0.019C173.107,185.951,175.48,185.983,176.956,188.251z"/>
	<path fill-rule="evenodd" clip-rule="evenodd" fill="#24CDE1" d="M135.988,192.113c1.357,1.787,3.317,1.123,5.042,1.137
		c7.739,0.064,15.479-0.004,23.219,0.054c1.724,0.013,3.699-0.624,4.973,1.275c-8.696,7.734-24.975,9.407-36.19,3.718
		C132.68,195.596,133.115,193.271,135.988,192.113z"/>
	<path fill-rule="evenodd" clip-rule="evenodd" fill="#62E6FD" d="M117.085,187.259c-3.307-4.184-6.134-8.603-6.896-14.036
		c4.478-3.723,10.144-4.053,15.451-5.418c0.782,0.153,1.394,0.585,1.915,1.167c1.496,3.066,3.96,5.751,3.795,9.488
		c-2.468,2.804-5.354,5.176-8.141,7.636C121.52,187.588,119.514,188.943,117.085,187.259z"/>
	<path fill-rule="evenodd" clip-rule="evenodd" fill="#1997E6" d="M126.849,169.134c-0.314-0.198-0.628-0.396-0.943-0.595
		c-0.677-0.622-0.97-1.428-1.119-2.302c-0.052-0.488-0.09-0.981-0.112-1.477c-0.313-6.975-0.314-6.922-7.398-7.05
		c-2.745-0.049-5.671,0.631-8.076-1.439c-0.36-5.363,2.25-9.703,4.841-14.05c3.471,1.741,7.204,1.643,10.946,1.642
		c2.402-0.001,4.901-0.38,7.094,1.094c1.256,1.807,0.507,3.592-0.428,5.083c-2.744,4.379-3.474,9.118-3.228,14.163
		C128.512,165.959,128.581,167.881,126.849,169.134z"/>
	<path fill-rule="evenodd" clip-rule="evenodd" fill="#A7F3FA" d="M117.085,187.259c2.996,0.281,4.981-1.499,6.903-3.396
		c2.13-2.101,4.104-4.392,6.948-5.605c4.072,0.271,5.9,3.041,7.167,6.435c-0.705,2.475-1.41,4.948-2.115,7.421
		c-0.986,2.061-1.972,4.122-2.958,6.183C126.438,196.463,121.479,192.269,117.085,187.259z"/>
	<path fill-rule="evenodd" clip-rule="evenodd" fill="#197EEA" d="M128.113,128.5c16.223-10.463,36.729-6.491,50.014,9.687
		c0.903,1.773,0.054,2.459-1.628,2.632c-1.728-0.343-2.892-1.57-3.951-2.794c-7.319-8.451-15.74-12.243-26.528-6.494
		c-4.408,0.4-8.819,0.332-13.22,0.115C130.733,131.543,128.388,131.455,128.113,128.5z"/>
	<path fill-rule="evenodd" clip-rule="evenodd" fill="#178BE8" d="M132.389,145.417c-4.577-0.047-9.154-0.125-13.73-0.127
		c-2.263-0.001-4.367-0.103-4.617-3.068c0.845-2.57,2.513-4.507,4.67-6.066c7.791-2.665,15.697-1.558,23.593-0.735
		c1.248,0.592,1.601,1.642,1.479,2.925C140.622,141.716,137.235,144.741,132.389,145.417z"/>
	<path fill-rule="evenodd" clip-rule="evenodd" fill="#1784E9" d="M143.29,136.347c-8.192-0.063-16.385-0.128-24.577-0.191
		c2.163-3.744,5.54-5.997,9.401-7.656c1.232,2.206,3.362,1.766,5.315,1.771c4.486,0.012,8.971-0.019,13.457-0.031
		C147.708,133.464,146.056,135.234,143.29,136.347z"/>
	<path fill-rule="evenodd" clip-rule="evenodd" fill="#1CA2E2" d="M109.201,156.272c3.651,0.002,7.334,0.313,10.944-0.07
		c4.876-0.52,6.688,1.341,5.932,6.085c-0.207,1.301-0.138,2.646-0.196,3.971c-3.439,0.336-6.896,0.224-10.342,0.353
		c-6.307,0.235-7.373-1.146-6.569-7.608C109.048,158.091,109.125,157.182,109.201,156.272z"/>
	<path fill-rule="evenodd" clip-rule="evenodd" fill="#20A8E5" d="M185.985,155.296c1.891,5,1.55,9.991-0.06,14.978
		c-3.058,2.149-6.278,1.704-9.54,0.603c-1.33-0.993-1.429-2.375-1.214-3.854c1.572-3.402,3.631-6.616,4.199-10.433
		C181.157,154.037,183.576,154.692,185.985,155.296z"/>
	<path fill-rule="evenodd" clip-rule="evenodd" fill="#20B4E2" d="M175.908,170.212c3.339,0.021,6.678,0.041,10.017,0.062
		c0.055,3.354-1.131,6.294-3.009,9.002c-3.575,3.299-7.758,2.638-11.96,1.845c-2.17-1.269-1.074-2.899-0.287-4.269
		c1.24-2.156,2.204-4.486,3.825-6.417C174.915,170.047,175.388,169.975,175.908,170.212z"/>
	<path fill-rule="evenodd" clip-rule="evenodd" fill="#21BFE1" d="M170.096,180.285c4.286-0.18,8.645,0.574,12.82-1.009
		c-1.058,3.608-2.979,6.645-5.959,8.976c-5.904-1.819-11.977-0.616-17.961-1.002C161.738,183.403,165.474,181.137,170.096,180.285z"
		/>
	<path fill-rule="evenodd" clip-rule="evenodd" fill="#1EADE4" d="M108.971,159.001c0.318,6.456,1.719,7.602,9.494,6.068
		c2.884-0.569,5.114-0.283,7.418,1.188c0.007,0.76,0.016,1.52,0.024,2.28c-5.24,1.563-10.479,3.124-15.718,4.686
		C108.545,168.588,107.189,163.929,108.971,159.001z"/>
	<path fill-rule="evenodd" clip-rule="evenodd" fill="#279BE8" d="M185.985,155.296c-1.541,1.825-3.769-0.166-5.433,0.978
		c-0.334-0.076-0.815-0.18-0.848-0.4c-0.797-5.288-3.424-10.169-3.474-15.62c1.317-0.061,1.829-0.86,1.896-2.067
		C183.11,142.804,185.652,148.542,185.985,155.296z"/>
	<path fill-rule="evenodd" clip-rule="evenodd" d="M288.22,177.284c0.027,0.334,0.055,0.668,0.082,1.002
		c-1.688,2.677-3.378,5.354-5.066,8.03c-3.375,2.326-6.75,4.651-10.125,6.977c-7.579,1.867-14.86,0.893-21.908-2.299
		c-2.425-2.237-4.849-4.474-7.273-6.711c-1.356-3.037-2.713-6.073-4.07-9.112c0.015-4.299,0.029-8.597,0.044-12.895
		c0.959-1.831,2.05-3.61,2.289-5.729c1.977-2.372,3.953-4.743,5.929-7.114c1.384-0.806,2.829-1.521,4.138-2.435
		c2.408-1.679,2.959-0.146,3.347,1.801c2.167,0.885,1.712,3.037,2.127,4.677c2.222,8.775,7.484,14.905,15.508,19.017
		c4.671,2.394,9.459,0.724,14.17,1.203C288.911,174.614,288.665,175.926,288.22,177.284z"/>
	<path fill-rule="evenodd" clip-rule="evenodd" fill="#FDFDFD" d="M286.839,174.083c-13.215,6.092-29.051-8.821-30.758-21.83
		c-0.151-1.15-0.316-2.299-0.476-3.451c0.2-3.654,0.821-7.207,2.477-10.516c8.588-6.665,15.478-6.469,24.069,0.732
		c1.645,1.379,3.195,2.868,4.789,4.307c1.469,2.649,2.937,5.298,4.404,7.946c0.654,3.002,1.31,6.004,1.964,9.005
		c-0.374,2.668-0.749,5.335-1.123,8.003c-1.078,1.463-2.157,2.927-3.235,4.39C288.37,173.326,287.811,174.012,286.839,174.083z"/>
	<path fill-rule="evenodd" clip-rule="evenodd" fill="#324148" d="M286.839,174.083c0.367-0.974,1.319-1.073,2.11-1.414
		c0.181,1.606,0.355,3.211-0.729,4.615C287.825,176.188,288.356,174.694,286.839,174.083z"/>
	<path fill-rule="evenodd" clip-rule="evenodd" d="M170.096,180.285c-3.7,2.321-7.4,4.643-11.101,6.965
		c-7.175,0.869-14.229,0.751-20.892-2.558c-2.388-2.144-4.777-4.288-7.166-6.433c-1.362-3.041-2.725-6.081-4.087-9.123
		c-1.119-8.601,0.533-16.552,5.54-23.719c3.492-1.961,6.083-5.452,10.353-6.094c1.974,1.108,1.516,3.152,1.766,4.855
		c0.999,6.794,4.044,12.344,8.927,17.25c5.829,5.857,12.737,7.103,20.443,6.337c0.994,0.578,1.612,1.345,1.282,2.58
		C174.68,174.274,171.68,176.918,170.096,180.285z"/>
	<path fill-rule="evenodd" clip-rule="evenodd" fill="#FDFDFD" d="M174.022,168.079c-9.237,3.021-18.14-0.459-25.081-9.623
		c-4.309-5.688-5.806-12.213-6.2-19.132c0.183-0.992,0.365-1.984,0.548-2.977c1.199-2.036,2.397-4.072,3.596-6.108
		c8.709-4.631,15.258-3.789,22.931,3.178c2.306,2.094,4.285,4.548,6.414,6.837c2.592,5.03,4.51,10.241,4.322,16.021
		c-0.639,3.806-1.349,7.581-4.55,10.251C175.434,167.161,175.066,168.051,174.022,168.079z"/>
	<path fill-rule="evenodd" clip-rule="evenodd" fill="#2A4854" d="M174.022,168.079c0.33-0.938,1.015-1.424,1.979-1.553
		c-0.03,1.229-0.061,2.458-0.093,3.688c-0.252,0.031-0.502,0.075-0.75,0.133C174.78,169.59,174.401,168.834,174.022,168.079z"/>
</g>
</svg>
