<?xml version="1.0" encoding="utf-8"?>
<!-- Generator: Adobe Illustrator 16.0.3, SVG Export Plug-In . SVG Version: 6.00 Build 0)  -->
<!DOCTYPE svg PUBLIC "-//W3C//DTD SVG 1.1//EN" "http://www.w3.org/Graphics/SVG/1.1/DTD/svg11.dtd">
<svg version="1.1" id="Layer_1" xmlns="http://www.w3.org/2000/svg" xmlns:xlink="http://www.w3.org/1999/xlink" x="0px" y="0px"
	 width="960px" height="560px" viewBox="0 0 960 560" enable-background="new 0 0 960 560" xml:space="preserve">
<g>
	<path fill-rule="evenodd" clip-rule="evenodd" fill="#CB6A9D" d="M705.872,480.153c0,7.184,0.064,13.184-0.018,19.182
		c-0.087,6.415-4.998,9.904-11.206,8.033c-4.447-1.341-7.839-4.317-11.1-7.429c-12.778-12.197-23.583-26.277-36.51-38.336
		c-3.901-3.64-8.029-6.963-12.44-9.992c-4.979-3.42-9.576-3.032-14.27,0.38c-8.312,6.042-14.742,13.923-21.32,21.665
		c-8.831,10.393-16.92,21.455-27.512,30.252c-13,10.799-22.811,11.164-36.433,0.981c-9.934-7.425-17.853-16.934-26.191-25.995
		c-8.345-9.065-16.4-18.457-26.326-25.879c-7.53-5.631-10.85-5.613-18.323,0.209c-14.006,10.909-25.47,24.394-37.22,37.565
		c-6.542,7.334-12.983,14.76-20.134,21.516c-10.055,9.499-17.242,9.501-27.062-0.166c-10.357-10.195-18.603-22.188-27.954-33.239
		c-5.156-6.091-10.222-12.267-16.524-17.311c-3.496-2.799-6.059-2.811-9.342,0.508c-9.851,9.96-18.421,21.057-28.092,31.163
		c-5.08,5.31-10.479,10.29-16.961,13.859c-10.811,5.952-20.04,2.351-24.162-9.3c-1.677-4.738-2.503-9.669-2.813-14.651
		c-1.438-23.203,1.539-46.204,3.413-69.246c1.294-15.91,2.843-31.804,4.497-47.682c2.481-23.813,5.124-47.608,7.758-71.404
		c2.835-25.617,6.288-51.151,10.284-76.612s8.028-50.95,15.44-75.674c9.818-32.75,31.933-55.529,60.896-72.24
		c26.889-15.515,56.229-23.759,86.705-28.475c17.14-2.65,34.396-4.361,51.704-3.687c53.062,2.069,100.028,19.177,137.669,57.898
		c18.27,18.796,28.81,41.571,33.619,67.328c8.395,44.941,15.008,90.144,21.157,135.431c5.637,41.525,10.86,83.095,14.957,124.802
		C703.947,442.813,706.438,461.974,705.872,480.153z"/>
	<path fill-rule="evenodd" clip-rule="evenodd" fill="#FDA0CC" d="M659.856,194.994c4.63,26.597,8.628,53.289,12.13,80.059
		c3.521,26.927,7.445,53.805,10.737,80.759c2.752,22.526,4.817,45.136,7.242,67.703c2.305,21.437,4.84,42.853,4.998,64.453
		c0.012,1.655,0.001,3.311,0.001,5.044c-2.449,0.145-3.241-1.816-4.467-2.982c-11.22-10.671-20.91-22.798-31.878-33.698
		c-5.519-5.484-11.436-10.578-18.127-14.757c-8.87-5.538-17.409-5.37-26.062,0.272c-9.054,5.905-15.718,14.207-22.691,22.238
		c-9.568,11.019-17.759,23.36-29.628,32.203c-8.293,6.176-11.396,5.947-19.529-0.323c-11.274-8.692-20.145-19.774-29.718-30.154
		c-7.107-7.708-14.092-15.57-22.646-21.73c-13.521-9.738-22.724-9.031-36.236,2.201c-15.042,12.502-27.364,27.584-40.391,42.014
		c-5.463,6.051-11.391,11.683-17.121,17.49c-2.803,2.84-4.964,1.175-7.197-0.954c-9.909-9.446-17.903-20.515-26.431-31.127
		c-5.852-7.283-11.968-14.385-19.139-20.313c-10.042-8.304-17.571-8.066-26.321,0.771c-7.233,7.308-13.67,15.396-20.644,22.969
		c-6.188,6.721-12.113,13.762-19.887,18.814c-5.35,3.478-8.121,2.519-9.628-3.765c-2.46-10.259-2.742-20.739-2.057-31.207
		c0.704-10.745,1.769-21.468,2.737-32.193c1.238-13.694,2.548-27.383,3.811-41.074c1.082-11.72,2.034-23.452,3.238-35.159
		c1.405-13.674,2.985-27.33,4.555-40.986c1.419-12.342,2.83-24.684,4.415-37.004c2.029-15.767,4.033-31.542,6.411-47.259
		c2.303-15.224,5.065-30.378,7.626-45.563c6.862,4.944,14.334,5.991,22.361,3.498c0.421,3.257-1.824,5.617-2.916,8.327
		c-13.79,34.236-8.866,65.626,15.836,92.868c14.145,15.6,32.665,23.306,54.159,24.271c42.452,1.906,77.604-33.231,81.299-73.232
		c2.979-32.269-8.714-58.06-34.355-77.431c-10.971-8.288-23.78-12.683-37.532-13.792c-27.166-2.192-49.564,7.192-67.125,28.071
		c-1.284,1.527-2.603,3.047-4.426,3.99c-8.776,0.329-16.927-5.5-19.805-14.101c-0.029,0.21-0.048-0.955-0.017,0.059
		c0.02,0.62-0.192-0.184,0.066,0.465c2.225,10.054,8.809,14.365,18.716,14.338c-0.168,2.976-0.867,5.493-4.616,5.404
		c-5.447,1.571-10.805,1.02-16.025-0.906c-2.109-0.778-4.478-1.532-4.853-4.358c4.248-21.188,8.214-42.41,20.821-60.806
		c11.065-16.146,25.541-28.371,42.363-37.901c26.974-15.278,56.237-23.511,86.812-27.691c15.84-2.167,31.711-3.375,47.681-2.868
		c34.068,1.08,65.862,10.121,94.962,27.99c23.744,14.579,42.938,33.47,54.654,59.221c5.352,11.763,7.679,24.325,9.969,36.905
		c0.491,3.017-1.675,4.433-3.632,5.93c-3.307,2.528-7.265,3.889-10.832,5.957c-0.441,0.228-0.904,0.281-1.388,0.197
		c-2.12-2.423-4.92-4.521-4.032-8.388c10.925-3.857,12.557-5.641,13.813-15.569c-3.064,7.437-7.256,13.21-14.646,15.964
		c-5.838-4.201-9.521-10.522-15.281-14.922c-12.637-9.654-26.469-15.673-42.417-17.079c-22.932-2.023-42.983,4.89-59.516,20.36
		c-20.606,19.285-29.344,43.568-26.184,71.765c2.004,17.895,9.017,33.649,21.368,46.893c14.892,15.964,33.046,24.74,55.063,25.461
		c16.906,0.553,32.351-3.659,46.138-13.404c19.582-13.843,31.449-32.519,35.113-56.41c2.258-14.712,0.409-28.839-4.597-42.698
		c-0.617-1.707-1.49-3.415-0.293-5.233C649.767,193.315,654.751,194.594,659.856,194.994z"/>
	<path fill-rule="evenodd" clip-rule="evenodd" fill="#FA9FCA" d="M656.885,179.913c1.334,3.467,1.95,7.065,1.943,10.774
		c-2.896,3.352-6.688,2.567-10.354,2.179c-1.415-0.15-2.719-1.126-4.24-0.618c-3.364-0.8-3.456-3.489-3.562-6.172l0.359-0.324
		C646.664,184.752,652.091,183.191,656.885,179.913z"/>
	<path fill-rule="evenodd" clip-rule="evenodd" fill="#0A0608" d="M656.885,179.913c-3.99,5.459-9.53,6.711-15.854,5.839
		c-0.166-2.382,2.021-1.808,3.159-2.342c4.69-2.201,9.128-4.64,11.8-9.355c0.705-1.012,1.409-2.024,2.114-3.037
		c1.891,0.038,1.108,1.218,0.916,2.146C659.132,175.673,657.462,177.62,656.885,179.913z"/>
	<path fill-rule="evenodd" clip-rule="evenodd" fill="#090507" d="M643.9,191.845c2.212-2.218,4.46,0.286,6.767-0.007
		c2.725-0.347,5.504-0.271,8.161-1.15c3.235-0.381,5.637-2.937,9.249-3.907c-1.992,4.118-5.224,6.047-8.221,8.214
		c-5.442,2.113-10.333,0.589-15.021-2.277C644.385,192.576,644.079,192.278,643.9,191.845z"/>
	<path fill-rule="evenodd" clip-rule="evenodd" fill="#070405" d="M298.729,179.205c4.533,3.947,9.959,4.884,15.733,4.711
		c1.813-0.054,3.631,0.049,5.445,0.08c0.242,0.206,0.319,0.408,0.229,0.604c-0.088,0.193-0.174,0.29-0.259,0.29
		c-8.506,5.312-12.582,4.725-21.917-3.156C297.7,180.735,296.891,179.568,298.729,179.205z"/>
	<path fill-rule="evenodd" clip-rule="evenodd" fill="#28141E" d="M659.021,173.163c-0.306-0.715-0.611-1.431-0.916-2.146
		c0.316-0.868,0.633-1.736,1.1-3.02C660.329,170.118,659.974,171.657,659.021,173.163z"/>
	<path fill-rule="evenodd" clip-rule="evenodd" fill="#FEFEFE" d="M643.9,191.845c0.313,0.291,0.626,0.583,0.938,0.873
		c2.168,8.318,5.277,16.343,6.292,25.023c2.59,22.147-2.151,42.511-15.264,60.38c-17.999,24.527-42.55,36.23-73.084,33.607
		c-16.47-1.415-31.105-7.935-43.628-18.98c-21.313-18.8-30.85-42.678-29.052-70.66c2.394-37.248,28.909-69.271,65.733-76.163
		c26.898-5.033,50.218,2.616,70.211,20.884c3.64,3.325,6.634,7.354,9.926,11.06l-0.043-0.034c1.581,2.748,3.162,5.494,4.743,8.242
		C641.748,187.999,642.824,189.922,643.9,191.845z"/>
	<path fill-rule="evenodd" clip-rule="evenodd" fill="#FEFEFE" d="M319.879,184.891c0.066-0.297,0.076-0.596,0.029-0.896
		c2.751-0.511,2.708-3.291,4.031-4.963c0.072-0.432,0.314-0.696,0.754-0.768c13.261-18.205,30.937-29.747,53.193-32.958
		c24.29-3.504,46.062,3.031,64.532,19.534c19.429,17.356,28.759,39.508,28.236,65.145c-0.788,38.746-26.431,71.932-63.547,80.16
		c-25.195,5.585-48.244,0.064-68.138-16.671c-23.028-19.372-32.036-44.657-29.873-74.162
		C309.992,207.104,314.511,195.812,319.879,184.891z"/>
	<path fill-rule="evenodd" clip-rule="evenodd" fill="#CB6A9E" d="M446.422,308.512c2.542,9.862,5.636,19.425,10.441,28.33
		c2.213,4.099,4.752,7.953,7.88,11.454c9.194,10.289,21.671,8.693,30.44,0.734c10.643-9.659,15.68-22.396,18.685-36.079
		c0.388-1.763,0.47-3.565,2.111-5.937c1.358,19.276-3.672,35.416-18.077,47.313c-14.274,11.791-30.171,9.548-41.126-5.385
		c-7.802-10.636-12.273-22.751-11.887-36.252C444.93,311.291,444.41,309.629,446.422,308.512z"/>
	<path fill-rule="evenodd" clip-rule="evenodd" fill="#0A0708" d="M324.693,178.265c-0.251,0.256-0.503,0.512-0.754,0.768
		c-11.501,1.864-17.402-2.766-19.168-15.036c-0.284-1.012,0.129-1.28,1.062-0.998C309.273,171.604,315.928,176.237,324.693,178.265z
		"/>
	<path fill-rule="evenodd" clip-rule="evenodd" fill="#0B0709" d="M635.973,177.868c6.6-5.227,12.609-10.884,13.924-19.956
		c3.748,13.466-4.75,20.409-13.967,19.922L635.973,177.868z"/>
	<path fill-rule="evenodd" clip-rule="evenodd" fill="#070506" d="M315.741,154.034c1.258,7.54,5.887,12.784,11.935,17.164
		c-6.799,1.482-12.864-3.457-13.643-11.116c-0.266-2.627,0.038-5.313,0.081-7.972C316.088,151.541,315.051,153.518,315.741,154.034z
		"/>
	<path fill-rule="evenodd" clip-rule="evenodd" fill="#87556C" d="M315.741,154.034c-0.542-0.642-1.085-1.282-1.627-1.924
		c-0.338-1.422,0.166-2.475,1.438-3.419C316.211,150.586,316.001,152.309,315.741,154.034z"/>
	<path fill-rule="evenodd" clip-rule="evenodd" fill="#84536A" d="M305.833,162.998c-0.354,0.333-0.708,0.666-1.062,0.998
		c-0.926-1.111-0.968-2.337-0.595-3.716C305.505,160.844,306.008,161.725,305.833,162.998z"/>
	<path fill-rule="evenodd" clip-rule="evenodd" fill="#73D1EC" d="M515.74,179.668c14.859-14.309,42.517-14.569,58.844-0.554
		c0.753,0.646,1.499,1.301,2.248,1.951c-0.056,2.94-2.422,3-4.408,3.541c-0.659,0.015-1.357,0.01-1.907-0.345
		c-6.705-4.323-13.657-5.126-20.961-1.596c-0.579,0.28-1.281,0.231-1.946,0.242c-8.626-0.844-17.273-0.188-25.899-0.514
		C519.478,182.311,516.547,183.133,515.74,179.668z"/>
	<path fill-rule="evenodd" clip-rule="evenodd" fill="#8DFAF3" d="M576.093,252.028c-5.347,5.891-12.418,8.514-19.869,10.266
		c-9.687,2.277-19.21,1.859-28.386-2.36c-0.797-5.317,1.07-9.685,4.815-11.268c11.957,1.485,23.963,0.264,35.935,0.72
		C571.311,249.49,574.413,248.826,576.093,252.028z"/>
	<path fill-rule="evenodd" clip-rule="evenodd" fill="#76D7ED" d="M515.74,179.668c1.504,1.975,3.663,1.106,5.562,1.224
		c9.253,0.569,18.595-1.146,27.783,1.088c0.379,2.729-1.308,4.257-3.26,5.638c-4.612,1.541-9.278,2.936-13.273,5.898
		c-1.057,0.784-2.355,1.08-3.718,0.765c-5.798-1.502-11.721-0.54-17.564-0.965c-2.015-0.146-4.825,0.826-5.462-2.531
		C508.235,186.289,511.212,182.285,515.74,179.668z"/>
	<path fill-rule="evenodd" clip-rule="evenodd" fill="#ADF9FE" d="M510.868,247.96c-5.904-5.065-8.907-11.79-10.913-19.084
		c6.188-3.179,12.779-5.114,19.597-6.355c3.399,3.399,5.026,7.786,6.729,12.134C521.808,239.854,517.375,245.109,510.868,247.96z"/>
	<path fill-rule="evenodd" clip-rule="evenodd" fill="#7ADDEE" d="M505.808,190.784c5.379,2.42,11.044,0.618,16.559,1.081
		c2.629,0.22,5.345-0.231,7.522,1.783c-2.54,5.206-4.289,10.988-10.078,13.847c-4.966-0.132-9.934,0.063-14.887-0.169
		c-1.923-0.09-4.521,0.63-5.077-2.486C500.783,199.709,502.276,194.814,505.808,190.784z"/>
	<path fill-rule="evenodd" clip-rule="evenodd" fill="#8AF5F2" d="M576.093,252.028c-1.916-1.246-4.069-1.138-6.221-1.134
		c-11.062,0.018-22.122,0.05-33.183-0.036c-1.752-0.014-4.198,1.052-4.804-1.981c-1.713-2.896-0.216-4.782,2.016-6.44
		c1.904-0.608,3.585,0.243,5.249,0.914c8.521,3.436,16.778,2.924,24.838-1.462c1.737-0.946,3.512-1.865,5.545-2.075
		c5.106,1.146,10.621-0.67,15.498,2.133C582.765,245.938,580.356,249.808,576.093,252.028z"/>
	<path fill-rule="evenodd" clip-rule="evenodd" fill="#D3F4FB" d="M533.966,242.672c-0.845,2.017-2.259,3.844-2.08,6.205
		c-2.075,3.419-2.854,7.313-4.048,11.056c-6.906-2.219-12.588-6.176-16.97-11.974c4.922-4.354,9.843-8.706,14.764-13.06
		C529.132,236.715,532.381,238.802,533.966,242.672z"/>
	<path fill-rule="evenodd" clip-rule="evenodd" fill="#7FE4EF" d="M499.847,204.84c4.877,2.363,10.06,0.431,15.058,1.076
		c2.042,0.264,4.355-0.85,6.066,1.157c1.397,3.751,0.939,7.243-1.454,10.474c-5.87,1.763-11.902,1.281-17.776,0.567
		c-5.469-0.666-3.021-5.089-2.862-8.263C498.95,208.132,498.485,206.31,499.847,204.84z"/>
	<path fill-rule="evenodd" clip-rule="evenodd" fill="#82E8F0" d="M498.878,209.852c0.065,7.053,0.065,7.053,6.888,7.055
		c4.655,0.001,9.311,0.002,13.965,0.002c1.889,1.939,1.769,3.953,0.223,6.02c-6.581,2.27-13.036,4.965-19.999,5.948
		C498.434,222.6,496.705,216.336,498.878,209.852z"/>
	<path fill-rule="evenodd" clip-rule="evenodd" fill="#83EAF0" d="M592.781,216.9c0.423,4.507-0.42,8.822-1.983,13.026
		c-4.116,4.246-8.926,1.839-13.528,1.417c-2.553-3.587,1.604-6.396,1.132-9.749c1.787-2.272,2.664-5.432,5.997-6.231
		C587.214,215.758,590.268,214.863,592.781,216.9z"/>
	<path fill-rule="evenodd" clip-rule="evenodd" fill="#87F0F1" d="M576.78,230.867c2.751-1.405,5.463,0.488,8.243,0.095
		c1.943-0.276,3.987,0.121,5.775-1.035c-1.038,4.433-2.585,8.618-5.769,12.02c-5.455-0.199-10.967,0.44-16.329-1.115
		C570.275,236.602,573.12,233.404,576.78,230.867z"/>
	<path fill-rule="evenodd" clip-rule="evenodd" fill="#7EE2EF" d="M592.781,216.9c-2.951-0.417-6.098,0.976-8.882-0.966
		c-0.92-5.153-0.701-10.356-0.687-15.552c1.385-2.044,3.537-2.395,5.754-2.603C592.1,203.783,593.297,210.171,592.781,216.9z"/>
	<path fill-rule="evenodd" clip-rule="evenodd" fill="#78D8ED" d="M588.967,197.78c-1.334,1.789-3.259,2.153-5.314,2.207
		c-3.888-5.073-7.811-10.123-10.846-15.782c0.774-1.775,3.451-1.112,4.026-3.141C583.101,185.022,586.132,191.33,588.967,197.78z"/>
	<path fill-rule="evenodd" clip-rule="evenodd" fill="#74D3EC" d="M375.872,183.848c15.349-18.41,48.695-20.271,65.644-3.62
		c1.88,1.845,3.514,3.94,5.262,5.92c-0.652,2.715-2.874,2.429-4.881,2.561c-2.644-0.708-4.496-2.687-6.625-4.207
		c-8.777-6.267-15.556-5.704-23.141,1.997c-0.471,0.478-1.016,0.832-1.647,1.072c-0.844,0.217-1.677,0.167-2.515-0.037
		c-6.776-2.073-13.729-0.738-20.591-1.086c-2.462-0.125-4.949,0.156-7.395-0.146C378.342,186.1,376.142,186.488,375.872,183.848z"/>
	<path fill-rule="evenodd" clip-rule="evenodd" fill="#8BF7F3" d="M446.096,247.001c-3.468,4.036-6.973,8.027-12.126,10.023
		c-10.696-1.08-21.425-0.368-32.137-0.602c-2.436-0.053-4.998,0.332-7.074-1.49c-1.476-4.889,1.292-8.845,2.888-13.059
		c1.525-0.753,2.926-0.103,4.249,0.519c7.168,3.367,14.5,4.187,22.113,1.677c1.096-0.36,2.277-0.345,3.44-0.194
		c4.209,0.981,8.492,0.291,12.729,0.582C442.429,244.61,444.883,244.391,446.096,247.001z"/>
	<path fill-rule="evenodd" clip-rule="evenodd" fill="#78D9ED" d="M375.872,183.848c1.433,1.689,3.389,1.017,5.129,1.033
		c7.293,0.07,14.586,0.015,21.879,0.041c2.184,0.008,4.224,0.59,6.028,1.869c-0.819,1.653-2.498,2.035-3.998,2.617
		c-4.854,1.886-8.811,4.959-12.214,8.853c-1.229,1.407-2.179,3.479-4.706,2.783c-4.579-1.187-9.251-0.47-13.873-0.714
		c-2.61-0.138-5.404,0.196-7.192-2.421C368.633,192.412,371.772,187.825,375.872,183.848z"/>
	<path fill-rule="evenodd" clip-rule="evenodd" fill="#ADF9FE" d="M375.907,247.999c-6.019-5.005-9.18-11.658-11.006-19.08
		c6.122-3.618,12.952-5.056,19.805-6.43c3.627,3.194,4.288,7.875,6.02,12.023C386.915,240.243,382.189,244.977,375.907,247.999z"/>
	<path fill-rule="evenodd" clip-rule="evenodd" fill="#81E7F0" d="M384.942,222.906c-6.547,2.45-13.163,4.67-20.041,6.012
		c-1.781-6.614-3.089-13.252-1.005-20.061c4.13,2.135,8.601,1.397,12.97,1.58c2.876,0.12,5.931-0.628,8.479,1.47
		C386.781,215.632,387.276,219.322,384.942,222.906z"/>
	<path fill-rule="evenodd" clip-rule="evenodd" fill="#D3F4FB" d="M375.907,247.999c4.729-4.481,9.46-8.963,14.19-13.443
		c3.856,1.228,6.2,4.058,7.954,7.512c-0.042,4.21-2.463,7.789-3.144,11.83c-0.612,2.282-0.034,4.73-0.967,6.968
		C386.994,257.889,380.49,254.289,375.907,247.999z"/>
	<path fill-rule="evenodd" clip-rule="evenodd" fill="#7CE0EE" d="M384.795,211.909c-5.715-0.001-11.431-0.054-17.145,0.023
		c-2.231,0.029-3.962-0.261-3.754-3.074c-0.153-3.972,1.088-7.557,3.028-10.949c5.768,1.83,11.707,0.643,17.556,1.023
		c1.622,0.106,3.811-0.883,4.395,1.825C389.089,205.05,387.718,208.764,384.795,211.909z"/>
	<path fill-rule="evenodd" clip-rule="evenodd" fill="#8EFCF4" d="M393.941,260.865c-1.781-2.614-0.496-4.804,0.967-6.968
		c1.455,1.628,3.393,0.963,5.125,0.975c9.228,0.063,18.458,0.042,27.688,0.021c2.346-0.006,4.645,0.011,6.248,2.131
		C421.275,265.054,407.813,265.082,393.941,260.865z"/>
	<path fill-rule="evenodd" clip-rule="evenodd" fill="#88F3F2" d="M446.096,247.001c-3.227-1.87-6.766-0.847-10.165-1.094
		c-3.079-0.224-6.281,0.637-9.187-1.074c2.157-4.345,7.431-5.25,10.055-9.122c0.918-1.355,2.148-2.563,4.049-2.529
		c4.289,0.902,8.938-0.935,12.99,1.718C452.386,239.655,449.578,243.545,446.096,247.001z"/>
	<path fill-rule="evenodd" clip-rule="evenodd" fill="#84ECF0" d="M453.838,234.899c-4.656-0.43-9.448,1.009-13.989-1.015
		c0.423-4.768,2.155-8.991,5.244-12.658c4.136-1.181,8.677-0.118,12.646-2.26C457.683,224.582,456.369,229.89,453.838,234.899z"/>
	<path fill-rule="evenodd" clip-rule="evenodd" fill="#80E5EF" d="M457.738,218.967c-0.951,2.014-2.198,3.265-4.773,3.005
		c-2.72-0.274-5.493-0.021-8.242,0.003c-0.578,0.243-0.929,0.057-1.053-0.558c3.332-4.696,4.828-10.09,5.917-15.64
		c1.905-1.326,4.14-1.568,6.342-1.914C458.099,208.71,458.087,213.817,457.738,218.967z"/>
	<path fill-rule="evenodd" clip-rule="evenodd" fill="#7ADBEE" d="M455.929,203.863c-1.274,2.792-3.813,1.874-5.983,2.04
		c-3.054-5.83-6.344-11.55-8.294-17.891c1.709-0.622,3.419-1.245,5.126-1.866C451.843,191.012,454.311,197.219,455.929,203.863z"/>
	<path fill-rule="evenodd" clip-rule="evenodd" fill="#FEFEFE" d="M572.807,184.205c4.584,4.596,8.559,9.609,10.848,15.782
		c1.257,5.297,1.947,10.604,0.245,15.946c-1.676,1.818-2.435,4.426-4.839,5.614c-0.737,2.552-2.994,2.91-5.071,3.355
		c-3.514,0.753-6.909,0.141-10.217-1.196c-12.33-4.983-20.905-18.098-20.217-30.913c0.118-2.208,0.397-4.305,2.245-5.823
		c1.095-1.664,2.188-3.328,3.283-4.991C557.604,176.206,565.271,179.498,572.807,184.205z"/>
	<path fill-rule="evenodd" clip-rule="evenodd" d="M545.801,186.971c-3.62,15.414,5.722,31.96,20.42,36.193
		c4.52,1.302,8.845,1.214,12.838-1.615c1.033,3.544-1.322,6.261-2.278,9.318c-2.12,3.786-5.064,6.903-8.079,9.964
		c-11.217,7.435-22.796,8.015-34.734,1.841c-2.778-2.591-5.557-5.182-8.335-7.772c-2.287-3.804-4.378-7.7-5.679-11.973
		c-0.074-2.006-0.148-4.012-0.223-6.019c0.413-3.278,0.827-6.556,1.24-9.835c2.349-4.889,5.087-9.521,8.918-13.425
		C534.837,190.575,539.634,187.14,545.801,186.971z"/>
	<path fill-rule="evenodd" clip-rule="evenodd" d="M444.092,221.616c0.113,0.291,0.323,0.41,0.631,0.358
		c-0.916,4.26-2.532,8.232-4.874,11.91c-3.406,4.8-8.04,8.134-13.104,10.948c-9.982,3.405-19.563,2.648-28.694-2.767
		c-2.649-2.503-5.302-5.008-7.952-7.511c-1.719-3.884-3.438-7.766-5.155-11.649c-0.05-3.665-0.099-7.331-0.147-10.997
		c1.359-3.717,2.72-7.434,4.08-11.151c4.962-7.116,11.632-11.783,20.033-13.967c0.612,0.065,1.225,0.13,1.837,0.194
		c1.212,2.38,0.379,4.897,0.441,7.343c0.296,11.547,6.146,19.711,15.631,25.525c4.231,2.594,8.921,3.579,13.872,1.942
		C441.787,221.434,442.929,221.115,444.092,221.616z"/>
	<path fill-rule="evenodd" clip-rule="evenodd" fill="#FEFEFE" d="M444.092,221.616c-5.135,3.118-10.352,2.888-15.739,0.603
		c-13.454-5.706-21.317-21.357-17.607-35.232c3.965-9.009,14.676-10.534,24.302-4.228c2.344,1.535,4.411,3.49,6.605,5.253
		c3.905,5.435,7.06,11.218,8.293,17.892C450.145,211.943,449.042,217.497,444.092,221.616z"/>
</g>
</svg>
