<?xml version="1.0" encoding="utf-8"?>
<!-- Generator: Adobe Illustrator 16.0.3, SVG Export Plug-In . SVG Version: 6.00 Build 0)  -->
<!DOCTYPE svg PUBLIC "-//W3C//DTD SVG 1.1//EN" "http://www.w3.org/Graphics/SVG/1.1/DTD/svg11.dtd">
<svg version="1.1" id="Layer_1" xmlns="http://www.w3.org/2000/svg" xmlns:xlink="http://www.w3.org/1999/xlink" x="0px" y="0px"
	 width="960px" height="560px" viewBox="0 0 960 560" enable-background="new 0 0 960 560" xml:space="preserve">
<path fill-rule="evenodd" clip-rule="evenodd" fill="#C2ECEA" d="M246,485.873c0.292-0.019,0.585-0.031,0.878-0.038
	c2.347,3.377,2.416,6.741-0.063,10.089l-0.411,0.031L246,495.871C246,492.539,246,489.205,246,485.873z"/>
<path fill-rule="evenodd" clip-rule="evenodd" fill="#00B0AB" d="M246.814,495.924c0.021-3.363,0.042-6.727,0.063-10.089
	c1.671-28.6,5.168-57.023,8.445-85.459c4.038-35.049,8.804-70.012,14.711-104.798c8.996-52.98,18.659-105.832,36.979-156.604
	c6.113-16.938,13.098-33.532,25.469-47.123c16.681-18.323,37.585-30.207,60.692-38.087c60.942-20.784,122.002-21.573,182.052,2.774
	c52.88,21.44,85.458,60.864,98.833,116.586c10.804,45.009,19.602,90.342,26.063,136.164c6.468,45.856,10.899,91.895,12.544,138.169
	c0.721,20.295,0.859,40.642-2.73,60.773c-0.406,2.281-1.042,4.542-1.797,6.735c-3.561,10.357-13.365,12.787-21.515,5.387
	c-6.13-5.564-10.383-12.542-14.653-19.501c-8.35-13.608-15.689-27.857-25.631-40.46c-2.693-3.414-5.553-6.658-9.117-9.19
	c-5.431-3.858-8.788-3.813-13.916,0.492c-9.381,7.875-16.695,17.628-24.263,27.14c-9.326,11.722-17.955,24.031-28.974,34.323
	c-0.244,0.228-0.473,0.471-0.721,0.693c-13.361,12.006-22.589,11.872-35.498-0.731c-10.633-10.381-19.571-22.249-29.109-33.59
	c-7.396-8.794-14.627-17.744-23.199-25.463c-7.958-7.165-9.146-7.163-16.221,1.036c-7.52,8.716-13.711,18.423-20.264,27.856
	c-7.597,10.939-14.913,22.103-24.396,31.578c-1.761,1.759-3.667,3.408-5.678,4.871c-6.983,5.084-13.247,4.996-20.161-0.188
	c-5.948-4.46-10.331-10.362-14.672-16.262c-8.781-11.931-16.519-24.616-26.086-35.979c-2.689-3.192-5.49-6.27-8.872-8.746
	c-5.364-3.927-7.773-3.855-12.741,0.571c-8.37,7.458-15.142,16.363-22.342,24.88c-9.991,11.819-19.367,24.219-31.477,34.064
	c-4.408,3.582-8.98,6.601-15.269,6.224c-7.439-0.446-10.637-2.29-13.459-9.433C247.543,508.561,247.178,502.24,246.814,495.924z"/>
<path fill-rule="evenodd" clip-rule="evenodd" fill="#00FEDD" d="M701.023,460.448c-0.221,16.646,0.85,31.992-2.805,47.052
	c-0.422,1.737-0.158,4.271-2.018,4.769c-2.162,0.578-3.377-1.876-4.525-3.338c-7.314-9.315-13.021-19.68-19.039-29.83
	c-6.447-10.879-12.707-21.958-21.451-31.15c-10.342-10.871-23.379-17.425-38.825-2.203c-12.746,12.561-23.112,27.012-34.223,40.88
	c-5.844,7.295-12.097,14.182-18.978,20.48c-5.648,5.171-9.172,4.979-14.676-0.174c-12.064-11.299-21.893-24.55-32.568-37.064
	c-7.97-9.344-15.653-18.961-25.256-26.801c-11.457-9.352-20.814-7.899-30.55,4.48c-11.726,14.911-21.665,31.083-33.073,46.212
	c-4.12,5.463-8.711,10.47-13.612,15.241c-3.183,3.098-5.838,2.981-8.93-0.083c-7.616-7.548-13.438-16.465-19.553-25.163
	c-7.925-11.273-15.367-22.9-25.711-32.282c-11.337-10.282-21.924-10.21-32.844,0.532c-12.596,12.391-22.777,26.862-34.512,39.99
	c-5.985,6.696-11.906,13.517-19.298,18.742c-5.21,3.681-7.068,2.838-8.653-3.216c-3.187-12.177-1.406-24.465-0.58-36.67
	c0.75-11.064,2.418-22.065,3.621-33.101c1.438-13.184,2.647-26.395,4.255-39.556c1.728-14.141,3.721-28.25,5.745-42.353
	c2.988-20.829,5.781-41.695,9.244-62.447c4.994-29.924,10.653-59.733,17.783-89.236c6.72-27.81,14.417-55.312,26.23-81.485
	c8.67-19.209,22.972-33.181,40.858-43.752c24.262-14.34,50.707-22.146,78.457-26.036c13.669-1.916,27.406-3.335,41.187-2.778
	c33.313,1.344,65.724,7.239,95.825,22.232c40.568,20.206,66.652,52.367,78.234,96.335c10.575,40.14,18.484,80.82,24.944,121.78
	c3.819,24.221,6.944,48.554,9.292,72.979c2.064,21.469,4.012,42.928,5.187,64.479C700.823,439.236,700.494,450.53,701.023,460.448z"
	/>
<path fill-rule="evenodd" clip-rule="evenodd" fill="#FEFEFE" d="M526.266,287.669c-16.279-12.95-27.613-29.302-32.557-49.546
	c-8.371-34.271-2.693-65.856,21.879-91.952c32.857-34.894,83.99-30.812,112.592,7.817c27.842,37.606,24.842,96.997-13.283,130.162
	c-1.949,2.017-4.045,0.068-6.066,0.227c-14.043-1.567-28.027-3.479-42.24-3.106c-11.775,0.309-23.158,2.188-34.266,6.019
	C530.375,287.961,528.396,289.366,526.266,287.669z"/>
<path fill-rule="evenodd" clip-rule="evenodd" fill="#FEFEFE" d="M349.307,278.746c-13.631-15.113-22.456-32.604-24.823-52.88
	c-3.811-32.643,4.186-61.77,28.984-84.347c31.265-28.467,75.884-24.901,103.942,7.424c32.223,37.123,29.642,97.588-5.672,131.741
	c-2.744,2.654-5.801,4.983-8.713,7.463c-0.614,0.576-1.536,0.197-2.172,0.7c-0.338-0.298-0.677-0.595-1.015-0.893
	c-15.457-6.334-31.507-10.047-48.22-10.574c-12.428-0.393-24.831-0.014-37.154,1.939
	C352.808,279.582,350.843,280.467,349.307,278.746z"/>
<path fill-rule="evenodd" clip-rule="evenodd" fill="#00B0AB" d="M555.827,290.835c-2.552,20.992-8.563,39.775-17.324,57.577
	c-7.077,14.381-15.626,27.788-29.379,37.108c-16.294,11.041-33.543,11.253-50.817,3.874c-22.537-9.627-35.241-28.559-44.131-50.396
	c-5.47-13.438-8.754-27.387-8.219-42.822c7.515,7.751,14.546,14.902,23.409,20.056c11.659,6.778,24.298,9.725,37.499,10.571
	c28.207,1.808,52.207-9.286,74.591-24.968C546.178,298.529,550.627,294.832,555.827,290.835z"/>
<path fill-rule="evenodd" clip-rule="evenodd" fill="#01B1AC" d="M526.266,287.669c9.148-2.851,18.216-5.874,27.852-6.953
	c18.838-2.107,37.402-0.61,55.844,3.367c0.215,0.201,0.286,0.401,0.215,0.603c-0.072,0.2-0.143,0.301-0.215,0.301
	c-9.463,0.226-18.84-1.321-28.324-1.156c-20.959,0.364-41.627,2.364-61.609,9.154c-1.038,0.367-1.238-0.089-0.978-0.997
	C521.455,290.548,523.86,289.108,526.266,287.669z"/>
<path fill-rule="evenodd" clip-rule="evenodd" fill="#01B1AC" d="M349.307,278.746c14.593-2.297,29.247-3.717,44.042-2.843
	c15.001,0.888,29.539,3.836,43.328,9.983c1.143,0.509,2.618,0.605,3.161,2.068c-24.464-7.408-49.602-8.661-74.91-7.926
	c-6.291,0.183-12.572,1.015-18.89,0.95c-1.079,0.501-2.046,0.787-1.955-1C345.823,279.568,347.565,279.157,349.307,278.746z"/>
<path fill-rule="evenodd" clip-rule="evenodd" fill="#19D0C2" d="M609.961,284.986c-0.01-0.301-0.011-0.602,0-0.903
	c1.652-0.375,3.279,1.051,4.937,0.066c0.003,0.599,2.479,1.166,0.24,1.642C613.512,286.137,611.483,286.491,609.961,284.986z"/>
<path fill-rule="evenodd" clip-rule="evenodd" fill="#00D3C1" d="M344.082,279.979c0.651,0.333,1.303,0.666,1.955,0.999
	c-2.224,1.642-4.639,0.772-7.104,0.246C340.649,280.81,342.366,280.395,344.082,279.979z"/>
<path fill-rule="evenodd" clip-rule="evenodd" fill="#00E4CC" d="M440.853,288.848c0.724-0.233,1.448-0.467,2.172-0.7
	c0.51,0.555,1.02,1.11,1.53,1.666C443.008,290.689,442.105,289.098,440.853,288.848z"/>
<path fill-rule="evenodd" clip-rule="evenodd" fill="#00CCBD" d="M519.05,291.987c0.325,0.332,0.651,0.663,0.978,0.996
	c-1.032,0.616-2.065,1.232-3.398,2.028C516.764,292.95,517.932,292.492,519.05,291.987z"/>
<path fill-rule="evenodd" clip-rule="evenodd" fill="#14ABBA" d="M514.986,166.211c16.4-14.483,46.805-13.91,62.624,1.215
	c1.526,1.459,2.85,3.132,4.267,4.706c-1.146,2.835-3.691,2.412-5.986,2.58c-1.182-0.232-2.125-0.909-3.046-1.633
	c-6.431-5.057-13.342-7.411-21.341-3.863c-0.907,0.402-1.918,0.55-2.936,0.578c-9.454-0.674-18.92-0.072-28.363-0.458
	C518.186,169.254,514.857,170.314,514.986,166.211z"/>
<path fill-rule="evenodd" clip-rule="evenodd" fill="#22DCD4" d="M584.01,235.927c-3.258,4.545-7.179,8.352-12.204,10.923
	c-8.903,1.356-17.86,0.438-26.789,0.553c-5.114,0.066-10.3,0.761-15.362-0.684c-2.26-3.66-0.985-9.369,3.166-14.209
	c1.146-0.476,2.308-0.34,3.38,0.144c8.622,3.881,17.342,3.756,26.155,0.739c0.947-0.325,1.943-0.405,2.949-0.282
	c4.24,0.61,8.508,0.101,12.752,0.347C580.303,233.587,582.764,233.332,584.01,235.927z"/>
<path fill-rule="evenodd" clip-rule="evenodd" fill="#16B2BE" d="M514.986,166.211c0.759,2.619,2.947,1.641,4.571,1.66
	c7.77,0.094,15.541,0.097,23.312,0.009c2.35-0.026,4.59,0.281,6.795,1.021c0.355,3.641-1.989,5.624-4.574,7.467
	c-4.762-0.156-8.641,2.044-12.427,4.575c-1.731,1.157-3.287,3.036-5.81,1.982c-5.734-1.027-11.525-0.2-17.267-0.606
	c-2.466-0.175-5.587,0.295-5.748-3.662C506.43,173.501,510.369,169.552,514.986,166.211z"/>
<path fill-rule="evenodd" clip-rule="evenodd" fill="#17ECE2" d="M508.672,238.03c-5.389-5.35-8.922-11.729-10.63-19.124
	c6.249-4.294,13.45-5.908,20.712-7.354c3.16,3.9,4.805,8.561,6.562,13.167c-3.823,4.216-7.903,8.177-12.275,11.817
	C511.859,237.521,510.556,238.805,508.672,238.03z"/>
<path fill-rule="evenodd" clip-rule="evenodd" fill="#00FEE5" d="M508.672,238.03c6.463-3.027,9.807-9.876,16.086-13.125
	c3.496,1.801,6.62,4.002,8.346,7.716c-1.621,4.354-3.521,8.618-4.184,13.273c0.248,2.016-0.194,3.758-1.971,4.972
	C519.527,248.48,513.561,244.023,508.672,238.03z"/>
<path fill-rule="evenodd" clip-rule="evenodd" fill="#19BBC2" d="M503.839,178.656c0.954,2.358,2.984,2.273,5.024,2.264
	c4.988-0.026,9.979-0.055,14.965,0.019c1.525,0.022,3.489-0.713,4.121,1.66c-1.455,4.145-4.28,7.549-6.197,11.446
	c-0.553,1.125-1.638,1.495-2.88,1.381c-5.672,0.011-11.345,0.204-16.995-0.164c-1.836-0.12-4.895,0.368-3.918-3.372
	C498.732,186.951,500.775,182.577,503.839,178.656z"/>
<path fill-rule="evenodd" clip-rule="evenodd" fill="#24E1D6" d="M526.949,250.866c0.432-1.746,0.678-3.567,1.971-4.972
	c11.703,0.003,23.406,0.047,35.11-0.022c2.659-0.016,5.238,0.214,7.775,0.978C557.548,255.938,542.604,257.357,526.949,250.866z"/>
<path fill-rule="evenodd" clip-rule="evenodd" fill="#1BC2C6" d="M497.959,191.89c0.334,2.394,2.184,2.002,3.768,2.01
	c4.574,0.025,9.149-0.028,13.723,0.031c1.566,0.02,3.324-0.523,4.544,1.066c0.572,5.339,1.362,10.69-0.807,15.888
	c-4.762-4.595-10.759-3.364-16.472-3.51c-2.278-0.059-4.677,0.309-6.58-1.471C495.701,201.097,496.055,196.392,497.959,191.89z"/>
<path fill-rule="evenodd" clip-rule="evenodd" fill="#20D4D0" d="M584.01,235.927c-4.211-1.99-8.691-0.578-13.021-1.038
	c-2.027-0.216-4.277,0.811-6.035-1.014c-0.152-0.501-0.172-1.108,0.226-1.383c5.114-3.521,8.796-8.533,13.282-12.716
	c4.617-0.238,9.309-1.338,13.686,1.184C590.736,226.657,587.971,231.616,584.01,235.927z"/>
<path fill-rule="evenodd" clip-rule="evenodd" fill="#1CC9CA" d="M496.135,205.904c5.094,0.001,10.207,0.268,15.277-0.08
	c4.086-0.28,6.979,0.373,7.351,5.089c0.272,0.21,0.374,0.431,0.302,0.662c-0.073,0.237-0.152,0.355-0.236,0.355
	c-6.93,2.325-13.857,4.649-20.786,6.976C496.398,214.72,495.7,210.395,496.135,205.904z"/>
<path fill-rule="evenodd" clip-rule="evenodd" fill="#1ECACA" d="M592.146,220.96c-4.71-0.017-9.42-0.033-14.129-0.05
	c-1.473-3.763,1.666-6.627,1.94-10.053c1.813-2.629,2.535-6.203,6.222-7.226c2.701,1.401,6.098,0.182,8.618,2.275
	C595.129,211.139,594.268,216.16,592.146,220.96z"/>
<path fill-rule="evenodd" clip-rule="evenodd" fill="#1BB8C1" d="M575.97,173.908c1.969-0.592,3.938-1.185,5.907-1.776
	c6.092,5.55,9.586,12.524,11.246,20.505c-2.007,3.209-3.34,3.29-7.353,0.46c-2.882-5.947-4.942-12.357-9.642-17.312
	C575.659,175.29,575.68,174.564,575.97,173.908z"/>
<path fill-rule="evenodd" clip-rule="evenodd" fill="#1FC3C7" d="M586.18,191.901c2.072,2.519,4.361,3.002,6.943,0.735
	c1.703,4.279,2.086,8.725,1.675,13.271c-2.914-0.971-6.83,2.147-8.921-2.186C583.816,199.727,583.475,195.774,586.18,191.901z"/>
<path fill-rule="evenodd" clip-rule="evenodd" fill="#22DCD4" d="M462.769,236.857c-2.585,3.806-5.921,6.783-9.95,8.993
	c-7.072,1.372-14.213,0.378-21.319,0.587c-5.482,0.16-10.974,0.076-16.461,0.007c-2.145-0.027-4.36,0.097-6.17-1.43
	c-2.043-5.035,1.417-8.876,2.87-13.154c1.21-0.54,2.29-0.016,3.329,0.49c7.871,3.835,16.003,4.102,24.333,1.853
	c1.296-0.35,2.615-0.503,3.962-0.346c4.428,0.957,8.924,0.354,13.379,0.611C458.978,234.599,461.526,234.137,462.769,236.857z"/>
<path fill-rule="evenodd" clip-rule="evenodd" fill="#15ABBA" d="M399.02,163.087c13.915-8.77,28.619-9.518,43.843-4.148
	c4.458,1.571,8.057,4.736,12.042,7.187c-1.855,3.263-5.199,2.459-8.069,2.965c-3.915-0.582-7.71-1.869-11.713-1.967
	c-8.595-1.423-17.25-0.338-25.868-0.664c-2.158-0.082-4.335,0.129-6.473-0.229C400.966,165.928,399.072,165.567,399.02,163.087z"/>
<path fill-rule="evenodd" clip-rule="evenodd" fill="#17ECE2" d="M388.958,238.932c-5.913-5.489-9.421-12.369-11.584-20.027
	c6.395-4.534,13.594-6.46,21.35-6.591c2.936,3.563,4.424,7.811,5.698,12.157C400.596,230.708,394.526,234.551,388.958,238.932z"/>
<path fill-rule="evenodd" clip-rule="evenodd" fill="#23E0D6" d="M408.972,243.889c1.46,1.648,3.413,0.975,5.156,0.984
	c10.288,0.062,20.576,0.075,30.864,0c2.675-0.02,5.274,0.202,7.828,0.978c-14.717,10.14-30.345,11.58-46.824,4.91
	C405.685,247.905,405.648,245.169,408.972,243.889z"/>
<path fill-rule="evenodd" clip-rule="evenodd" fill="#00FEE5" d="M408.972,243.889c-1.786,1.947-1.591,4.752-2.978,6.872
	c-6.82-2.299-12.405-6.377-17.037-11.829c4.146-5.656,10.013-9.462,15.131-14.076c4.13,0.796,6.249,3.782,7.911,7.265
	C412.445,236.418,409.085,239.734,408.972,243.889z"/>
<path fill-rule="evenodd" clip-rule="evenodd" fill="#1CC7C9" d="M398.733,212.936c-7.449,0.814-14.257,3.916-21.359,5.969
	c-1.588-6.264-3.18-12.527-1.419-19.041c7.369-0.492,14.751-1.447,22.046,0.652C399.869,204.559,400.501,208.676,398.733,212.936z"
	/>
<path fill-rule="evenodd" clip-rule="evenodd" fill="#16B3BF" d="M383.029,179.04c1.506-3.655,4.376-6.265,6.971-9.086
	c9.437,0.858,18.898,0.246,28.345,0.461c2.616,0.06,5.371-0.335,7.54,1.73c0.794,1.083,0.789,2.125-0.168,3.112
	c-5.619,1.336-10.734,3.797-15.535,6.98c-1.239,0.821-2.599,1.417-4.167,0.912c-6.154-1.467-12.425-0.285-18.603-0.876
	C385.535,182.095,382.418,182.887,383.029,179.04z"/>
<path fill-rule="evenodd" clip-rule="evenodd" fill="#15AFBC" d="M425.943,172.903c-2.784-1.641-5.849-0.925-8.795-0.962
	c-7.316-0.09-14.634-0.022-21.952-0.033c-1.966-0.004-4.098,0.382-5.196-1.954c2.724-2.66,5.533-5.21,9.021-6.867
	c1.181,2.219,3.287,1.818,5.229,1.821c7.903,0.012,15.808,0.072,23.71-0.031c2.833-0.037,5.56,0.282,8.242,1.138
	C433.248,169.004,429.642,171.022,425.943,172.903z"/>
<path fill-rule="evenodd" clip-rule="evenodd" fill="#18BAC2" d="M383.029,179.04c0.417,2.47,2.378,1.832,3.904,1.85
	c5.11,0.057,10.221,0.035,15.333,0.015c1.842-0.008,3.688-0.105,4.708,1.895c-1.272,3.933-2.396,7.98-7.082,9.338
	c-5.412,0.524-10.831,0.291-16.245,0.189c-2.15-0.041-4.295-0.352-5.63-2.415C378.731,185.846,380.602,182.315,383.029,179.04z"/>
<path fill-rule="evenodd" clip-rule="evenodd" fill="#1ABFC5" d="M378.017,189.911c7.669,2.087,15.514,0.433,23.25,1.09
	c-0.175,3.604,0.562,7.508-3.256,9.914c-5.805-0.002-11.609,0.029-17.414-0.029c-1.591-0.016-3.368,0.539-4.642-1.022
	C375.788,196.368,376.448,193.045,378.017,189.911z"/>
<path fill-rule="evenodd" clip-rule="evenodd" fill="#20D6D0" d="M462.769,236.857c-4.148-1.926-8.538-0.609-12.805-0.921
	c-2.473-0.181-5.016,0.253-7.28-1.17c3.625-4.551,8.116-8.036,13.231-10.771c4.548,1.119,9.51-0.785,13.838,1.902
	C468.188,230.038,465.89,233.709,462.769,236.857z"/>
<path fill-rule="evenodd" clip-rule="evenodd" fill="#1ECECC" d="M469.753,225.898c-4.979-0.201-10.033,0.684-14.906-1.038
	c0.302-4.659,2.685-8.317,5.634-11.711c4.406-0.933,8.825-1.018,13.256-0.196C473.311,217.545,471.906,221.837,469.753,225.898z"/>
<path fill-rule="evenodd" clip-rule="evenodd" fill="#1CC1C6" d="M472.055,190.747c1.708,3.468,2.137,7.169,1.984,10.974
	c0.523,1.745,1.18,3.799-0.844,4.765c-2.907,1.386-5.979,1.566-8.637-0.872c-0.996-4.567-0.254-9.028,0.858-13.467
	C467.286,190.068,469.72,190.643,472.055,190.747z"/>
<path fill-rule="evenodd" clip-rule="evenodd" fill="#20C8CA" d="M464.963,204.883c6.099,2.351,8.462,1.527,9.076-3.162
	c1.356,3.783,0.141,7.497-0.301,11.232c-4.397,1.939-9.034,0.506-13.537,0.959c-0.758-0.411-1.022-1.108-1.114-1.908
	C460.079,208.835,461.609,206.106,464.963,204.883z"/>
<path fill-rule="evenodd" clip-rule="evenodd" fill="#18B0BD" d="M446.99,167.907c2.638-0.594,5.277-1.188,7.915-1.782
	c4.866,2.054,6.806,6.962,10.201,10.451c0.864,3.798-1.908,3.278-4.093,3.461C455.96,176.441,450.941,172.791,446.99,167.907z"/>
<path fill-rule="evenodd" clip-rule="evenodd" fill="#1BB9C2" d="M459.85,178.95c1.93-0.396,4.7,1.065,5.256-2.374
	c3.902,3.945,5.335,9.102,6.949,14.171c-1.821,2.096-4.328,0.739-6.457,1.28C462.731,188.087,460.379,183.92,459.85,178.95z"/>
<path fill-rule="evenodd" clip-rule="evenodd" fill="#FEFEFE" d="M481.89,334.079c10.614-0.662,20.806-3.359,30.919-6.433
	c1.236-0.271,1.869,0.537,2.23,1.457c3.241,8.245,6.715,16.407,9.035,24.984c0.167,0.616,0.254,1.288-0.008,1.929
	c-8.23,14.14-18.246,26.19-35.175,30.216c-3.95,0.938-7.917,0.758-11.899,0.418c-1.874-1.854-1.578-4.271-1.588-6.548
	c-0.058-12.908-0.077-25.817-0.002-38.728C475.438,335.11,475.801,334.794,481.89,334.079z"/>
<path fill-rule="evenodd" clip-rule="evenodd" fill="#FEFEFE" d="M471.987,385.819c-16.237-2.835-27.766-12.676-37.396-25.263
	c-1.799-2.352-3.213-4.998-4.804-7.508c-0.65-2.026-0.217-3.978,0.676-5.772c2.995-6.016,3.716-13.099,8.565-18.238
	c8.88,2.375,17.802,4.525,27.032,5.015c7.625,0.771,7.325-0.097,7.465,8.838c0.187,11.94,0.074,23.885,0.026,35.828
	C473.541,381.176,473.845,383.749,471.987,385.819z"/>
<path fill-rule="evenodd" clip-rule="evenodd" fill="#FDFEFE" d="M517.024,326.006c8.642-4.167,17.335-8.242,26.258-14.849
	c-4.505,14.892-9.344,28.188-16.577,40.542c-1.299,0.155-1.771-0.837-2.09-1.73c-2.453-6.891-5.281-13.644-7.606-20.581
	C516.643,328.293,516.377,327.129,517.024,326.006z"/>
<path fill-rule="evenodd" clip-rule="evenodd" fill="#FDFEFE" d="M426.107,346.955c-5.057-9.363-8.704-19.228-11.063-30.699
	c6.712,5.064,13.448,8.148,20.085,11.42c1.28,3.396-1.131,5.965-2.051,8.845c-0.852,2.662-1.905,5.278-3.134,7.793
	C429.21,345.817,428.708,348.014,426.107,346.955z"/>
<path fill-rule="evenodd" clip-rule="evenodd" fill="#D0D0D0" d="M471.987,385.819c0.017-14.437-0.165-28.877,0.161-43.305
	c0.108-4.818-0.31-8.319-6.089-8.462c5.279,0.009,10.557,0.017,15.832,0.026c-4.042,0.577-5.203,2.718-5.109,6.895
	c0.344,15.22,0.183,30.45,0.211,45.677C475.324,386.374,473.655,386.097,471.987,385.819z"/>
<path fill-rule="evenodd" clip-rule="evenodd" fill="#CCCCCC" d="M517.024,326.006c3.227,8.564,6.453,17.129,9.681,25.693
	c-0.879,1.439-1.76,2.879-2.639,4.317c-3.059-7.987-6.096-15.985-9.193-23.958c-0.586-1.509-0.723-3.25-2.065-4.412
	C514.213,327.1,515.619,326.553,517.024,326.006z"/>
<path fill-rule="evenodd" clip-rule="evenodd" fill="#CCCCCC" d="M426.107,346.955c2.354-0.357,2.376-2.448,3.019-4.072
	c2.005-5.067,4.003-10.139,6.003-15.207c1.3,0.454,2.599,0.908,3.898,1.362c-3.08,8.004-6.16,16.008-9.241,24.011
	C428.56,351.017,427.333,348.985,426.107,346.955z"/>
<path fill-rule="evenodd" clip-rule="evenodd" fill="#FEFEFE" d="M586.18,191.901c-0.101,3.939-0.201,7.88-0.303,11.82
	c-1.258,2.647-3.052,4.923-4.96,7.118c-1.054,2.267-3.146,2.866-5.326,3.176c-3.847,0.547-7.622,0.298-11.312-1.111
	c-13.021-4.975-22.068-19.552-20.625-33.385c0.148-1.42-0.073-3.104,1.805-3.723c0.881-2.617,2.68-4.674,4.205-6.896
	c10.186-5.772,18.466-1.541,26.306,5.008C580.936,179.019,584.376,184.995,586.18,191.901z"/>
<path fill-rule="evenodd" clip-rule="evenodd" d="M545.459,175.797c-3.941,12.496,4.816,30.025,19.193,35.907
	c5.472,2.24,10.981,2.031,16.266-0.864c0.188,3.69-1.991,6.697-2.9,10.07c-3.301,5.385-7.814,9.547-13.064,12.965
	c-10.814,4.611-21.443,4.488-31.85-1.254c-2.781-2.571-5.563-5.144-8.345-7.716c-2.631-4.025-4.583-8.362-5.931-12.975
	c-0.021-0.339-0.044-0.678-0.065-1.018c-0.124-5.346-0.462-10.71,1.23-15.916c2.728-4.084,3.736-9.272,7.956-12.398
	c4.13-2.747,8.027-5.923,12.995-7.132C542.469,175.097,544.083,173.96,545.459,175.797z"/>
<path fill-rule="evenodd" clip-rule="evenodd" d="M460.089,211.86c0.038,0.685,0.075,1.368,0.112,2.052
	c-1.271,3.9-3.142,7.508-5.354,10.948c-3.487,3.998-7.612,7.214-12.163,9.906c-10.617,3.624-20.899,3.362-30.685-2.646
	c-2.636-2.421-5.273-4.843-7.91-7.265c-2.148-3.81-4.339-7.602-5.355-11.92c-0.908-3.967-0.752-7.997-0.723-12.021
	c1.085-3.305,2.171-6.609,3.257-9.914c1.902-2.734,3.805-5.469,5.707-8.202c5.676-3.363,10.682-8.253,17.992-7.89
	c1.245,1.263,0.733,2.77,0.625,4.242c-0.983,13.424,5.501,22.844,16.247,29.838c3.911,2.546,8.391,2.976,12.979,2.445
	C456.591,211.229,458.431,210.503,460.089,211.86z"/>
<path fill-rule="evenodd" clip-rule="evenodd" fill="#FEFEFE" d="M460.089,211.86c-18.565,2.486-31.93-6.804-35.655-24.695
	c-0.867-4.162-0.271-8.198,0.531-12.256c0.762-0.456,0.977-1.179,0.978-2.006c2.5-3.666,6.097-5.696,10.258-6.889
	c3.75-0.246,7.203,1.202,10.789,1.893c4.937,2.924,9.425,6.371,12.86,11.043c2.573,4.071,4.663,8.354,5.748,13.077
	c0.85,4.338,0.238,8.604-0.634,12.855C463.338,207.209,461.713,209.534,460.089,211.86z"/>
</svg>
