<?xml version="1.0" encoding="UTF-8" standalone="no"?>
<svg
   xmlns:dc="http://purl.org/dc/elements/1.1/"
   xmlns:cc="http://creativecommons.org/ns#"
   xmlns:rdf="http://www.w3.org/1999/02/22-rdf-syntax-ns#"
   xmlns:svg="http://www.w3.org/2000/svg"
   xmlns="http://www.w3.org/2000/svg"
   viewBox="0 0 258.66666 258.66666"
   height="258.66666"
   width="258.66666"
   xml:space="preserve"
   id="svg2"
   version="1.1"><metadata
     id="metadata8"><rdf:RDF><cc:Work
         rdf:about=""><dc:format>image/svg+xml</dc:format><dc:type
           rdf:resource="http://purl.org/dc/dcmitype/StillImage" /></cc:Work></rdf:RDF></metadata><defs
     id="defs6" /><g
     transform="matrix(1.3333333,0,0,-1.3333333,0,258.66667)"
     id="g10"><g
       transform="scale(0.1)"
       id="g12"><path
         id="path14"
         style="fill:#ffffff;fill-opacity:1;fill-rule:evenodd;stroke:none"
         d="M 6.21875,1933.78 H 1933.78 V 6.21875 H 6.21875 V 1933.78" /><path
         id="path16"
         style="fill:#231f20;fill-opacity:1;fill-rule:nonzero;stroke:none"
         d="m 220.254,1115.21 c 1.211,0.27 2.453,0.54 3.742,0.79 31.426,6.32 57.844,3.6 78.008,-7.3 20.508,-11.09 34.336,-30.4 40.23,-57.05 h 0.024 c 0.152,-0.7 0.312,-1.46 0.472,-2.26 l 0.012,-0.06 c 1.063,-5.31 1.457,-10.79 1.238,-16.3 -0.214,-5.44 -1.042,-10.99 -2.425,-16.48 -7.043,-27.98 -28.789,-54.429 -58.524,-62.245 l -24.445,-6.426 15.996,-79.527 1.227,-6.075 -6.121,-1.187 -0.059,-0.012 c -5.012,-0.965 -10.727,-2.082 -17.125,-3.348 -4.984,-0.98 -10.551,-2.093 -16.93,-3.382 -29.554,-5.957 -57.465,-11.883 -83.73,-17.731 l -6.043,-1.344 -1.317,6.051 -51.9332,238.906 -1.2891,5.94 5.9453,1.37 h 0.0039 v 0.01 c 4.5471,1.1 10.0621,2.41 16.4181,3.91 4.684,1.11 10.262,2.42 16.699,3.91 28.742,6.67 58.766,13.31 89.93,19.83 z m 493.285,-57.34 109.027,-46.86 5.657,-2.43 -2.422,-5.65 -0.012,-0.03 v -0.02 c -2.969,-6.896 -6.406,-13.372 -10.269,-19.4 -3.856,-6.015 -8.137,-11.574 -12.801,-16.656 -23.949,-26.109 -57.817,-39.586 -96.84,-39.586 h -0.016 c -37.5,0.004 -71.55,15.305 -96.207,39.965 -24.664,24.66 -39.949,58.697 -39.961,96.187 v 0.04 0.01 c 0.008,37.5 15.301,71.54 39.965,96.21 24.66,24.66 58.695,39.95 96.192,39.96 h 0.027 0.023 c 22.848,0 45.18,-5.86 64.926,-16.5 3.223,-1.73 6.367,-3.59 9.414,-5.56 15.77,-10.18 29.508,-23.62 39.988,-39.67 l 3.293,-5.05 -4.984,-3.4 z m -283.391,82.88 166.93,-220.641 6.512,-8.597 -10.731,-1.242 -0.105,-0.012 c -12.016,-1.387 -24.395,-2.879 -37.098,-4.469 -13.597,-1.695 -25.836,-3.277 -36.672,-4.726 -62.183,-8.325 -122.675,-17.887 -180.671,-28.2 l -10.266,-1.824 3.367,9.879 87.973,258.102 3.75,10.99 7.011,-9.26" /><path
         id="path18"
         style="fill:#80d1da;fill-opacity:1;fill-rule:evenodd;stroke:none"
         d="m 700.789,1056.63 119.344,-51.29 c -20.317,-47.231 -62.453,-71.926 -114.254,-71.926 -71.606,0 -130.008,58.402 -130.008,130.006 0,71.61 58.402,130.01 130.008,130.01 43.672,0 85.316,-22.34 109.187,-58.91 z M 425.23,1137.04 592.16,916.398 C 503.23,906.129 417.617,893.238 337.25,878.941 Z m -203.652,-27.86 c 62.84,13.89 104.61,-8.84 115.098,-61 6.914,-34.36 -17.059,-77.891 -55.207,-87.918 -10.688,-2.809 -19.395,-5.094 -30.078,-7.907 5.714,-28.402 11.425,-56.808 17.14,-85.21 -41.066,-7.934 -80.496,-16.165 -118.011,-24.52 -17.317,79.637 -34.625,159.275 -51.938,238.915 38.703,9.31 79.816,18.61 122.996,27.64" /><path
         id="path20"
         style="fill:#231f20;fill-opacity:1;fill-rule:nonzero;stroke:none"
         d="m 265.828,1100.55 c 2.242,0.51 4.414,0.97 6.508,1.36 30.531,5.8 56.25,2.54 76,-8.93 19.973,-11.6 33.617,-31.38 39.766,-58.47 0.355,-1.58 0.683,-3.12 0.968,-4.63 l 0.012,-0.07 c 1.066,-5.64 1.465,-11.42 1.246,-17.19 -0.219,-5.78 -1.043,-11.63 -2.418,-17.417 -7.066,-29.656 -28.941,-57.605 -58.875,-65.723 l -24.793,-6.722 16.196,-85.313 1.136,-5.992 -5.984,-1.199 -0.059,-0.012 h -0.023 c -5.121,-1.012 -10.832,-2.152 -17.242,-3.453 -8.512,-1.715 -14.2,-2.871 -17.043,-3.461 -28.801,-5.941 -56.957,-12.082 -84.313,-18.336 l -6.133,-1.402 -1.269,6.18 -52.305,254.92 -1.195,5.85 5.805,1.39 0.046,0.01 0.004,-0.01 c 4.512,1.12 10.024,2.47 16.481,4.04 7.992,1.94 13.801,3.35 16.82,4.07 28.824,6.88 59.082,13.75 90.66,20.52 z m 488.465,-68.71 99.797,-54.633 4.941,-2.703 -2.211,-5.133 c -0.062,-0.137 -0.218,-0.469 -0.738,-1.637 -3.023,-6.75 -6.531,-12.98 -10.469,-18.703 -3.984,-5.785 -8.355,-11.008 -13.074,-15.668 -24.098,-23.836 -57.918,-34.707 -95.766,-34.445 -0.679,0.004 -1.293,0.016 -1.843,0.027 -10.254,0.2 -20.25,1.551 -29.86,3.914 -9.566,2.348 -18.715,5.727 -27.324,9.996 -43.918,21.79 -73.695,66.93 -73.695,119.675 0,0.62 0.004,1.21 0.012,1.79 v 0.02 c 0.441,36.21 14.144,69 36.8,92.81 22.727,23.89 54.426,38.73 90.77,38.97 0.597,0.01 1.199,0.01 1.797,0 0.695,0 1.336,-0.01 1.875,-0.03 6.418,-0.19 12.711,-1.11 18.843,-2.67 6.04,-1.53 11.95,-3.7 17.704,-6.4 28.433,-13.35 52.175,-39.64 69.355,-66.09 l 3.496,-5.38 -5.519,-3.28 z M 465.699,1137.8 648.43,892.984 l 6.34,-8.5 -10.54,-1.316 c -0.117,-0.016 -0.07,0 0,0.008 h -0.003 c -0.028,0 -0.055,-0.008 -0.094,-0.016 v -0.004 c -14.875,-1.84 -28.383,-3.574 -40.61,-5.195 -12.726,-1.695 -26.128,-3.547 -40.128,-5.539 -68.442,-9.746 -134.641,-20.781 -197.801,-32.602 l -10.289,-1.925 3.316,9.933 96.297,288.242 3.738,11.18 7.043,-9.45" /><path
         id="path22"
         style="fill:#ee2327;fill-opacity:1;fill-rule:evenodd;stroke:none"
         d="m 741.875,1031.63 109.273,-59.821 c -20.043,-46.454 -63.25,-67.067 -114.351,-66.719 -70.649,0.488 -126.57,56.797 -126.57,127.44 0,70.64 52.539,127.9 123.179,127.42 43.09,-0.3 79.094,-36.14 102.641,-72.37 z M 460.758,1134.11 643.484,889.289 C 546.141,877.262 452.426,862.332 364.453,845.871 Z m -193.653,-39.58 c 63.286,14.36 105.348,-10.15 115.915,-65.79 6.957,-36.67 -17.18,-82.881 -55.606,-93.306 -10.762,-2.918 -19.527,-5.293 -30.289,-8.211 5.754,-30.305 11.512,-60.61 17.266,-90.914 -41.352,-8.172 -81.067,-16.668 -118.852,-25.313 -17.437,84.977 -34.871,169.953 -52.309,254.924 38.981,9.66 80.387,19.28 123.875,28.61" /><path
         id="path24"
         style="fill:#231f20;fill-opacity:1;fill-rule:nonzero;stroke:none"
         d="m 1452.88,1119.21 73.29,-265.772 2.88,-10.438 -10.43,2.84 c 0,0 -0.01,0.008 -0.03,0.012 -0.01,0.003 -0.03,0.011 -0.04,0.015 0.01,-0.008 0.03,-0.012 0.02,-0.008 -11.82,2.993 -23.06,5.782 -33.69,8.356 -11,2.66 -22.49,5.375 -34.45,8.137 -59.61,13.75 -121.93,26.363 -185.77,37.019 l -10.75,1.797 7.08,8.285 181.27,212.117 7.53,8.81 z m 152.31,-25.5 82.2,-163.991 37.35,133.271 1.67,5.97 5.95,-1.7 0.04,-0.01 v -0.01 c 3.31,-0.93 6.09,-1.72 8.49,-2.4 3.27,-0.93 6.93,-1.98 10.85,-3.11 19.17,-5.53 46.72,-13.58 65.22,-19.03 l 5.88,-1.74 -1.7,-5.89 -69.08,-237.961 -1.71,-5.902 -5.88,1.68 c 0.02,-0.004 0.07,-0.02 0.12,-0.028 l -0.12,0.043 -0.01,-0.011 v -0.004 0.004 -0.004 h 0.01 c 0,0 -0.01,0 0,0.011 l -0.07,0.028 c -7.61,2.219 -16.07,4.644 -25.42,7.281 -7.88,2.223 -16.62,4.645 -26.33,7.293 -46.08,12.574 -95.8,25.055 -148.13,36.813 l -6.28,1.41 1.67,6.187 z m -578.1,91.83 111.81,-145.27 135.44,114.38 -24.53,-236.025 -0.66,-6.234 -6.23,0.785 c -40.77,5.133 -80.38,9.703 -119.57,13.668 -38.39,3.89 -76.86,7.222 -116.21,9.988 l -6.39,0.449 0.68,6.375 25.66,241.884" /><path
         id="path26"
         style="fill:#80d1da;fill-opacity:1;fill-rule:evenodd;stroke:none"
         d="m 1446.95,1117.57 73.28,-265.773 c -79.74,20.195 -165.69,38.82 -254.56,53.652 z m -415.17,51.82 106.18,-138 129.39,108.98 -23.66,-221.097 c -81.89,10.321 -158.69,18.293 -236.14,23.731 z m 575.13,-93.31 82.12,-163.353 41.65,148.593 c 16.77,-4.69 59.96,-17.29 84.55,-24.53 l -69.07,-237.97 c -59.53,17.36 -127.13,35.051 -200.29,51.5 l 61.04,225.76" /><path
         id="path28"
         style="fill:#231f20;fill-opacity:1;fill-rule:nonzero;stroke:none"
         d="m 1643.58,1082.29 80.62,-166.446 29.03,96.106 1.81,5.98 5.96,-1.88 0.04,-0.01 c 0.04,-0.01 2.78,-0.9 8.26,-2.67 5.02,-1.62 8.93,-2.89 10.55,-3.42 20.36,-6.63 46.73,-15.329 63.27,-20.829 l 5.62,-1.867 -1.61,-5.676 -67.03,-234.98 -1.77,-6.2 -6.09,2.028 -0.04,0.015 c -8.01,2.637 -16.24,5.305 -24.64,7.989 -9.43,3.015 -18,5.722 -25.54,8.058 -44.56,13.817 -92.78,27.672 -143.73,40.961 l -5.95,1.551 0.07,0.309 -8.23,2.125 -0.07,0.015 -0.02,0.028 c -11.39,2.988 -23.7,6.14 -36.91,9.453 -12.09,3.031 -24.63,6.101 -37.62,9.203 -65.16,15.574 -133.24,29.851 -202.88,41.887 l -6.7,1.16 v -0.043 l -6.41,1.023 c -39.4,6.297 -78.67,11.481 -117.55,15.934 -37.82,4.328 -76.3,8.027 -114.59,11.429 l -6.24,0.551 0.64,6.246 30.03,291.59 112.3,-162.38 131.75,119.47 -29.25,-277.391 -0.05,-0.457 2.36,2.852 197.94,239.926 7.63,9.24 3.08,-11.58 80.03,-300.606 1.65,-6.199 0.55,2.137 69.73,275.368" /><path
         id="path30"
         style="fill:#ee2327;fill-opacity:1;fill-rule:evenodd;stroke:none"
         d="m 1645.84,1064 79.69,-165.086 33.61,111.256 c 16.28,-5.17 58.19,-18.971 82.05,-26.908 l -67.02,-234.973 c -57.76,19.016 -123.35,38.609 -194.34,57.113 z m -575.49,110.48 106.75,-154.23 125.01,113.45 -27.57,-261.462 c -79.38,12.688 -157.3,20.774 -232.58,27.457 z m 415.31,-64.46 80.04,-300.606 c -87.08,22.844 -180.94,43.906 -277.98,60.684 l 197.94,239.922" /><path
         id="path32"
         style="fill:#231f20;fill-opacity:1;fill-rule:nonzero;stroke:none"
         d="m 906.27,1061.8 h 95.57 V 999.918 H 900.094 v 6.172 49.54 6.17 h 6.176" /><path
         id="path34"
         style="fill:#ee2327;fill-opacity:1;fill-rule:evenodd;stroke:none"
         d="m 906.27,1055.62 h 89.398 V 1006.1 H 906.27 v 49.52" /><path
         id="path36"
         style="fill:#231f20;fill-opacity:1;fill-rule:nonzero;stroke:none"
         d="m 873.414,1095.76 h 92.77 v -58.2 h -98.942 v 6.17 45.85 6.18 h 6.172" /><path
         id="path38"
         style="fill:#80d1da;fill-opacity:1;fill-rule:evenodd;stroke:none"
         d="m 873.414,1089.58 h 86.598 v -45.85 h -86.598 v 45.85" /><path
         id="path40"
         style="fill:#231f20;fill-opacity:1;fill-rule:nonzero;stroke:none"
         d="m 452.555,1129.66 166.933,-220.644 11.153,-14.743 -18.391,-2.121 -0.105,-0.015 c -11.692,-1.348 -24.067,-2.844 -37.055,-4.465 -14.598,-1.82 -26.82,-3.395 -36.649,-4.711 -61.894,-8.289 -122.343,-17.844 -180.476,-28.184 l -17.598,-3.125 5.778,16.934 87.972,258.094 6.43,18.85 z m 289.363,-83.2 101.23,-43.51 9.692,-4.161 -4.156,-9.687 -0.008,-0.028 v -0.043 c -3.063,-7.105 -6.715,-13.922 -10.887,-20.39 -4.23,-6.567 -8.891,-12.637 -13.887,-18.161 -26.168,-28.914 -63.933,-46.542 -104.277,-46.542 h -0.016 c -38.714,0 -73.863,15.792 -99.328,41.257 -25.457,25.461 -41.242,60.595 -41.25,99.305 v 0.03 0.01 c 0.008,38.72 15.797,73.87 41.262,99.34 25.453,25.45 60.598,41.24 99.301,41.25 h 0.031 0.023 c 23.579,-0.01 46.629,-6.06 67.008,-17.04 3.317,-1.79 6.555,-3.7 9.703,-5.73 16.286,-10.52 30.473,-24.4 41.301,-40.98 l 5.758,-8.83 -8.855,-5.77 z m -498.441,59.3 c 2.437,0.54 3.671,0.81 3.687,0.82 32.465,6.53 59.891,3.64 80.965,-7.76 21.664,-11.7 36.258,-32.02 42.437,-59.98 l 0.039,-0.04 c 0.223,-1.02 0.395,-1.81 0.493,-2.3 l 0.011,-0.05 c 1.133,-5.68 1.559,-11.5 1.325,-17.34 -0.231,-5.72 -1.098,-11.56 -2.571,-17.38 -7.398,-29.382 -30.304,-57.183 -61.672,-65.425 l -20.425,-5.367 15.179,-75.473 2.094,-10.41 -10.484,-2.032 -0.063,-0.011 c -4.211,-0.813 -10.16,-1.981 -17.105,-3.348 -4.352,-0.859 -10.071,-2.004 -16.91,-3.383 -30.024,-6.051 -57.887,-11.961 -83.641,-17.695 l -10.356,-2.305 -2.253,10.367 -51.938,238.912 -2.211,10.17 10.16,2.35 -0.004,0.02 c 3.739,0.9 9.274,2.21 16.434,3.91 4.016,0.95 9.504,2.23 16.715,3.9 28.719,6.66 58.785,13.32 90.09,19.86 l 0.004,-0.01" /><path
         id="path42"
         style="fill:#f9c328;fill-opacity:1;fill-rule:evenodd;stroke:none"
         d="M 719.629,1044.53 838.973,993.234 C 818.656,946.008 771.426,914.52 719.629,914.52 c -71.609,0 -130.012,58.406 -130.012,130.01 0,71.61 58.403,130.01 130.012,130.01 43.672,0 85.316,-22.34 109.184,-58.91 z m -474.004,50.91 c 62.836,13.88 104.605,-8.85 115.094,-61 6.91,-34.37 -17.059,-77.897 -55.215,-87.924 -10.684,-2.809 -19.383,-5.098 -30.07,-7.907 5.711,-28.402 11.425,-56.804 17.136,-85.211 -41.066,-7.933 -80.492,-16.164 -118.011,-24.519 -17.313,79.637 -34.621,159.273 -51.938,238.911 38.703,9.32 79.82,18.62 123.004,27.65 z m 198.496,27.85 166.93,-220.642 C 522.125,892.383 436.512,879.488 356.145,865.195 l 87.976,258.095" /><path
         id="path44"
         style="fill:#231f20;fill-opacity:1;fill-rule:nonzero;stroke:none"
         d="m 1276.34,900.426 181.26,212.124 12.91,15.11 5.28,-19.16 73.3,-265.777 3.58,-13.02 1.67,6.301 66.89,251.176 79.5,-165.598 32.92,120.018 2.92,10.65 10.48,-3.34 c 11.76,-3.74 36.78,-11.98 58.77,-19.26 4.27,-1.42 8.44,-2.8 12.37,-4.1 8.47,-2.82 -6.9,2.28 10.68,-3.59 v 0.02 c 0.46,-0.14 0.29,-0.08 0.34,-0.1 l 9.62,-3.2 -2.75,-9.7 -67.03,-235.847 -3.03,-10.649 -10.44,3.457 c -41.63,13.754 -87.13,27.762 -135.53,41.372 -8.3,2.332 -17.85,4.964 -28.73,7.921 -11.89,3.227 -21.77,5.875 -29.37,7.86 l -0.05,0.011 -10.26,2.68 v 0.004 l -15.29,3.871 c -57.27,14.5 -117.69,28.188 -180.03,40.215 -13.34,2.574 -25.55,4.863 -36.62,6.855 -11.25,2.024 -23.56,4.161 -37.01,6.407 l -0.07,0.011 -13.92,2.321 -0.02,-0.192 -10.83,1.469 c -39.7,5.399 -78.3,10.203 -116.53,14.379 -37.02,4.051 -74.48,7.551 -113.25,10.492 l -10.78,0.821 1.07,10.796 27.15,266.016 112.28,-158.12 137.95,126.71 -25.98,-261.668 -0.39,-3.891 6.97,8.145" /><path
         id="path46"
         style="fill:#f9c328;fill-opacity:1;fill-rule:evenodd;stroke:none"
         d="M 1465.62,1105.69 1284.36,893.563 c 88.86,-14.829 174.81,-33.458 254.55,-53.649 z m -413.13,54.98 -23.63,-238.471 c 75.57,-5.73 150.5,-14.125 230.39,-24.992 l 23.09,232.893 -126.24,-114.79 z m 571.28,-103.47 -59.22,-223.884 c 70.99,-18.574 136.58,-38.242 194.33,-57.332 l 67.03,235.846 c -23.86,7.96 -65.78,21.81 -82.05,27 l -40.41,-147.314 -79.68,165.684" /><path
         id="path48"
         style="fill:#231f20;fill-opacity:1;fill-rule:evenodd;stroke:none"
         d="m 254.977,1032.44 c 9.39,0 17.043,-7.66 17.043,-17.05 0,-9.39 -7.653,-17.05 -17.043,-17.05 -9.395,0 -17.051,7.66 -17.051,17.05 0,9.39 7.656,17.05 17.051,17.05 z m 78.246,11.75 c 0.957,-3.2 1.777,-6.46 2.441,-9.75 6.91,-32.28 -10.836,-58.905 -61.519,-69.971 -10.684,-2.813 -21.04,-4.906 -31.723,-7.715 5.711,-28.406 11.219,-55.688 16.933,-84.094 -25.417,-4.91 -49.265,-10.25 -72.898,-15.347 l 1.762,-9.52 c 27.191,5.965 55.351,11.844 84.367,17.59 -5.676,28.242 -11.441,56.871 -17.117,85.105 10.687,2.809 21.043,4.907 31.73,7.715 45.977,11.594 65.293,43.957 58.379,76.237 -0.82,4.08 -1.859,8.06 -3.094,11.92 z M 513.309,906.066 c 23.086,3.231 46.468,6.301 70.101,9.196 l -7.019,9.273 -44.688,59.067 -12.742,-1.879 44.328,-58.594 c -17.062,-2.184 -35.25,-4.859 -52.019,-7.211 z m 213.011,119.604 92.672,-37.17 0.742,-0.305 -0.336,-0.722 -0.011,-0.024 v 0 0 0 c -1.317,-2.875 -2.789,-5.679 -4.383,-8.394 -1.609,-2.739 -3.344,-5.379 -5.176,-7.891 -9.523,-13.047 -22.305,-23.695 -37.023,-31.082 l -0.555,-0.281 -0.387,0.496 -5.933,7.68 -0.582,0.753 0.863,0.403 0.027,0.012 v 0 c 2.379,1.082 4.711,2.257 6.989,3.515 2.25,1.246 4.461,2.578 6.621,3.996 10.742,7.078 19.8,16.082 26.203,26.485 l -80.25,30.829 -0.488,0.19 v 0.52 l -0.036,10.28 -0.004,1.13 z m 447.84,-101.74 c 21.86,-2.571 43.97,-5.348 66.43,-8.321 2.44,24.696 4.89,49.395 7.34,74.09 l -10.71,1.563 -6.36,-64.129 c -18.1,2.355 -37.98,4.734 -55.71,6.82 z m 269.8,-45.559 c 23.76,-5.269 47.13,-10.742 70.03,-16.351 -7.46,27.101 -14.94,54.203 -22.42,81.3 l -10.72,2.258 19.31,-70.058 c -17.77,4.273 -35.81,8.453 -54.09,12.523 z m 231.38,-60.211 c 24.38,-7.293 47.8,-14.617 70.11,-21.875 l 24.28,85.457 -10.98,3.145 -21.22,-75.899 c -19.15,6.168 -39.07,12.379 -59.7,18.567 z m -241.66,155.731 c 9.39,0 17.05,-7.657 17.05,-17.047 0,-9.395 -7.66,-17.051 -17.05,-17.051 -9.39,0 -17.04,7.656 -17.04,17.051 0,9.39 7.65,17.047 17.04,17.047 z m -964.317,18.941 c 9.391,0 17.043,-7.656 17.043,-17.051 0,-9.39 -7.652,-17.043 -17.043,-17.043 -9.39,0 -17.05,7.653 -17.05,17.043 0,9.395 7.66,17.051 17.05,17.051" /><path
         id="path50"
         style="fill:#231f20;fill-opacity:1;fill-rule:nonzero;stroke:none"
         d="m 892.684,1078.36 h 89.793 v -60.77 H 882.102 v 10.58 39.61 10.58 h 10.582" /><path
         id="path52"
         style="fill:#f9c328;fill-opacity:1;fill-rule:evenodd;stroke:none"
         d="m 892.684,1067.78 h 79.214 v -39.61 h -79.214 v 39.61" /></g></g></svg>