<?xml version="1.0" encoding="utf-8"?>
<!-- Generator: Adobe Illustrator 16.0.3, SVG Export Plug-In . SVG Version: 6.00 Build 0)  -->
<!DOCTYPE svg PUBLIC "-//W3C//DTD SVG 1.1//EN" "http://www.w3.org/Graphics/SVG/1.1/DTD/svg11.dtd">
<svg version="1.1" id="Layer_1" xmlns="http://www.w3.org/2000/svg" xmlns:xlink="http://www.w3.org/1999/xlink" x="0px" y="0px"
	 width="1276.956px" height="364.641px" viewBox="0 0 1276.956 364.641" enable-background="new 0 0 1276.956 364.641"
	 xml:space="preserve">
<g>
	<path fill-rule="evenodd" clip-rule="evenodd" fill="#FEFE33" stroke="#000000" stroke-miterlimit="10" d="M405.903,343.261
		c-33.815-24.46-51.731-58.331-52.803-100.523c-4.448-12.938-3.828-25.34,3.969-36.97c11.463-29.891,28.107-55.879,56.446-72.476
		c46.275-27.104,118.082-20.972,155.866,46.267c4.881,8.692-2.213,8.46-6.32,9.933c-45.223,16.231-90.524,32.249-135.798,48.332
		c-1.813,0.644-3.6,1.37-7.564,2.882c4.62,2.08,7.439,3.596,10.422,4.655c43.39,15.432,86.799,30.808,130.213,46.182
		c13.209,4.674,13.221,4.65,5.428,16.734C528.732,365.696,458.757,381.501,405.903,343.261"/>
	<path fill-rule="evenodd" clip-rule="evenodd" fill="#FEFEFE" stroke="#000000" stroke-miterlimit="10" d="M755.055,103.708
		c-9.445,23.334-18.035,44.449-26.54,65.602c-8.492,21.119-16.897,42.274-25.957,64.965
		c-18.195-37.285-35.692-73.142-54.304-111.287c-13.508,31.898-26.062,61.55-38.624,91.192c-3.906,9.229-8.255,18.296-11.623,27.718
		c-2.152,6.026-4.727,5.578-9.595,3.211c-18.215-8.859-18.466-8.754-12.106-27.821c21.167-63.444,42.565-126.813,63.587-190.305
		c2.147-6.485,4.066-7.616,11.553-7.015c20.362,1.632,30.627,11.089,35.636,30.996c5.556,22.054,14.683,43.214,23.192,67.426
		c19.39-40.017,37.898-78.222,56.852-117.344c39.598,65.404,78.344,129.615,117.431,193.615c3.588,5.877,1.589,8.215-2.904,11.388
		c-19.346,13.654-38.546,27.512-59.073,42.201C800.23,200.412,778.137,153.116,755.055,103.708z"/>
	<path fill-rule="evenodd" clip-rule="evenodd" fill="#FEFEFE" stroke="#000000" stroke-miterlimit="10" d="M1156.594,159.704
		c-1.638,26.478-3.573,50.011-4.314,73.581c-0.291,9.307-2.83,12.286-12.479,12.099c-27.979-0.542-27.542-0.091-28.104-27.746
		c-1.311-65.028-2.965-130.048-4.849-195.063c-0.231-8.087,2.253-9.618,10.124-11.683c25.329-6.643,40.129,2.594,52.949,24.681
		c15.463,26.627,34.887,50.962,52.736,76.187c1.963,2.776,3.102,6.49,8.232,8.287c1.186-22.36,2.375-44.209,3.485-66.063
		c0.288-5.617,0.186-11.254,0.514-16.864c1.233-20.959,1.272-20.954,22.605-22.953c20.012-1.872,19.584-1.893,18.595,18.733
		c-3.23,67.352-6.253,134.715-8.985,202.094c-0.37,9.115-2.726,11.684-12.669,13.147c-23.412,3.454-37.614-5.438-49.91-24.795
		C1190.868,201.841,1173.928,182.425,1156.594,159.704z"/>
	<path fill-rule="evenodd" clip-rule="evenodd" fill="#FFFFFF" stroke="#000000" stroke-miterlimit="10" d="M170.053,87.291
		c-0.778-30.133-11.581-55.135-41.042-67.685c-17.461-7.435-36.207-10.216-55.556-9.281C50.941,9.298,29.159,14.192,7.563,20.737
		c-6.619,2.002-8.181,4.274-6.355,11.63c15.73,63.329,30.73,126.838,46.216,190.225c2.532,10.375,0.974,25.769,9.397,29.583
		c7.793,3.53,20.328-4.208,30.95-5.864c7.533-1.175,8.95-4.538,7.812-11.337c-2.258-13.438-3.373-27.084-6.026-40.431
		c-1.865-9.382-0.565-14.639,10.132-16.362c13.52-2.183,25.932-8.027,37.937-14.614c16.605-9.115,26.435-23.311,29.677-41.568
		C169.326,110.609,170.351,98.841,170.053,87.291z M121.991,129.5c-11.079,6.516-23.291,10.405-35.382,14.552
		c-4.342,1.488-5.409-0.503-5.892-4.425c-1.566-12.647-3.432-25.26-5.21-38.117c13.826-2.08,26.965-2.583,40.088-0.699
		c6.838,0.982,14.203,2.697,15.703,10.686C132.759,119.262,128.708,125.551,121.991,129.5z"/>
	<path fill-rule="evenodd" clip-rule="evenodd" fill="#FFFFFF" stroke="#000000" stroke-miterlimit="10" d="M1089.395,228.394
		c-32.366-62.535-64.497-125.188-96.616-187.848c-1.972-3.844-4.066-6.353-8.99-6.289c-9.61,0.117-19.256-0.088-28.833-0.84
		c-6.741-0.526-8.861,2.37-10.086,8.553c-11.113,56.18-22.596,112.289-33.815,168.448c-5.22,26.129-4.996,25.89,20.9,32.39
		c6.94,1.744,8.938-0.349,10.18-6.648c1.747-8.876-0.012-21.277,7.05-25.505c6.776-4.06,17.885-0.88,30.345-0.88
		c3.953,0.186,11.186,1.067,18.353,0.691c7.026-0.37,10.91,1.542,13.049,8.804c3.042,10.324,8.013,20.084,11.063,30.409
		c2.068,7.014,5.574,7.172,11.298,5.314c17.119-5.555,34.207-11.271,51.551-16.052
		C1092.053,236.956,1092.656,234.693,1089.395,228.394z M987.576,176.877c-0.396,0.032-0.776,0.186-1.17,0.264
		c-33.812,7.086-33.822,7.082-27.364-27.059c2.516-13.319,5.106-26.628,8.259-43.021c8.938,22.844,16.385,42.585,24.461,62.061
		C993.994,174.512,992.951,176.423,987.576,176.877z"/>
	<path fill-rule="evenodd" clip-rule="evenodd" fill="#FFFFFF" stroke="#000000" stroke-miterlimit="10" d="M270.824,43.616
		c-2.293-4.448-3.553-9.63-10.744-9.305c-9.183,0.416-18.466,0.11-27.613-0.819c-7.223-0.734-9.795,2.218-11.106,8.813
		c-11.235,56.576-22.769,113.089-34.059,169.652c-4.781,23.954-4.546,23.734,19.008,30.239c7.658,2.112,12.095,2.12,12.569-7.528
		c0.291-5.916,2.838-11.688,3.537-17.623c0.687-5.864,2.963-8.06,9.088-7.736c15.608,0.814,31.248,1.157,46.879,1.338
		c4.955,0.055,6.878,2.288,8.366,6.678c3.466,10.222,8.134,20.067,11.16,30.404c2.316,7.886,5.61,9.829,13.473,7.042
		c12.797-4.53,25.964-8.001,38.981-11.918c1.319-12.327,2.642-24.65,3.965-36.975C326.501,151.786,298.688,97.687,270.824,43.616z
		 M264.94,176.914c-9.873,1.404-19.766,2.7-29.635,4.125c-8.126,1.171-4.734-4.849-4.216-7.655
		c3.859-21.024,8.142-41.976,12.848-65.742c8.994,22.613,16.982,42.841,25.109,63.014
		C270.816,175.048,268.594,176.396,264.94,176.914z"/>
	<path fill-rule="evenodd" clip-rule="evenodd" d="M446,186.412c0,9.61,7.789,17.398,17.397,17.398
		c9.606,0,17.395-7.788,17.395-17.398c0-9.605-7.788-17.394-17.395-17.394C453.788,169.019,446,176.807,446,186.412z"/>
</g>
</svg>
